<svg width="326" height="33" viewBox="0 0 326 33" fill="none" xmlns="http://www.w3.org/2000/svg">
<path d="M9.52 10.24H10.72V14.144H8.88V12H2.08V14.144H0.24V10.24H1.28C1.93067 9.38667 2.256 8.10133 2.256 6.384V0.799999H9.52V10.24ZM3.296 10.24H7.68V2.528H4.096V6.416C4.096 8.08 3.82933 9.35467 3.296 10.24ZM16.7391 3.792C17.8378 3.792 18.7765 4.20267 19.5551 5.024C20.3338 5.83467 20.7231 6.82667 20.7231 8C20.7231 9.184 20.3338 10.1813 19.5551 10.992C18.7765 11.8027 17.8378 12.208 16.7391 12.208C15.5231 12.208 14.5898 11.76 13.9391 10.864V15.2H12.2111V4H13.9391V5.152C14.5898 4.24533 15.5231 3.792 16.7391 3.792ZM14.6591 9.84C15.1391 10.32 15.7418 10.56 16.4671 10.56C17.1925 10.56 17.7951 10.32 18.2751 9.84C18.7551 9.34933 18.9951 8.736 18.9951 8C18.9951 7.264 18.7551 6.656 18.2751 6.176C17.7951 5.68533 17.1925 5.44 16.4671 5.44C15.7418 5.44 15.1391 5.68533 14.6591 6.176C14.1791 6.656 13.9391 7.264 13.9391 8C13.9391 8.736 14.1791 9.34933 14.6591 9.84ZM27.3688 4H29.2088L26.1368 12.256C25.7634 13.2693 25.2408 14.0267 24.5688 14.528C23.8968 15.0293 23.1181 15.2533 22.2328 15.2V13.584C22.7768 13.616 23.2141 13.504 23.5448 13.248C23.8861 13.0027 24.1581 12.6027 24.3608 12.048L24.4088 11.936L21.0488 4H22.8888L25.3208 9.824L27.3688 4ZM35.6493 4V5.664H32.0173V12H30.2893V4H35.6493ZM42.6125 4H43.9405V12H42.2445V6.912L38.1485 12H36.8205V4H38.5165V9.072L42.6125 4ZM47.3055 8.736C47.4335 9.344 47.7268 9.81333 48.1855 10.144C48.6442 10.464 49.2042 10.624 49.8655 10.624C50.7828 10.624 51.4708 10.2933 51.9295 9.632L53.3535 10.464C52.5642 11.6267 51.3962 12.208 49.8495 12.208C48.5482 12.208 47.4975 11.8133 46.6975 11.024C45.8975 10.224 45.4975 9.216 45.4975 8C45.4975 6.80533 45.8922 5.808 46.6815 5.008C47.4708 4.19733 48.4842 3.792 49.7215 3.792C50.8948 3.792 51.8548 4.20267 52.6015 5.024C53.3588 5.84533 53.7375 6.84267 53.7375 8.016C53.7375 8.19733 53.7162 8.43733 53.6735 8.736H47.3055ZM47.2895 7.328H51.9935C51.8762 6.67733 51.6042 6.18667 51.1775 5.856C50.7615 5.52533 50.2708 5.36 49.7055 5.36C49.0655 5.36 48.5322 5.536 48.1055 5.888C47.6788 6.24 47.4068 6.72 47.2895 7.328ZM66.378 4V12H64.65V5.632H60.986V12H59.258V4H66.378ZM72.159 12.208C70.9857 12.208 69.9883 11.8027 69.167 10.992C68.3457 10.1813 67.935 9.184 67.935 8C67.935 6.816 68.3457 5.81867 69.167 5.008C69.9883 4.19733 70.9857 3.792 72.159 3.792C73.343 3.792 74.3403 4.19733 75.151 5.008C75.9723 5.81867 76.383 6.816 76.383 8C76.383 9.184 75.9723 10.1813 75.151 10.992C74.3403 11.8027 73.343 12.208 72.159 12.208ZM70.383 9.808C70.863 10.288 71.455 10.528 72.159 10.528C72.863 10.528 73.455 10.288 73.935 9.808C74.415 9.328 74.655 8.72533 74.655 8C74.655 7.27467 74.415 6.672 73.935 6.192C73.455 5.712 72.863 5.472 72.159 5.472C71.455 5.472 70.863 5.712 70.383 6.192C69.903 6.672 69.663 7.27467 69.663 8C69.663 8.72533 69.903 9.328 70.383 9.808ZM84.4631 4V12H82.7351V5.664H80.0631V8.64C80.0631 9.90933 79.7858 10.8107 79.2311 11.344C78.6765 11.8773 77.8871 12.096 76.8631 12V10.384C77.3538 10.4693 77.7218 10.368 77.9671 10.08C78.2125 9.792 78.3351 9.28533 78.3351 8.56V4H84.4631ZM89.9648 6.72C90.8181 6.72 91.5168 6.96533 92.0608 7.456C92.6048 7.936 92.8768 8.57067 92.8768 9.36C92.8768 10.1387 92.6048 10.7733 92.0608 11.264C91.5168 11.7547 90.8181 12 89.9648 12H86.4768V4H88.2048V6.72H89.9648ZM89.9808 10.448C90.3221 10.448 90.6048 10.3467 90.8288 10.144C91.0634 9.94133 91.1808 9.68 91.1808 9.36C91.1808 9.02933 91.0634 8.768 90.8288 8.576C90.6048 8.37333 90.3221 8.272 89.9808 8.272H88.2048V10.448H89.9808ZM98.629 7.904C99.4823 8.288 99.909 8.92267 99.909 9.808C99.909 10.4907 99.6317 11.0613 99.077 11.52C98.5223 11.9787 97.749 12.208 96.757 12.208C95.1463 12.208 94.0583 11.568 93.493 10.288L94.901 9.456C95.189 10.256 95.813 10.656 96.773 10.656C97.221 10.656 97.573 10.5653 97.829 10.384C98.085 10.192 98.213 9.94133 98.213 9.632C98.213 9.35467 98.1117 9.136 97.909 8.976C97.7063 8.80533 97.4237 8.72 97.061 8.72H95.925V7.2H96.773C97.125 7.2 97.397 7.12 97.589 6.96C97.7917 6.78933 97.893 6.56 97.893 6.272C97.893 5.99467 97.781 5.77067 97.557 5.6C97.333 5.41867 97.0343 5.328 96.661 5.328C95.861 5.328 95.3063 5.68 94.997 6.384L93.589 5.584C94.1863 4.38933 95.1997 3.792 96.629 3.792C97.525 3.792 98.2343 4.02133 98.757 4.48C99.2903 4.928 99.557 5.47733 99.557 6.128C99.557 6.928 99.2477 7.52 98.629 7.904ZM105.097 12.208C103.923 12.208 102.926 11.8027 102.105 10.992C101.283 10.1813 100.873 9.184 100.873 8C100.873 6.816 101.283 5.81867 102.105 5.008C102.926 4.19733 103.923 3.792 105.097 3.792C106.281 3.792 107.278 4.19733 108.089 5.008C108.91 5.81867 109.321 6.816 109.321 8C109.321 9.184 108.91 10.1813 108.089 10.992C107.278 11.8027 106.281 12.208 105.097 12.208ZM103.321 9.808C103.801 10.288 104.393 10.528 105.097 10.528C105.801 10.528 106.393 10.288 106.873 9.808C107.353 9.328 107.593 8.72533 107.593 8C107.593 7.27467 107.353 6.672 106.873 6.192C106.393 5.712 105.801 5.472 105.097 5.472C104.393 5.472 103.801 5.712 103.321 6.192C102.841 6.672 102.601 7.27467 102.601 8C102.601 8.72533 102.841 9.328 103.321 9.808ZM116.419 7.888C117.208 8.25067 117.603 8.864 117.603 9.728C117.603 10.4 117.374 10.9493 116.915 11.376C116.467 11.792 115.822 12 114.979 12H110.883V4H114.659C115.48 4 116.115 4.208 116.563 4.624C117.022 5.02933 117.251 5.55733 117.251 6.208C117.251 6.96533 116.974 7.52533 116.419 7.888ZM114.531 5.472H112.531V7.248H114.531C115.235 7.248 115.587 6.94933 115.587 6.352C115.587 5.76533 115.235 5.472 114.531 5.472ZM114.819 10.496C115.544 10.496 115.907 10.1813 115.907 9.552C115.907 9.27467 115.811 9.06133 115.619 8.912C115.427 8.752 115.16 8.672 114.819 8.672H112.531V10.496H114.819ZM125.344 4H127.072V12H125.344V10.848C124.693 11.7547 123.76 12.208 122.544 12.208C121.445 12.208 120.507 11.8027 119.728 10.992C118.949 10.1707 118.56 9.17333 118.56 8C118.56 6.816 118.949 5.81867 119.728 5.008C120.507 4.19733 121.445 3.792 122.544 3.792C123.76 3.792 124.693 4.24 125.344 5.136V4ZM121.008 9.84C121.488 10.32 122.091 10.56 122.816 10.56C123.541 10.56 124.144 10.32 124.624 9.84C125.104 9.34933 125.344 8.736 125.344 8C125.344 7.264 125.104 6.656 124.624 6.176C124.144 5.68533 123.541 5.44 122.816 5.44C122.091 5.44 121.488 5.68533 121.008 6.176C120.528 6.656 120.288 7.264 120.288 8C120.288 8.736 120.528 9.34933 121.008 9.84ZM135.198 4V5.664H132.59V12H130.862V5.664H128.238V4H135.198ZM137.415 8.736C137.543 9.344 137.836 9.81333 138.295 10.144C138.754 10.464 139.314 10.624 139.975 10.624C140.892 10.624 141.58 10.2933 142.039 9.632L143.463 10.464C142.674 11.6267 141.506 12.208 139.959 12.208C138.658 12.208 137.607 11.8133 136.807 11.024C136.007 10.224 135.607 9.216 135.607 8C135.607 6.80533 136.002 5.808 136.791 5.008C137.58 4.19733 138.594 3.792 139.831 3.792C141.004 3.792 141.964 4.20267 142.711 5.024C143.468 5.84533 143.847 6.84267 143.847 8.016C143.847 8.19733 143.826 8.43733 143.783 8.736H137.415ZM137.399 7.328H142.103C141.986 6.67733 141.714 6.18667 141.287 5.856C140.871 5.52533 140.38 5.36 139.815 5.36C139.175 5.36 138.642 5.536 138.215 5.888C137.788 6.24 137.516 6.72 137.399 7.328ZM151.807 4V12H150.079V5.664H147.407V8.64C147.407 9.90933 147.13 10.8107 146.575 11.344C146.02 11.8773 145.231 12.096 144.207 12V10.384C144.698 10.4693 145.066 10.368 145.311 10.08C145.556 9.792 145.679 9.28533 145.679 8.56V4H151.807ZM159.613 4H160.941V12H159.245V6.912L155.149 12H153.821V4H155.517V9.072L159.613 4ZM172.338 4H174.066V12H172.338V8.816H168.674V12H166.946V4H168.674V7.184H172.338V4ZM177.431 8.736C177.559 9.344 177.852 9.81333 178.311 10.144C178.769 10.464 179.329 10.624 179.991 10.624C180.908 10.624 181.596 10.2933 182.055 9.632L183.479 10.464C182.689 11.6267 181.521 12.208 179.975 12.208C178.673 12.208 177.623 11.8133 176.823 11.024C176.023 10.224 175.623 9.216 175.623 8C175.623 6.80533 176.017 5.808 176.807 5.008C177.596 4.19733 178.609 3.792 179.847 3.792C181.02 3.792 181.98 4.20267 182.727 5.024C183.484 5.84533 183.863 6.84267 183.863 8.016C183.863 8.19733 183.841 8.43733 183.799 8.736H177.431ZM177.414 7.328H182.119C182.001 6.67733 181.729 6.18667 181.303 5.856C180.887 5.52533 180.396 5.36 179.831 5.36C179.191 5.36 178.657 5.536 178.231 5.888C177.804 6.24 177.532 6.72 177.414 7.328ZM194.919 7.888C195.708 8.25067 196.103 8.864 196.103 9.728C196.103 10.4 195.874 10.9493 195.415 11.376C194.967 11.792 194.322 12 193.479 12H189.383V4H193.159C193.98 4 194.615 4.208 195.063 4.624C195.522 5.02933 195.751 5.55733 195.751 6.208C195.751 6.96533 195.474 7.52533 194.919 7.888ZM193.031 5.472H191.031V7.248H193.031C193.735 7.248 194.087 6.94933 194.087 6.352C194.087 5.76533 193.735 5.472 193.031 5.472ZM193.319 10.496C194.044 10.496 194.407 10.1813 194.407 9.552C194.407 9.27467 194.311 9.06133 194.119 8.912C193.927 8.752 193.66 8.672 193.319 8.672H191.031V10.496H193.319ZM203.3 4H204.628V12H202.932V6.912L198.836 12H197.508V4H199.204V9.072L203.3 4ZM213.673 10.368H214.745V14.144H213.049V12H207.561V14.144H205.865V10.368H206.841C207.332 9.67467 207.577 8.70933 207.577 7.472V4H213.673V10.368ZM208.745 10.368H211.977V5.584H209.273V7.472C209.273 8.61333 209.097 9.57867 208.745 10.368ZM222.184 4V12H220.488V9.312H219.528L217.496 12H215.464L217.624 9.152C217.07 8.97067 216.622 8.65067 216.28 8.192C215.95 7.73333 215.784 7.22133 215.784 6.656C215.784 5.92 216.046 5.296 216.568 4.784C217.102 4.26133 217.784 4 218.616 4H222.184ZM218.712 7.824H220.488V5.568H218.712C218.36 5.568 218.067 5.66933 217.832 5.872C217.598 6.07467 217.48 6.352 217.48 6.704C217.48 7.04533 217.598 7.31733 217.832 7.52C218.067 7.72267 218.36 7.824 218.712 7.824ZM230.308 4V5.664H227.7V12H225.972V5.664H223.348V4H230.308ZM243.701 5.232C244.426 5.98933 244.789 6.912 244.789 8C244.789 9.088 244.426 10.0107 243.701 10.768C242.975 11.5253 241.994 11.984 240.757 12.144V15.2H239.061V12.144C237.823 11.984 236.842 11.5253 236.117 10.768C235.391 10.0107 235.029 9.088 235.029 8C235.029 6.912 235.391 5.98933 236.117 5.232C236.842 4.47467 237.823 4.016 239.061 3.856V0.799999H240.757V3.856C241.994 4.016 242.975 4.47467 243.701 5.232ZM240.757 10.496C241.493 10.3573 242.063 10.0693 242.469 9.632C242.874 9.184 243.077 8.64 243.077 8C243.077 7.36 242.874 6.82133 242.469 6.384C242.063 5.936 241.493 5.64267 240.757 5.504V10.496ZM237.349 6.384C236.943 6.832 236.741 7.37067 236.741 8C236.741 8.62933 236.943 9.168 237.349 9.616C237.754 10.064 238.325 10.3573 239.061 10.496V5.504C238.325 5.64267 237.754 5.936 237.349 6.384ZM250.128 12.208C248.954 12.208 247.957 11.8027 247.136 10.992C246.314 10.1813 245.904 9.184 245.904 8C245.904 6.816 246.314 5.81867 247.136 5.008C247.957 4.19733 248.954 3.792 250.128 3.792C251.312 3.792 252.309 4.19733 253.12 5.008C253.941 5.81867 254.352 6.816 254.352 8C254.352 9.184 253.941 10.1813 253.12 10.992C252.309 11.8027 251.312 12.208 250.128 12.208ZM248.352 9.808C248.832 10.288 249.424 10.528 250.128 10.528C250.832 10.528 251.424 10.288 251.904 9.808C252.384 9.328 252.624 8.72533 252.624 8C252.624 7.27467 252.384 6.672 251.904 6.192C251.424 5.712 250.832 5.472 250.128 5.472C249.424 5.472 248.832 5.712 248.352 6.192C247.872 6.672 247.632 7.27467 247.632 8C247.632 8.72533 247.872 9.328 248.352 9.808ZM261.714 4V5.664H259.106V12H257.378V5.664H254.754V4H261.714ZM266.347 12.208C265.173 12.208 264.176 11.8027 263.355 10.992C262.533 10.1813 262.123 9.184 262.123 8C262.123 6.816 262.533 5.81867 263.355 5.008C264.176 4.19733 265.173 3.792 266.347 3.792C267.531 3.792 268.528 4.19733 269.339 5.008C270.16 5.81867 270.571 6.816 270.571 8C270.571 9.184 270.16 10.1813 269.339 10.992C268.528 11.8027 267.531 12.208 266.347 12.208ZM264.571 9.808C265.051 10.288 265.643 10.528 266.347 10.528C267.051 10.528 267.643 10.288 268.123 9.808C268.603 9.328 268.843 8.72533 268.843 8C268.843 7.27467 268.603 6.672 268.123 6.192C267.643 5.712 267.051 5.472 266.347 5.472C265.643 5.472 265.051 5.712 264.571 6.192C264.091 6.672 263.851 7.27467 263.851 8C263.851 8.72533 264.091 9.328 264.571 9.808ZM277.493 4V5.664H273.861V12H272.133V4H277.493ZM283.192 3.792C284.291 3.792 285.23 4.20267 286.008 5.024C286.787 5.83467 287.176 6.82667 287.176 8C287.176 9.184 286.787 10.1813 286.008 10.992C285.23 11.8027 284.291 12.208 283.192 12.208C281.976 12.208 281.043 11.76 280.392 10.864V15.2H278.664V4H280.392V5.152C281.043 4.24533 281.976 3.792 283.192 3.792ZM281.112 9.84C281.592 10.32 282.195 10.56 282.92 10.56C283.646 10.56 284.248 10.32 284.728 9.84C285.208 9.34933 285.448 8.736 285.448 8C285.448 7.264 285.208 6.656 284.728 6.176C284.248 5.68533 283.646 5.44 282.92 5.44C282.195 5.44 281.592 5.68533 281.112 6.176C280.632 6.656 280.392 7.264 280.392 8C280.392 8.736 280.632 9.34933 281.112 9.84ZM295.078 4H296.806V12H295.078V10.848C294.428 11.7547 293.494 12.208 292.278 12.208C291.18 12.208 290.241 11.8027 289.462 10.992C288.684 10.1707 288.294 9.17333 288.294 8C288.294 6.816 288.684 5.81867 289.462 5.008C290.241 4.19733 291.18 3.792 292.278 3.792C293.494 3.792 294.428 4.24 295.078 5.136V4ZM290.742 9.84C291.222 10.32 291.825 10.56 292.55 10.56C293.276 10.56 293.878 10.32 294.358 9.84C294.838 9.34933 295.078 8.736 295.078 8C295.078 7.264 294.838 6.656 294.358 6.176C293.878 5.68533 293.276 5.44 292.55 5.44C291.825 5.44 291.222 5.68533 290.742 6.176C290.262 6.656 290.022 7.264 290.022 8C290.022 8.736 290.262 9.34933 290.742 9.84ZM307.045 5.232C307.77 5.98933 308.133 6.912 308.133 8C308.133 9.088 307.77 10.0107 307.045 10.768C306.319 11.5253 305.338 11.984 304.101 12.144V15.2H302.405V12.144C301.167 11.984 300.186 11.5253 299.461 10.768C298.735 10.0107 298.373 9.088 298.373 8C298.373 6.912 298.735 5.98933 299.461 5.232C300.186 4.47467 301.167 4.016 302.405 3.856V0.799999H304.101V3.856C305.338 4.016 306.319 4.47467 307.045 5.232ZM304.101 10.496C304.837 10.3573 305.407 10.0693 305.812 9.632C306.218 9.184 306.421 8.64 306.421 8C306.421 7.36 306.218 6.82133 305.812 6.384C305.407 5.936 304.837 5.64267 304.101 5.504V10.496ZM300.693 6.384C300.287 6.832 300.085 7.37067 300.085 8C300.085 8.62933 300.287 9.168 300.693 9.616C301.098 10.064 301.669 10.3573 302.405 10.496V5.504C301.669 5.64267 301.098 5.936 300.693 6.384ZM315.488 4H316.816V12H315.12V6.912L311.024 12H309.696V4H311.392V9.072L315.488 4ZM324.613 4H325.941V12H324.245V6.912L320.149 12H318.821V4H320.517V9.072L324.613 4ZM4.72 32.208C3.49333 32.208 2.49067 31.8133 1.712 31.024C0.944 30.224 0.56 29.2053 0.56 27.968C0.56 26.6133 0.762667 25.568 1.168 24.832C1.57333 24.0853 2.39467 23.408 3.632 22.8C3.83467 22.704 4.13333 22.5653 4.528 22.384C4.93333 22.2027 5.21067 22.0747 5.36 22C5.50933 21.9147 5.696 21.7973 5.92 21.648C6.144 21.488 6.30933 21.3227 6.416 21.152C6.52267 20.9707 6.608 20.7573 6.672 20.512L8.08 21.328C8.03733 21.5627 7.968 21.7813 7.872 21.984C7.776 22.176 7.63733 22.3573 7.456 22.528C7.27467 22.6987 7.11467 22.8373 6.976 22.944C6.848 23.0507 6.62933 23.1787 6.32 23.328C6.01067 23.4773 5.78133 23.584 5.632 23.648C5.49333 23.712 5.22667 23.824 4.832 23.984C4.128 24.2613 3.61067 24.5493 3.28 24.848C2.96 25.136 2.736 25.4987 2.608 25.936C3.248 25.2107 4.11733 24.848 5.216 24.848C6.15467 24.848 6.97067 25.184 7.664 25.856C8.368 26.528 8.72 27.3973 8.72 28.464C8.72 29.552 8.34667 30.448 7.6 31.152C6.864 31.856 5.904 32.208 4.72 32.208ZM4.704 30.592C5.376 30.592 5.92533 30.3947 6.352 30C6.77867 29.5947 6.992 29.0827 6.992 28.464C6.992 27.8347 6.77867 27.3173 6.352 26.912C5.936 26.5067 5.392 26.304 4.72 26.304C4.12267 26.304 3.584 26.496 3.104 26.88C2.624 27.2533 2.384 27.7547 2.384 28.384C2.384 29.024 2.608 29.552 3.056 29.968C3.504 30.384 4.05333 30.592 4.704 30.592ZM11.4461 28.736C11.5741 29.344 11.8675 29.8133 12.3261 30.144C12.7848 30.464 13.3448 30.624 14.0061 30.624C14.9235 30.624 15.6115 30.2933 16.0701 29.632L17.4941 30.464C16.7048 31.6267 15.5368 32.208 13.9901 32.208C12.6888 32.208 11.6381 31.8133 10.8381 31.024C10.0381 30.224 9.63813 29.216 9.63813 28C9.63813 26.8053 10.0328 25.808 10.8221 25.008C11.6115 24.1973 12.6248 23.792 13.8621 23.792C15.0355 23.792 15.9955 24.2027 16.7421 25.024C17.4995 25.8453 17.8781 26.8427 17.8781 28.016C17.8781 28.1973 17.8568 28.4373 17.8141 28.736H11.4461ZM11.4301 27.328H16.1341C16.0168 26.6773 15.7448 26.1867 15.3181 25.856C14.9021 25.5253 14.4115 25.36 13.8461 25.36C13.2061 25.36 12.6728 25.536 12.2461 25.888C11.8195 26.24 11.5475 26.72 11.4301 27.328ZM23.7384 27.904C24.5917 28.288 25.0184 28.9227 25.0184 29.808C25.0184 30.4907 24.741 31.0613 24.1864 31.52C23.6317 31.9787 22.8584 32.208 21.8664 32.208C20.2557 32.208 19.1677 31.568 18.6024 30.288L20.0104 29.456C20.2984 30.256 20.9224 30.656 21.8824 30.656C22.3304 30.656 22.6824 30.5653 22.9384 30.384C23.1944 30.192 23.3224 29.9413 23.3224 29.632C23.3224 29.3547 23.221 29.136 23.0184 28.976C22.8157 28.8053 22.533 28.72 22.1704 28.72H21.0344V27.2H21.8824C22.2344 27.2 22.5064 27.12 22.6984 26.96C22.901 26.7893 23.0024 26.56 23.0024 26.272C23.0024 25.9947 22.8904 25.7707 22.6664 25.6C22.4424 25.4187 22.1437 25.328 21.7704 25.328C20.9704 25.328 20.4157 25.68 20.1064 26.384L18.6984 25.584C19.2957 24.3893 20.309 23.792 21.7384 23.792C22.6344 23.792 23.3437 24.0213 23.8664 24.48C24.3997 24.928 24.6664 25.4773 24.6664 26.128C24.6664 26.928 24.357 27.52 23.7384 27.904ZM35.9659 27.888C36.7552 28.2507 37.1499 28.864 37.1499 29.728C37.1499 30.4 36.9205 30.9493 36.4619 31.376C36.0139 31.792 35.3685 32 34.5259 32H30.4299V24H34.2059C35.0272 24 35.6619 24.208 36.1099 24.624C36.5685 25.0293 36.7979 25.5573 36.7979 26.208C36.7979 26.9653 36.5205 27.5253 35.9659 27.888ZM34.0779 25.472H32.0779V27.248H34.0779C34.7819 27.248 35.1339 26.9493 35.1339 26.352C35.1339 25.7653 34.7819 25.472 34.0779 25.472ZM34.3659 30.496C35.0912 30.496 35.4539 30.1813 35.4539 29.552C35.4539 29.2747 35.3579 29.0613 35.1659 28.912C34.9739 28.752 34.7072 28.672 34.3659 28.672H32.0779V30.496H34.3659ZM44.8909 24H46.6189V32H44.8909V30.848C44.2402 31.7547 43.3069 32.208 42.0909 32.208C40.9922 32.208 40.0535 31.8027 39.2749 30.992C38.4962 30.1707 38.1069 29.1733 38.1069 28C38.1069 26.816 38.4962 25.8187 39.2749 25.008C40.0535 24.1973 40.9922 23.792 42.0909 23.792C43.3069 23.792 44.2402 24.24 44.8909 25.136V24ZM40.5549 29.84C41.0349 30.32 41.6375 30.56 42.3629 30.56C43.0882 30.56 43.6909 30.32 44.1709 29.84C44.6509 29.3493 44.8909 28.736 44.8909 28C44.8909 27.264 44.6509 26.656 44.1709 26.176C43.6909 25.6853 43.0882 25.44 42.3629 25.44C41.6375 25.44 41.0349 25.6853 40.5549 26.176C40.0749 26.656 39.8349 27.264 39.8349 28C39.8349 28.736 40.0749 29.3493 40.5549 29.84ZM58.105 24H59.833V32H48.633V24H50.361V30.368H53.369V24H55.097V30.368H58.105V24ZM63.1961 28.736C63.3241 29.344 63.6175 29.8133 64.0761 30.144C64.5348 30.464 65.0948 30.624 65.7561 30.624C66.6735 30.624 67.3615 30.2933 67.8201 29.632L69.2441 30.464C68.4548 31.6267 67.2868 32.208 65.7401 32.208C64.4388 32.208 63.3881 31.8133 62.5881 31.024C61.7881 30.224 61.3881 29.216 61.3881 28C61.3881 26.8053 61.7828 25.808 62.5721 25.008C63.3615 24.1973 64.3748 23.792 65.6121 23.792C66.7855 23.792 67.7455 24.2027 68.4921 25.024C69.2495 25.8453 69.6281 26.8427 69.6281 28.016C69.6281 28.1973 69.6068 28.4373 69.5641 28.736H63.1961ZM63.1801 27.328H67.8841C67.7668 26.6773 67.4948 26.1867 67.0681 25.856C66.6521 25.5253 66.1615 25.36 65.5961 25.36C64.9561 25.36 64.4228 25.536 63.9961 25.888C63.5695 26.24 63.2975 26.72 63.1801 27.328ZM76.5086 24V25.664H72.8766V32H71.1486V24H76.5086ZM81.1434 32.208C79.97 32.208 78.9727 31.8027 78.1514 30.992C77.33 30.1813 76.9194 29.184 76.9194 28C76.9194 26.816 77.33 25.8187 78.1514 25.008C78.9727 24.1973 79.97 23.792 81.1434 23.792C82.3274 23.792 83.3247 24.1973 84.1354 25.008C84.9567 25.8187 85.3674 26.816 85.3674 28C85.3674 29.184 84.9567 30.1813 84.1354 30.992C83.3247 31.8027 82.3274 32.208 81.1434 32.208ZM79.3674 29.808C79.8474 30.288 80.4394 30.528 81.1434 30.528C81.8474 30.528 82.4394 30.288 82.9194 29.808C83.3994 29.328 83.6394 28.7253 83.6394 28C83.6394 27.2747 83.3994 26.672 82.9194 26.192C82.4394 25.712 81.8474 25.472 81.1434 25.472C80.4394 25.472 79.8474 25.712 79.3674 26.192C78.8874 26.672 78.6474 27.2747 78.6474 28C78.6474 28.7253 78.8874 29.328 79.3674 29.808ZM94.7059 32.208C93.5005 32.208 92.4925 31.8027 91.6819 30.992C90.8819 30.1813 90.4819 29.184 90.4819 28C90.4819 26.8053 90.8819 25.808 91.6819 25.008C92.4925 24.1973 93.5005 23.792 94.7059 23.792C95.4845 23.792 96.1939 23.9787 96.8339 24.352C97.4739 24.7253 97.9539 25.2267 98.2739 25.856L96.7859 26.72C96.6045 26.336 96.3272 26.0373 95.9539 25.824C95.5912 25.6 95.1699 25.488 94.6899 25.488C93.9859 25.488 93.3939 25.728 92.9139 26.208C92.4445 26.688 92.2099 27.2853 92.2099 28C92.2099 28.7147 92.4445 29.312 92.9139 29.792C93.3939 30.272 93.9859 30.512 94.6899 30.512C95.1592 30.512 95.5805 30.4 95.9539 30.176C96.3379 29.952 96.6259 29.6533 96.8179 29.28L98.3059 30.128C97.9645 30.768 97.4739 31.2747 96.8339 31.648C96.1939 32.0213 95.4845 32.208 94.7059 32.208ZM103.206 32.208C102.033 32.208 101.035 31.8027 100.214 30.992C99.3925 30.1813 98.9819 29.184 98.9819 28C98.9819 26.816 99.3925 25.8187 100.214 25.008C101.035 24.1973 102.033 23.792 103.206 23.792C104.39 23.792 105.387 24.1973 106.198 25.008C107.019 25.8187 107.43 26.816 107.43 28C107.43 29.184 107.019 30.1813 106.198 30.992C105.387 31.8027 104.39 32.208 103.206 32.208ZM101.43 29.808C101.91 30.288 102.502 30.528 103.206 30.528C103.91 30.528 104.502 30.288 104.982 29.808C105.462 29.328 105.702 28.7253 105.702 28C105.702 27.2747 105.462 26.672 104.982 26.192C104.502 25.712 103.91 25.472 103.206 25.472C102.502 25.472 101.91 25.712 101.43 26.192C100.95 26.672 100.71 27.2747 100.71 28C100.71 28.7253 100.95 29.328 101.43 29.808ZM114.352 24V25.664H110.72V32H108.992V24H114.352ZM121.791 24V32H120.063V25.664H117.391V28.64C117.391 29.9093 117.114 30.8107 116.559 31.344C116.005 31.8773 115.215 32.096 114.191 32V30.384C114.682 30.4693 115.05 30.368 115.295 30.08C115.541 29.792 115.663 29.2853 115.663 28.56V24H121.791ZM130.141 24H131.869V32H130.141V30.848C129.49 31.7547 128.557 32.208 127.341 32.208C126.242 32.208 125.304 31.8027 124.525 30.992C123.746 30.1707 123.357 29.1733 123.357 28C123.357 26.816 123.746 25.8187 124.525 25.008C125.304 24.1973 126.242 23.792 127.341 23.792C128.557 23.792 129.49 24.24 130.141 25.136V24ZM125.805 29.84C126.285 30.32 126.888 30.56 127.613 30.56C128.338 30.56 128.941 30.32 129.421 29.84C129.901 29.3493 130.141 28.736 130.141 28C130.141 27.264 129.901 26.656 129.421 26.176C128.941 25.6853 128.338 25.44 127.613 25.44C126.888 25.44 126.285 25.6853 125.805 26.176C125.325 26.656 125.085 27.264 125.085 28C125.085 28.736 125.325 29.3493 125.805 29.84ZM137.659 32.208C136.454 32.208 135.446 31.8027 134.635 30.992C133.835 30.1813 133.435 29.184 133.435 28C133.435 26.8053 133.835 25.808 134.635 25.008C135.446 24.1973 136.454 23.792 137.659 23.792C138.438 23.792 139.147 23.9787 139.787 24.352C140.427 24.7253 140.907 25.2267 141.227 25.856L139.739 26.72C139.558 26.336 139.28 26.0373 138.907 25.824C138.544 25.6 138.123 25.488 137.643 25.488C136.939 25.488 136.347 25.728 135.867 26.208C135.398 26.688 135.163 27.2853 135.163 28C135.163 28.7147 135.398 29.312 135.867 29.792C136.347 30.272 136.939 30.512 137.643 30.512C138.112 30.512 138.534 30.4 138.907 30.176C139.291 29.952 139.579 29.6533 139.771 29.28L141.259 30.128C140.918 30.768 140.427 31.2747 139.787 31.648C139.147 32.0213 138.438 32.208 137.659 32.208ZM148.347 24H149.675V32H147.979V26.912L143.883 32H142.555V24H144.251V29.072L148.347 24ZM157.872 24V32H156.176V29.312H155.216L153.184 32H151.152L153.312 29.152C152.757 28.9707 152.309 28.6507 151.968 28.192C151.637 27.7333 151.472 27.2213 151.472 26.656C151.472 25.92 151.733 25.296 152.256 24.784C152.789 24.2613 153.472 24 154.304 24H157.872ZM154.4 27.824H156.176V25.568H154.4C154.048 25.568 153.755 25.6693 153.52 25.872C153.285 26.0747 153.168 26.352 153.168 26.704C153.168 27.0453 153.285 27.3173 153.52 27.52C153.755 27.7227 154.048 27.824 154.4 27.824Z" fill="#A7A7B1"/>
</svg>
