<svg width="46" height="46" viewBox="0 0 46 46" fill="none" xmlns="http://www.w3.org/2000/svg">
<path d="M4.39905 22.997C4.39905 12.7251 12.7262 4.39796 22.9981 4.39796C33.27 4.39796 41.5972 12.7251 41.5972 22.997C41.5972 33.2689 33.27 41.5961 22.9981 41.5961C12.7262 41.5961 4.39905 33.2689 4.39905 22.997Z" fill="url(#paint0_linear_2459_1537)"/>
<path d="M4.39905 22.997C4.39905 12.7251 12.7262 4.39796 22.9981 4.39796C33.27 4.39796 41.5972 12.7251 41.5972 22.997C41.5972 33.2689 33.27 41.5961 22.9981 41.5961C12.7262 41.5961 4.39905 33.2689 4.39905 22.997Z" fill="url(#paint1_linear_2459_1537)"/>
<path d="M4.39905 22.997C4.39905 12.7251 12.7262 4.39796 22.9981 4.39796C33.27 4.39796 41.5972 12.7251 41.5972 22.997C41.5972 33.2689 33.27 41.5961 22.9981 41.5961C12.7262 41.5961 4.39905 33.2689 4.39905 22.997Z" stroke="#CC6801" stroke-width="1.46364" stroke-miterlimit="10"/>
<path d="M4.39905 22.997C4.39905 12.7251 12.7262 4.39796 22.9981 4.39796C33.27 4.39796 41.5972 12.7251 41.5972 22.997C41.5972 33.2689 33.27 41.5961 22.9981 41.5961C12.7262 41.5961 4.39905 33.2689 4.39905 22.997Z" stroke="url(#paint2_linear_2459_1537)" stroke-width="1.46364" stroke-miterlimit="10"/>
<path d="M5.1394 22.9971C5.1394 13.1351 13.1342 5.14038 22.9961 5.14038C32.8581 5.14038 40.8528 13.1351 40.8528 22.9971C40.8528 32.8591 32.8581 40.8538 22.9961 40.8538C13.1342 40.8538 5.1394 32.8591 5.1394 22.9971Z" fill="url(#paint3_radial_2459_1537)"/>
<circle cx="10.3399" cy="25.8707" r="4.09164" fill="url(#paint4_radial_2459_1537)"/>
<circle cx="29.7462" cy="25.8707" r="4.09164" fill="url(#paint5_radial_2459_1537)"/>
<rect x="7.27734" y="19.7122" width="9.81747" height="1.67273" rx="0.836364" fill="#552F00"/>
<rect x="7.27734" y="19.7122" width="9.81747" height="1.67273" rx="0.836364" fill="#552F00"/>
<rect x="7.27734" y="19.7122" width="9.81747" height="1.67273" rx="0.836364" fill="#552F00"/>
<path d="M7.58783 21.007C7.43828 20.6199 7.72398 20.2032 8.139 20.2032H16.29C16.689 20.2032 16.9732 20.5905 16.8537 20.9711C16.7764 21.2174 16.5482 21.385 16.29 21.385H8.139C7.89483 21.385 7.67581 21.2348 7.58783 21.007Z" fill="#7A4C11"/>
<rect x="22.2649" y="19.7122" width="10.3272" height="1.67273" rx="0.836364" fill="#552F00"/>
<rect x="22.2649" y="19.7122" width="10.3272" height="1.67273" rx="0.836364" fill="#552F00"/>
<rect x="22.2649" y="19.7122" width="10.3272" height="1.67273" rx="0.836364" fill="#552F00"/>
<path d="M22.5654 21.0021C22.42 20.6157 22.7055 20.2031 23.1184 20.2031H31.7083C32.1292 20.2031 32.4151 20.6307 32.2544 21.0197C32.163 21.2407 31.9474 21.3848 31.7083 21.3848H23.1184C22.8723 21.3848 22.6521 21.2324 22.5654 21.0021Z" fill="#7A4C11"/>
<path d="M17.1021 28.9526C17.1021 28.5681 17.3756 28.2384 17.7555 28.1794C18.339 28.0888 19.1992 27.9749 19.8497 27.9725C20.5255 27.9699 21.4221 28.0872 22.0228 28.1798C22.4033 28.2385 22.677 28.5685 22.677 28.9535C22.677 29.4689 22.1959 29.853 21.6882 29.7637C21.1196 29.6637 20.4093 29.5638 19.8497 29.5661C19.3148 29.5682 18.6388 29.6647 18.0912 29.7619C17.5836 29.852 17.1021 29.4682 17.1021 28.9526Z" fill="#552F00"/>
<path d="M17.1021 28.9526C17.1021 28.5681 17.3756 28.2384 17.7555 28.1794C18.339 28.0888 19.1992 27.9749 19.8497 27.9725C20.5255 27.9699 21.4221 28.0872 22.0228 28.1798C22.4033 28.2385 22.677 28.5685 22.677 28.9535C22.677 29.4689 22.1959 29.853 21.6882 29.7637C21.1196 29.6637 20.4093 29.5638 19.8497 29.5661C19.3148 29.5682 18.6388 29.6647 18.0912 29.7619C17.5836 29.852 17.1021 29.4682 17.1021 28.9526Z" fill="#552F00"/>
<path d="M17.1021 28.9526C17.1021 28.5681 17.3756 28.2384 17.7555 28.1794C18.339 28.0888 19.1992 27.9749 19.8497 27.9725C20.5255 27.9699 21.4221 28.0872 22.0228 28.1798C22.4033 28.2385 22.677 28.5685 22.677 28.9535C22.677 29.4689 22.1959 29.853 21.6882 29.7637C21.1196 29.6637 20.4093 29.5638 19.8497 29.5661C19.3148 29.5682 18.6388 29.6647 18.0912 29.7619C17.5836 29.852 17.1021 29.4682 17.1021 28.9526Z" fill="#552F00"/>
<path d="M17.2728 29.2933C17.1757 28.9513 17.3831 28.5986 17.7318 28.5292C18.334 28.4092 19.2402 28.2538 19.8931 28.2535C20.4863 28.2533 21.3702 28.3811 22.0375 28.4944C22.4863 28.5706 22.7029 29.0772 22.4591 29.4617C22.3123 29.6933 22.0361 29.8082 21.7661 29.7603C21.3045 29.6783 20.5604 29.5683 19.8931 29.5685C19.2592 29.5687 18.5032 29.6684 17.9974 29.7486C17.676 29.7995 17.3616 29.6064 17.2728 29.2933Z" fill="#7A4C11"/>
<path d="M28.9029 24.7743L28.4666 24.0011L28.0022 24.7576C26.6351 26.9841 24.9737 30.4934 24.4838 33.481C24.2402 34.9661 24.2696 36.4175 24.8686 37.5188C25.4973 38.6748 26.6827 39.3254 28.4476 39.3254C30.2343 39.3254 31.4418 38.7105 32.0842 37.5823C32.6975 36.5052 32.7194 35.0825 32.4663 33.6218C31.9571 30.6835 30.2574 27.1751 28.9029 24.7743Z" fill="url(#paint6_linear_2459_1537)"/>
<path d="M28.9029 24.7743L28.4666 24.0011L28.0022 24.7576C26.6351 26.9841 24.9737 30.4934 24.4838 33.481C24.2402 34.9661 24.2696 36.4175 24.8686 37.5188C25.4973 38.6748 26.6827 39.3254 28.4476 39.3254C30.2343 39.3254 31.4418 38.7105 32.0842 37.5823C32.6975 36.5052 32.7194 35.0825 32.4663 33.6218C31.9571 30.6835 30.2574 27.1751 28.9029 24.7743Z" fill="url(#paint7_radial_2459_1537)" fill-opacity="0.2"/>
<path d="M28.9029 24.7743L28.4666 24.0011L28.0022 24.7576C26.6351 26.9841 24.9737 30.4934 24.4838 33.481C24.2402 34.9661 24.2696 36.4175 24.8686 37.5188C25.4973 38.6748 26.6827 39.3254 28.4476 39.3254C30.2343 39.3254 31.4418 38.7105 32.0842 37.5823C32.6975 36.5052 32.7194 35.0825 32.4663 33.6218C31.9571 30.6835 30.2574 27.1751 28.9029 24.7743Z" stroke="url(#paint8_linear_2459_1537)" stroke-width="1.04545"/>
<defs>
<linearGradient id="paint0_linear_2459_1537" x1="22.6094" y1="7.06738" x2="21.9606" y2="39.019" gradientUnits="userSpaceOnUse">
<stop stop-color="#FCC61A"/>
<stop offset="0.173554" stop-color="#F6BB16"/>
<stop offset="1" stop-color="#CC6801"/>
</linearGradient>
<linearGradient id="paint1_linear_2459_1537" x1="21.0029" y1="-1.71831" x2="22.9979" y2="22.997" gradientUnits="userSpaceOnUse">
<stop stop-color="#FCC61A"/>
<stop offset="0.173554" stop-color="#F6BB16" stop-opacity="0.24"/>
<stop offset="1" stop-color="#CC6801" stop-opacity="0"/>
</linearGradient>
<linearGradient id="paint2_linear_2459_1537" x1="21.0029" y1="-1.71831" x2="22.9979" y2="22.997" gradientUnits="userSpaceOnUse">
<stop stop-color="#FCC61A"/>
<stop offset="0.173554" stop-color="#F6BB16" stop-opacity="0.24"/>
<stop offset="1" stop-color="#CC6801" stop-opacity="0"/>
</linearGradient>
<radialGradient id="paint3_radial_2459_1537" cx="0" cy="0" r="1" gradientUnits="userSpaceOnUse" gradientTransform="translate(22.8503 10.5812) scale(29.4244 29.4245)">
<stop offset="0.0599174" stop-color="#FFFDD4"/>
<stop offset="0.510331" stop-color="#FCD400"/>
<stop offset="0.979339" stop-color="#CF6D02"/>
</radialGradient>
<radialGradient id="paint4_radial_2459_1537" cx="0" cy="0" r="1" gradientUnits="userSpaceOnUse" gradientTransform="translate(10.3399 25.8707) rotate(90.001) scale(3.63719)">
<stop stop-color="#ED9235"/>
<stop offset="1" stop-color="#E7A301" stop-opacity="0"/>
</radialGradient>
<radialGradient id="paint5_radial_2459_1537" cx="0" cy="0" r="1" gradientUnits="userSpaceOnUse" gradientTransform="translate(29.7462 25.8707) rotate(90.001) scale(3.63719)">
<stop stop-color="#ED9235"/>
<stop offset="1" stop-color="#E7A301" stop-opacity="0"/>
</radialGradient>
<linearGradient id="paint6_linear_2459_1537" x1="28.4794" y1="25.0311" x2="28.4794" y2="37.2024" gradientUnits="userSpaceOnUse">
<stop stop-color="#D6FCFD"/>
<stop offset="0.557769" stop-color="#9BF2F1"/>
<stop offset="0.796875" stop-color="#2CAEE8"/>
<stop offset="1" stop-color="#157F9E"/>
</linearGradient>
<radialGradient id="paint7_radial_2459_1537" cx="0" cy="0" r="1" gradientUnits="userSpaceOnUse" gradientTransform="translate(28.8984 31.9169) rotate(97.7448) scale(3.10883 1.63265)">
<stop stop-color="white"/>
<stop offset="1" stop-color="white" stop-opacity="0"/>
</radialGradient>
<linearGradient id="paint8_linear_2459_1537" x1="28.4794" y1="25.0311" x2="28.4794" y2="38.8026" gradientUnits="userSpaceOnUse">
<stop stop-color="#1CABD3"/>
<stop offset="1" stop-color="#147D9B"/>
</linearGradient>
</defs>
</svg>
