<svg width="28" height="28" viewBox="0 0 28 28" fill="none" xmlns="http://www.w3.org/2000/svg">
<circle cx="14" cy="14" r="14" fill="#FF4745"/>
<path d="M6.63611 14.0002C6.63611 11.8838 6.63611 10.8257 7.13743 10.0618C7.36705 9.71194 7.66604 9.41295 8.0159 9.18333C8.77975 8.68201 9.83793 8.68201 11.9543 8.68201H16.0452C18.1616 8.68201 19.2197 8.68201 19.9836 9.18333C20.3334 9.41295 20.6324 9.71194 20.8621 10.0618C21.3634 10.8257 21.3634 11.8838 21.3634 14.0002V14.0002C21.3634 16.1165 21.3634 17.1747 20.8621 17.9386C20.6324 18.2884 20.3334 18.5874 19.9836 18.817C19.2197 19.3184 18.1616 19.3184 16.0452 19.3184H11.9543C9.83793 19.3184 8.77975 19.3184 8.0159 18.817C7.66604 18.5874 7.36705 18.2884 7.13743 17.9386C6.63611 17.1747 6.63611 16.1165 6.63611 14.0002V14.0002Z" stroke="white" stroke-width="1.66763"/>
<path fill-rule="evenodd" clip-rule="evenodd" d="M19.8348 14.8785L19.3773 14.6244L19.3338 14.6002C19.136 14.4902 18.9659 14.3955 18.8 14.3318C17.7699 13.9362 16.6023 14.2622 15.9262 15.1343C15.8173 15.2747 15.7208 15.4438 15.6086 15.6403L15.5839 15.6836C15.5358 15.7679 15.5079 15.8166 15.4866 15.8516L15.4812 15.8604L15.474 15.853C15.4456 15.8234 15.4078 15.782 15.3424 15.7101L14.2918 14.5544L14.2561 14.5151C13.7826 13.9942 13.3733 13.5439 12.9961 13.2249C12.5911 12.8823 12.1364 12.6137 11.5602 12.5712C10.984 12.5286 10.4948 12.7276 10.0439 13.0071C9.62394 13.2673 9.15302 13.6526 8.60817 14.0985L8.60817 14.0985L8.56706 14.1321L8.16479 14.4612V14.84C8.16479 15.5345 8.16551 16.1141 8.176 16.6067L9.62303 15.4228C10.2208 14.9337 10.6069 14.6201 10.9224 14.4245C11.2174 14.2417 11.3501 14.2278 11.4375 14.2343C11.5249 14.2407 11.6541 14.2739 11.9191 14.4981C12.2025 14.7378 12.5384 15.1047 13.0579 15.6762L14.1085 16.8319L14.1365 16.8627C14.2294 16.9653 14.3399 17.0873 14.4547 17.177C15.1673 17.7339 16.194 17.6212 16.7688 16.923C16.8614 16.8105 16.9428 16.6674 17.0113 16.5471L17.0319 16.5109C17.1828 16.2467 17.2172 16.1907 17.2441 16.156C17.4695 15.8653 17.8587 15.7567 18.202 15.8886C18.243 15.9043 18.3014 15.9344 18.5674 16.0821L19.8194 16.7777C19.8336 16.2582 19.8347 15.6375 19.8348 14.8785Z" fill="white"/>
</svg>
