<svg width="53" height="32" viewBox="0 0 53 32" fill="none" xmlns="http://www.w3.org/2000/svg">
<rect x="18.166" y="0.166748" width="34.3333" height="30.3333" rx="15.1666" fill="#E9E9EA"/>
<path d="M27.6284 15.3333C27.6284 11.0784 31.0778 7.62903 35.3327 7.62903C39.5877 7.62903 43.037 11.0784 43.037 15.3333C43.037 19.5883 39.5877 23.0377 35.3327 23.0377C31.0778 23.0377 27.6284 19.5883 27.6284 15.3333Z" fill="url(#paint0_linear_2459_1675)"/>
<path d="M27.6284 15.3333C27.6284 11.0784 31.0778 7.62903 35.3327 7.62903C39.5877 7.62903 43.037 11.0784 43.037 15.3333C43.037 19.5883 39.5877 23.0377 35.3327 23.0377C31.0778 23.0377 27.6284 19.5883 27.6284 15.3333Z" fill="url(#paint1_linear_2459_1675)"/>
<path fill-rule="evenodd" clip-rule="evenodd" d="M35.3327 8.21236C31.3999 8.21236 28.2117 11.4005 28.2117 15.3333C28.2117 19.2661 31.3999 22.4543 35.3327 22.4543C39.2655 22.4543 42.4537 19.2661 42.4537 15.3333C42.4537 11.4005 39.2655 8.21236 35.3327 8.21236ZM35.3327 7.62903C31.0778 7.62903 27.6284 11.0784 27.6284 15.3333C27.6284 19.5883 31.0778 23.0377 35.3327 23.0377C39.5877 23.0377 43.037 19.5883 43.037 15.3333C43.037 11.0784 39.5877 7.62903 35.3327 7.62903Z" fill="#CC6801"/>
<path fill-rule="evenodd" clip-rule="evenodd" d="M35.3327 8.21236C31.3999 8.21236 28.2117 11.4005 28.2117 15.3333C28.2117 19.2661 31.3999 22.4543 35.3327 22.4543C39.2655 22.4543 42.4537 19.2661 42.4537 15.3333C42.4537 11.4005 39.2655 8.21236 35.3327 8.21236ZM35.3327 7.62903C31.0778 7.62903 27.6284 11.0784 27.6284 15.3333C27.6284 19.5883 31.0778 23.0377 35.3327 23.0377C39.5877 23.0377 43.037 19.5883 43.037 15.3333C43.037 11.0784 39.5877 7.62903 35.3327 7.62903Z" fill="url(#paint2_linear_2459_1675)"/>
<path d="M28.2177 15.3332C28.2177 11.4028 31.4039 8.21655 35.3343 8.21655C39.2647 8.21655 42.4509 11.4028 42.4509 15.3332C42.4509 19.2636 39.2647 22.4498 35.3343 22.4498C31.4039 22.4498 28.2177 19.2636 28.2177 15.3332Z" fill="url(#paint3_radial_2459_1675)"/>
<path fill-rule="evenodd" clip-rule="evenodd" d="M39.1368 12.8668C39.04 12.6935 38.8895 12.5608 38.7148 12.4687C38.4536 12.3309 38.1309 12.2782 37.8131 12.3014C37.1852 12.3473 36.4861 12.7033 36.2925 13.4424C36.2025 13.786 36.2418 14.1944 36.3342 14.5939C36.4276 14.998 36.581 15.4166 36.7418 15.7921C36.9029 16.1685 37.0735 16.5065 37.2036 16.7501C37.2688 16.8721 37.3239 16.9708 37.363 17.0392C37.3825 17.0734 37.398 17.1001 37.4087 17.1184L37.4211 17.1394L37.4244 17.1449L37.4253 17.1464C37.4253 17.1465 37.4257 17.1471 37.6043 17.0399L37.4253 17.1464L37.5117 17.2903L37.6701 17.2375L37.6043 17.0399C37.6701 17.2375 37.6701 17.2376 37.6701 17.2375L37.6726 17.2367L37.6789 17.2346L37.703 17.2264C37.7239 17.2192 37.7545 17.2086 37.7936 17.1947C37.8717 17.1669 37.9839 17.1261 38.1212 17.0734C38.3955 16.9682 38.7709 16.8154 39.175 16.6251C39.5786 16.4351 40.0141 16.2061 40.4071 15.948C40.7978 15.6914 41.1584 15.3984 41.4015 15.077C41.4015 15.077 41.4015 15.077 41.4015 15.077M37.6985 16.7862C37.664 16.725 37.6206 16.6465 37.5711 16.5538C37.4448 16.3173 37.2799 15.9904 37.1248 15.6281C36.9693 15.265 36.8259 14.8712 36.7401 14.5C36.6533 14.1243 36.631 13.7945 36.6956 13.5479C36.8281 13.0418 37.3216 12.7551 37.8435 12.717C38.1005 12.6982 38.342 12.7432 38.5205 12.8373C38.6955 12.9295 38.8016 13.0627 38.8279 13.2314L38.8848 13.5957L39.1675 13.359C39.7857 12.8415 40.4499 12.9616 40.8692 13.3334C41.2972 13.7131 41.4474 14.3255 41.0692 14.8257C40.8675 15.0923 40.5518 15.3545 40.1784 15.5997C39.8072 15.8435 39.3904 16.0631 38.9975 16.2482C38.605 16.433 38.2395 16.5818 37.972 16.6844C37.8626 16.7264 37.7698 16.7605 37.6985 16.7862Z" fill="#E1A900"/>
<path fill-rule="evenodd" clip-rule="evenodd" d="M32.2307 12.8373C32.0557 12.9295 31.9496 13.0627 31.9232 13.2314L31.8664 13.5957L31.5836 13.359C30.9654 12.8415 30.3012 12.9616 29.882 13.3334C29.4539 13.7131 29.3037 14.3255 29.682 14.8257C29.8836 15.0923 30.1993 15.3545 30.5728 15.5997C30.944 15.8435 31.3607 16.0631 31.7536 16.2482C32.1461 16.433 32.5116 16.5818 32.7792 16.6844C32.8885 16.7264 32.9813 16.7605 33.0526 16.7862C33.0871 16.725 33.1305 16.6465 33.18 16.5538C33.3063 16.3173 33.4712 15.9904 33.6263 15.6281C33.7818 15.265 33.9252 14.8712 34.011 14.5C34.0979 14.1243 34.1201 13.7945 34.0556 13.5479C33.923 13.0418 33.4295 12.7551 32.9077 12.717C32.6506 12.6982 32.4091 12.7432 32.2307 12.8373ZM33.1468 17.0399C33.081 17.2375 33.081 17.2375 33.0809 17.2375L33.0786 17.2367L33.0722 17.2346L33.0482 17.2264C33.0272 17.2192 32.9966 17.2086 32.9576 17.1947C32.8794 17.1669 32.7672 17.1261 32.63 17.0734C32.3557 16.9682 31.9802 16.8154 31.5761 16.6251C31.1725 16.4351 30.7371 16.2061 30.3441 15.948C29.9533 15.6914 29.5927 15.3984 29.3496 15.077C28.8096 14.363 29.0555 13.5095 29.6055 13.0217C30.1091 12.575 30.8865 12.41 31.6144 12.8668C31.7112 12.6935 31.8616 12.5608 32.0363 12.4687C32.2976 12.3309 32.6202 12.2782 32.938 12.3014C33.5659 12.3473 34.2651 12.7033 34.4586 13.4424C34.5486 13.786 34.5093 14.1944 34.417 14.5939C34.3236 14.998 34.1701 15.4166 34.0094 15.7921C33.8483 16.1685 33.6777 16.5065 33.5475 16.7501C33.4824 16.8721 33.4272 16.9708 33.3882 17.0392C33.3686 17.0734 33.3531 17.1001 33.3424 17.1184L33.33 17.1394L33.3267 17.1449L33.3258 17.1464C33.3258 17.1465 33.3254 17.1471 33.1468 17.0399ZM33.1468 17.0399L33.3258 17.1464L33.2395 17.2903L33.0809 17.2375L33.1468 17.0399Z" fill="#E1A900"/>
<path d="M41.1477 14.9098C42.0578 13.7625 40.5133 11.9848 39.1164 13.0998C38.8183 11.2784 36.597 11.5885 36.387 12.926C36.1455 14.4634 37.5407 16.881 37.5407 16.881C37.5407 16.881 38.331 16.6317 39.1981 16.228C39.9412 15.8821 40.7408 15.4228 41.1477 14.9098Z" fill="url(#paint4_linear_2459_1675)"/>
<path fill-rule="evenodd" clip-rule="evenodd" d="M39.2497 12.7577C39.1416 12.4117 38.9581 12.1441 38.7252 11.9546C38.4287 11.7135 38.0663 11.6104 37.7129 11.6201C37.0161 11.6393 36.305 12.1052 36.1811 12.8937C36.0509 13.7232 36.3604 14.7587 36.6799 15.5574C36.842 15.9629 37.0117 16.3189 37.1407 16.5735C37.2052 16.7009 37.2598 16.8032 37.2983 16.8739C37.3176 16.9093 37.3329 16.9368 37.3435 16.9556L37.3557 16.9772L37.359 16.9829L37.3599 16.9845C37.3599 16.9846 37.3603 16.9852 37.5407 16.8811L37.3599 16.9845L37.4439 17.1301L37.6034 17.0797L37.6062 17.0789L37.6134 17.0765L37.641 17.0676C37.665 17.0598 37.7 17.0482 37.7446 17.0331C37.8337 17.0029 37.9614 16.9586 38.1163 16.9014C38.4258 16.7873 38.8458 16.6219 39.286 16.417C40.0293 16.0709 40.8705 15.5945 41.3109 15.0394C41.8466 14.3641 41.648 13.5144 41.1447 13.0094C40.8907 12.7545 40.5505 12.5758 40.1688 12.5434C39.8702 12.518 39.5562 12.583 39.2497 12.7577ZM37.6394 16.6288C37.7235 16.6001 37.8371 16.5603 37.9722 16.5105C38.2745 16.399 38.6833 16.238 39.1101 16.0392C39.853 15.6934 40.611 15.2512 40.9844 14.7804C41.3589 14.3084 41.2403 13.6955 40.8496 13.3036C40.6568 13.11 40.4058 12.9817 40.1335 12.9585C39.8642 12.9357 39.5578 13.0142 39.2464 13.2627L38.9683 13.4847L38.9108 13.1335C38.8434 12.7216 38.6711 12.4477 38.4623 12.2779C38.2518 12.1067 37.9899 12.0293 37.7244 12.0366C37.1835 12.0515 36.679 12.4094 36.5928 12.9584C36.4816 13.6663 36.749 14.6083 37.0667 15.4027C37.2232 15.7939 37.3873 16.1384 37.5123 16.3851C37.5619 16.483 37.6053 16.5653 37.6394 16.6288Z" fill="#D31900"/>
<path d="M29.6037 14.9098C28.6935 13.7625 30.238 11.9848 31.6349 13.0998C31.933 11.2784 34.1543 11.5885 34.3644 12.926C34.6058 14.4634 33.2106 16.881 33.2106 16.881C33.2106 16.881 32.4204 16.6317 31.5533 16.228C30.8102 15.8821 30.0106 15.4228 29.6037 14.9098Z" fill="url(#paint5_linear_2459_1675)"/>
<path fill-rule="evenodd" clip-rule="evenodd" d="M32.2894 12.2779C32.0806 12.4477 31.9083 12.7216 31.8409 13.1335L31.7834 13.4847L31.5053 13.2627C31.1939 13.0142 30.8874 12.9357 30.6182 12.9585C30.3459 12.9817 30.0949 13.11 29.9021 13.3036C29.5114 13.6955 29.3928 14.3084 29.7673 14.7804C30.1407 15.2512 30.8987 15.6934 31.6416 16.0392C32.0684 16.238 32.4772 16.399 32.7795 16.5105C32.9146 16.5603 33.0282 16.6001 33.1123 16.6288C33.1464 16.5653 33.1898 16.483 33.2394 16.3851C33.3644 16.1384 33.5285 15.7939 33.685 15.4027C34.0027 14.6083 34.2701 13.6663 34.1589 12.9584C34.0727 12.4094 33.5682 12.0515 33.0273 12.0366C32.7618 12.0293 32.4999 12.1067 32.2894 12.2779ZM33.211 16.8811C33.3914 16.9852 33.3914 16.9852 33.3915 16.9851L33.3927 16.9829L33.396 16.9772L33.4082 16.9556C33.4188 16.9368 33.4341 16.9093 33.4534 16.8739C33.4919 16.8032 33.5465 16.7009 33.611 16.5735C33.7401 16.3189 33.9097 15.9629 34.0718 15.5574C34.3913 14.7587 34.7008 13.7232 34.5705 12.8937C34.4467 12.1052 33.7356 11.6393 33.0388 11.6201C32.6854 11.6104 32.323 11.7135 32.0265 11.9546C31.7936 12.1441 31.61 12.4117 31.502 12.7577C31.1955 12.583 30.8815 12.518 30.5829 12.5434C30.2012 12.5758 29.861 12.7545 29.6069 13.0094C29.1037 13.5144 28.9052 14.3641 29.4408 15.0394C29.8812 15.5945 30.7223 16.0709 31.4657 16.417M33.211 16.8811L33.1483 17.0797L33.3078 17.1301L33.3915 16.9851L33.211 16.8811Z" fill="#D31900"/>
<path d="M31.4203 18.8527C31.3551 18.3139 31.5557 19.3931 35.2853 19.3767C39.1861 19.3595 39.332 18.278 39.331 18.8527C39.331 19.8967 37.6585 21.7072 35.2853 21.7072C32.9122 21.7072 31.5456 19.8891 31.4203 18.8527Z" fill="#EC8E15"/>
<path d="M31.4288 18.6561C31.3636 18.1172 31.5642 19.1964 35.2939 19.18C39.1947 19.1628 39.3406 18.0814 39.3396 18.6561C39.3396 19.7 37.667 21.5105 35.2939 21.5105C32.9207 21.5105 31.5541 19.6925 31.4288 18.6561Z" fill="url(#paint6_linear_2459_1675)"/>
<path fill-rule="evenodd" clip-rule="evenodd" d="M38.8018 18.7531C38.2697 18.9569 37.2504 19.2324 35.2942 19.241C33.4234 19.2493 32.4329 18.9827 31.9159 18.7789C31.7868 18.728 31.6878 18.6812 31.6127 18.6441C31.5901 18.6329 31.5703 18.623 31.5529 18.6142C31.5234 18.5994 31.5005 18.5879 31.4822 18.5796C31.4836 18.5976 31.4861 18.6202 31.4895 18.6487C31.55 19.1486 31.9133 19.8495 32.5592 20.4263C33.2031 21.0014 34.1239 21.4493 35.2939 21.4493C36.4647 21.4493 37.4628 21.0027 38.1681 20.4273C38.5208 20.1397 38.7993 19.8206 38.9892 19.5105C39.1796 19.1996 39.2786 18.9018 39.2786 18.656V18.6559C39.2787 18.6202 39.2781 18.5929 39.2764 18.5721C39.2757 18.5634 39.2748 18.5567 39.2739 18.5516C39.2736 18.5517 39.2733 18.5518 39.273 18.5518C39.2448 18.5597 39.2034 18.5789 39.1362 18.61C39.1291 18.6132 39.1218 18.6166 39.1142 18.6202C39.0366 18.656 38.9347 18.7022 38.8018 18.7531ZM39.4008 18.6561C39.4009 18.62 39.4004 18.5883 39.3982 18.5619C39.3961 18.5365 39.392 18.5101 39.3818 18.4876C39.3702 18.462 39.3495 18.4394 39.317 18.4305C39.2895 18.423 39.2619 18.4281 39.24 18.4342C39.2017 18.4449 39.1502 18.4687 39.0878 18.4977C39.0797 18.5015 39.0714 18.5053 39.0629 18.5092C38.9863 18.5446 38.8873 18.5895 38.7581 18.639C38.2424 18.8365 37.2382 19.1103 35.2937 19.1188C33.4348 19.127 32.4603 18.8622 31.9608 18.6652C31.8358 18.6159 31.74 18.5707 31.6668 18.5345C31.6487 18.5255 31.6315 18.5169 31.6152 18.5087C31.5686 18.4853 31.5302 18.466 31.502 18.4555C31.4842 18.4489 31.4577 18.4406 31.4307 18.4456C31.4149 18.4485 31.3994 18.4558 31.3866 18.4688C31.3746 18.4811 31.3682 18.4952 31.3647 18.5071C31.3582 18.5291 31.3583 18.5543 31.3596 18.5766C31.3609 18.6006 31.3642 18.6298 31.3682 18.6633L31.3682 18.6633C31.4331 19.1998 31.8157 19.9261 32.4778 20.5174C33.1417 21.1104 34.0908 21.5715 35.2939 21.5715C36.4963 21.5715 37.5211 21.1129 38.2454 20.522C38.6075 20.2266 38.8955 19.8974 39.0934 19.5743C39.2907 19.2522 39.4008 18.9322 39.4008 18.6561Z" fill="#814402"/>
<path fill-rule="evenodd" clip-rule="evenodd" d="M31.7029 18.8746C31.6561 18.9782 31.6841 19.257 31.7644 19.5589C31.466 19.0061 31.4004 18.7867 31.4143 18.5561C31.4168 18.5155 31.4598 18.4915 31.4972 18.5076C32.5413 18.9566 33.1502 19.1191 35.4107 19.1885C37.6687 19.118 38.2095 18.934 39.2505 18.4838C39.2879 18.4677 39.3309 18.4917 39.3351 18.5322C39.3377 18.5568 39.3397 18.5813 39.341 18.606C39.3414 18.6066 39.3418 18.6072 39.3421 18.6078C39.3418 18.6084 39.3415 18.6089 39.3412 18.6095C39.3511 18.8135 39.3065 19.0362 39.0417 19.5267C39.12 19.2323 39.1563 18.975 39.1192 18.8751C38.647 19.2954 37.663 19.5727 35.9285 19.6295C35.7619 19.6367 35.5891 19.6402 35.41 19.6395C35.2325 19.6402 35.0613 19.6367 34.8961 19.6296C33.1597 19.5729 32.1751 19.2954 31.7029 18.8746Z" fill="#5C3001"/>
<circle cx="11.4502" cy="23.451" r="4.11729" fill="#E9E9EA"/>
<circle cx="2.9534" cy="29.1209" r="2.28738" fill="#E9E9EA"/>
<defs>
<linearGradient id="paint0_linear_2459_1675" x1="35.1778" y1="8.98459" x2="34.9192" y2="21.7189" gradientUnits="userSpaceOnUse">
<stop stop-color="#FCC61A"/>
<stop offset="0.173554" stop-color="#F6BB16"/>
<stop offset="1" stop-color="#CC6801"/>
</linearGradient>
<linearGradient id="paint1_linear_2459_1675" x1="34.5376" y1="5.48306" x2="35.3327" y2="15.3333" gradientUnits="userSpaceOnUse">
<stop stop-color="#FCC61A"/>
<stop offset="0.173554" stop-color="#F6BB16" stop-opacity="0.24"/>
<stop offset="1" stop-color="#CC6801" stop-opacity="0"/>
</linearGradient>
<linearGradient id="paint2_linear_2459_1675" x1="34.5376" y1="5.48306" x2="35.3327" y2="15.3333" gradientUnits="userSpaceOnUse">
<stop stop-color="#FCC61A"/>
<stop offset="0.173554" stop-color="#F6BB16" stop-opacity="0.24"/>
<stop offset="1" stop-color="#CC6801" stop-opacity="0"/>
</linearGradient>
<radialGradient id="paint3_radial_2459_1675" cx="0" cy="0" r="1" gradientUnits="userSpaceOnUse" gradientTransform="translate(35.2762 10.385) scale(11.7269)">
<stop offset="0.0599174" stop-color="#FFFDD4"/>
<stop offset="0.510331" stop-color="#FCD400"/>
<stop offset="0.979339" stop-color="#CF6D02"/>
</radialGradient>
<linearGradient id="paint4_linear_2459_1675" x1="38.8898" y1="12.7836" x2="37.2078" y2="16.6343" gradientUnits="userSpaceOnUse">
<stop stop-color="#FFCAC7"/>
<stop offset="0.219008" stop-color="#FF6D45"/>
<stop offset="0.588843" stop-color="#FF1700"/>
<stop offset="0.791322" stop-color="#E72200"/>
<stop offset="0.997934" stop-color="#FF3700"/>
</linearGradient>
<linearGradient id="paint5_linear_2459_1675" x1="31.564" y1="12.6397" x2="33.5473" y2="16.6454" gradientUnits="userSpaceOnUse">
<stop stop-color="#FFCAC7"/>
<stop offset="0.219008" stop-color="#FF6D45"/>
<stop offset="0.588843" stop-color="#FF1700"/>
<stop offset="0.791322" stop-color="#E72200"/>
<stop offset="0.997934" stop-color="#FF3700"/>
</linearGradient>
<linearGradient id="paint6_linear_2459_1675" x1="31.0754" y1="18.7104" x2="39.3891" y2="19.0369" gradientUnits="userSpaceOnUse">
<stop offset="0.00206612" stop-color="#B36C1B"/>
<stop offset="1" stop-color="#7F4604"/>
</linearGradient>
</defs>
</svg>
