<svg width="343" height="54" viewBox="0 0 343 54" fill="none" xmlns="http://www.w3.org/2000/svg">
<rect width="343" height="54" rx="27" fill="url(#paint0_linear_2459_2706)"/>
<path d="M95.3184 20.9V33.5H92.8344V23.276H88.3884V33.5H85.9044V20.9H95.3184ZM105.224 32.384C104.3 33.296 103.172 33.752 101.84 33.752C100.508 33.752 99.3801 33.296 98.4561 32.384C97.5441 31.46 97.0881 30.332 97.0881 29C97.0881 27.668 97.5441 26.546 98.4561 25.634C99.3801 24.71 100.508 24.248 101.84 24.248C103.172 24.248 104.3 24.71 105.224 25.634C106.148 26.546 106.61 27.668 106.61 29C106.61 30.332 106.148 31.46 105.224 32.384ZM100.094 30.782C100.562 31.25 101.144 31.484 101.84 31.484C102.536 31.484 103.118 31.25 103.586 30.782C104.054 30.314 104.288 29.72 104.288 29C104.288 28.28 104.054 27.686 103.586 27.218C103.118 26.75 102.536 26.516 101.84 26.516C101.144 26.516 100.562 26.75 100.094 27.218C99.6381 27.686 99.4101 28.28 99.4101 29C99.4101 29.72 99.6381 30.314 100.094 30.782ZM113.166 28.91C114.078 29.354 114.534 30.068 114.534 31.052C114.534 31.82 114.216 32.462 113.58 32.978C112.944 33.494 112.05 33.752 110.898 33.752C109.074 33.752 107.832 33.032 107.172 31.592L109.062 30.476C109.35 31.292 109.968 31.7 110.916 31.7C111.348 31.7 111.678 31.616 111.906 31.448C112.146 31.28 112.266 31.052 112.266 30.764C112.266 30.212 111.912 29.936 111.204 29.936H109.926V27.956H110.898C111.594 27.956 111.942 27.68 111.942 27.128C111.942 26.864 111.84 26.654 111.636 26.498C111.432 26.342 111.162 26.264 110.826 26.264C110.046 26.264 109.488 26.642 109.152 27.398L107.28 26.318C107.964 24.938 109.134 24.248 110.79 24.248C111.822 24.248 112.638 24.512 113.238 25.04C113.85 25.556 114.156 26.186 114.156 26.93C114.156 27.806 113.826 28.466 113.166 28.91ZM122.476 28.892C123.316 29.3 123.736 29.984 123.736 30.944C123.736 31.7 123.472 32.318 122.944 32.798C122.428 33.266 121.69 33.5 120.73 33.5H115.996V24.5H120.37C121.318 24.5 122.05 24.734 122.566 25.202C123.094 25.67 123.358 26.282 123.358 27.038C123.358 27.83 123.064 28.448 122.476 28.892ZM120.154 26.408H118.174V28.028H120.154C120.814 28.028 121.144 27.758 121.144 27.218C121.144 26.678 120.814 26.408 120.154 26.408ZM120.46 31.538C121.132 31.538 121.468 31.25 121.468 30.674C121.468 30.422 121.378 30.224 121.198 30.08C121.018 29.936 120.772 29.864 120.46 29.864H118.174V31.538H120.46ZM132.857 32.384C131.933 33.296 130.805 33.752 129.473 33.752C128.141 33.752 127.013 33.296 126.089 32.384C125.177 31.46 124.721 30.332 124.721 29C124.721 27.668 125.177 26.546 126.089 25.634C127.013 24.71 128.141 24.248 129.473 24.248C130.805 24.248 131.933 24.71 132.857 25.634C133.781 26.546 134.243 27.668 134.243 29C134.243 30.332 133.781 31.46 132.857 32.384ZM127.727 30.782C128.195 31.25 128.777 31.484 129.473 31.484C130.169 31.484 130.751 31.25 131.219 30.782C131.687 30.314 131.921 29.72 131.921 29C131.921 28.28 131.687 27.686 131.219 27.218C130.751 26.75 130.169 26.516 129.473 26.516C128.777 26.516 128.195 26.75 127.727 27.218C127.271 27.686 127.043 28.28 127.043 29C127.043 29.72 127.271 30.314 127.727 30.782ZM141.78 24.5H144.102V33.5H141.78V30.08H138.198V33.5H135.876V24.5H138.198V27.902H141.78V24.5ZM152.728 24.5H154.456V33.5H152.188V28.388L147.958 33.5H146.23V24.5H148.498V29.612L152.728 24.5ZM163.675 24.5V26.732H160.867V33.5H158.545V26.732H155.701V24.5H163.675ZM168.984 27.38C170.004 27.38 170.826 27.662 171.45 28.226C172.074 28.778 172.386 29.516 172.386 30.44C172.386 31.364 172.074 32.108 171.45 32.672C170.826 33.224 170.004 33.5 168.984 33.5H164.916V24.5H167.238V27.38H168.984ZM169.002 31.448C169.326 31.448 169.59 31.358 169.794 31.178C170.01 30.986 170.118 30.74 170.118 30.44C170.118 30.14 170.01 29.894 169.794 29.702C169.59 29.51 169.326 29.414 169.002 29.414H167.238V31.448H169.002ZM186.571 24.5V33.5H184.249V26.678H180.667V33.5H178.345V24.5H186.571ZM196.367 32.384C195.443 33.296 194.315 33.752 192.983 33.752C191.651 33.752 190.523 33.296 189.599 32.384C188.687 31.46 188.231 30.332 188.231 29C188.231 27.668 188.687 26.546 189.599 25.634C190.523 24.71 191.651 24.248 192.983 24.248C194.315 24.248 195.443 24.71 196.367 25.634C197.291 26.546 197.753 27.668 197.753 29C197.753 30.332 197.291 31.46 196.367 32.384ZM191.237 30.782C191.705 31.25 192.287 31.484 192.983 31.484C193.679 31.484 194.261 31.25 194.729 30.782C195.197 30.314 195.431 29.72 195.431 29C195.431 28.28 195.197 27.686 194.729 27.218C194.261 26.75 193.679 26.516 192.983 26.516C192.287 26.516 191.705 26.75 191.237 27.218C190.781 27.686 190.553 28.28 190.553 29C190.553 29.72 190.781 30.314 191.237 30.782ZM205.866 28.892C206.706 29.3 207.126 29.984 207.126 30.944C207.126 31.7 206.862 32.318 206.334 32.798C205.818 33.266 205.08 33.5 204.12 33.5H199.386V24.5H203.76C204.708 24.5 205.44 24.734 205.956 25.202C206.484 25.67 206.748 26.282 206.748 27.038C206.748 27.83 206.454 28.448 205.866 28.892ZM203.544 26.408H201.564V28.028H203.544C204.204 28.028 204.534 27.758 204.534 27.218C204.534 26.678 204.204 26.408 203.544 26.408ZM203.85 31.538C204.522 31.538 204.858 31.25 204.858 30.674C204.858 30.422 204.768 30.224 204.588 30.08C204.408 29.936 204.162 29.864 203.85 29.864H201.564V31.538H203.85ZM215.443 24.5V26.732H212.635V33.5H210.313V26.732H207.469V24.5H215.443ZM224 32.384C223.076 33.296 221.948 33.752 220.616 33.752C219.284 33.752 218.156 33.296 217.232 32.384C216.32 31.46 215.864 30.332 215.864 29C215.864 27.668 216.32 26.546 217.232 25.634C218.156 24.71 219.284 24.248 220.616 24.248C221.948 24.248 223.076 24.71 224 25.634C224.924 26.546 225.386 27.668 225.386 29C225.386 30.332 224.924 31.46 224 32.384ZM218.87 30.782C219.338 31.25 219.92 31.484 220.616 31.484C221.312 31.484 221.894 31.25 222.362 30.782C222.83 30.314 223.064 29.72 223.064 29C223.064 28.28 222.83 27.686 222.362 27.218C221.894 26.75 221.312 26.516 220.616 26.516C219.92 26.516 219.338 26.75 218.87 27.218C218.414 27.686 218.186 28.28 218.186 29C218.186 29.72 218.414 30.314 218.87 30.782ZM232.257 24.248C233.469 24.248 234.501 24.71 235.353 25.634C236.217 26.546 236.649 27.668 236.649 29C236.649 30.332 236.217 31.46 235.353 32.384C234.501 33.296 233.469 33.752 232.257 33.752C230.997 33.752 230.025 33.314 229.341 32.438V37.1H227.019V24.5H229.341V25.562C230.025 24.686 230.997 24.248 232.257 24.248ZM230.043 30.836C230.511 31.304 231.105 31.538 231.825 31.538C232.545 31.538 233.139 31.304 233.607 30.836C234.087 30.356 234.327 29.744 234.327 29C234.327 28.256 234.087 27.65 233.607 27.182C233.139 26.702 232.545 26.462 231.825 26.462C231.105 26.462 230.511 26.702 230.043 27.182C229.575 27.65 229.341 28.256 229.341 29C229.341 29.744 229.575 30.356 230.043 30.836ZM244.191 24.5H246.513V33.5H244.191V30.08H240.609V33.5H238.287V24.5H240.609V27.902H244.191V24.5ZM256.308 32.384C255.384 33.296 254.256 33.752 252.924 33.752C251.592 33.752 250.464 33.296 249.54 32.384C248.628 31.46 248.172 30.332 248.172 29C248.172 27.668 248.628 26.546 249.54 25.634C250.464 24.71 251.592 24.248 252.924 24.248C254.256 24.248 255.384 24.71 256.308 25.634C257.232 26.546 257.694 27.668 257.694 29C257.694 30.332 257.232 31.46 256.308 32.384ZM251.178 30.782C251.646 31.25 252.228 31.484 252.924 31.484C253.62 31.484 254.202 31.25 254.67 30.782C255.138 30.314 255.372 29.72 255.372 29C255.372 28.28 255.138 27.686 254.67 27.218C254.202 26.75 253.62 26.516 252.924 26.516C252.228 26.516 251.646 26.75 251.178 27.218C250.722 27.686 250.494 28.28 250.494 29C250.494 29.72 250.722 30.314 251.178 30.782Z" fill="white"/>
<defs>
<linearGradient id="paint0_linear_2459_2706" x1="-2.39581e-07" y1="27" x2="369" y2="27" gradientUnits="userSpaceOnUse">
<stop stop-color="#FF6645"/>
<stop offset="0.0001" stop-color="#FF6645"/>
<stop offset="1" stop-color="#DF2B4B"/>
</linearGradient>
</defs>
</svg>
