<svg width="260" height="36" viewBox="0 0 260 36" fill="none" xmlns="http://www.w3.org/2000/svg">
<path d="M6.712 6.192C7.20267 6.448 7.58667 6.8 7.864 7.248C8.14133 7.696 8.28 8.21333 8.28 8.8C8.28 9.71733 7.95467 10.48 7.304 11.088C6.65333 11.696 5.85867 12 4.92 12H0.12V0.799999H4.568C5.48533 0.799999 6.25867 1.09867 6.888 1.696C7.528 2.28267 7.848 3.01867 7.848 3.904C7.848 4.87467 7.46933 5.63733 6.712 6.192ZM4.568 2.528H1.96V5.472H4.568C4.97333 5.472 5.31467 5.33333 5.592 5.056C5.86933 4.768 6.008 4.416 6.008 4C6.008 3.584 5.86933 3.23733 5.592 2.96C5.31467 2.672 4.97333 2.528 4.568 2.528ZM4.92 10.272C5.34667 10.272 5.704 10.1227 5.992 9.824C6.29067 9.51467 6.44 9.14133 6.44 8.704C6.44 8.26667 6.29067 7.89867 5.992 7.6C5.704 7.29067 5.34667 7.136 4.92 7.136H1.96V10.272H4.92ZM13.2616 6.72C14.115 6.72 14.8136 6.96533 15.3576 7.456C15.9016 7.936 16.1736 8.57067 16.1736 9.36C16.1736 10.1387 15.9016 10.7733 15.3576 11.264C14.8136 11.7547 14.115 12 13.2616 12H9.77363V4H11.5016V6.72H13.2616ZM17.1336 4H18.8616V12H17.1336V4ZM13.2776 10.448C13.619 10.448 13.9016 10.3467 14.1256 10.144C14.3603 9.94133 14.4776 9.68 14.4776 9.36C14.4776 9.02933 14.3603 8.768 14.1256 8.576C13.9016 8.37333 13.619 8.272 13.2776 8.272H11.5016V10.448H13.2776ZM24.5794 12.208C23.3527 12.208 22.35 11.8133 21.5714 11.024C20.8034 10.224 20.4194 9.20533 20.4194 7.968C20.4194 6.61333 20.622 5.568 21.0274 4.832C21.4327 4.08533 22.254 3.408 23.4914 2.8C23.694 2.704 23.9927 2.56533 24.3874 2.384C24.7927 2.20267 25.07 2.07467 25.2194 2C25.3687 1.91467 25.5554 1.79733 25.7794 1.648C26.0034 1.488 26.1687 1.32267 26.2754 1.152C26.382 0.970666 26.4674 0.757332 26.5314 0.511999L27.9394 1.328C27.8967 1.56267 27.8274 1.78133 27.7314 1.984C27.6354 2.176 27.4967 2.35733 27.3154 2.528C27.134 2.69867 26.974 2.83733 26.8354 2.944C26.7074 3.05067 26.4887 3.17867 26.1794 3.328C25.87 3.47733 25.6407 3.584 25.4914 3.648C25.3527 3.712 25.086 3.824 24.6914 3.984C23.9874 4.26133 23.47 4.54933 23.1394 4.848C22.8194 5.136 22.5954 5.49867 22.4674 5.936C23.1074 5.21067 23.9767 4.848 25.0754 4.848C26.014 4.848 26.83 5.184 27.5234 5.856C28.2274 6.528 28.5794 7.39733 28.5794 8.464C28.5794 9.552 28.206 10.448 27.4594 11.152C26.7234 11.856 25.7634 12.208 24.5794 12.208ZM24.5634 10.592C25.2354 10.592 25.7847 10.3947 26.2114 10C26.638 9.59467 26.8514 9.08267 26.8514 8.464C26.8514 7.83467 26.638 7.31733 26.2114 6.912C25.7954 6.50667 25.2514 6.304 24.5794 6.304C23.982 6.304 23.4434 6.496 22.9634 6.88C22.4834 7.25333 22.2434 7.75467 22.2434 8.384C22.2434 9.024 22.4674 9.552 22.9154 9.968C23.3634 10.384 23.9127 10.592 24.5634 10.592ZM31.3055 8.736C31.4335 9.344 31.7268 9.81333 32.1855 10.144C32.6442 10.464 33.2042 10.624 33.8655 10.624C34.7828 10.624 35.4708 10.2933 35.9295 9.632L37.3535 10.464C36.5642 11.6267 35.3962 12.208 33.8495 12.208C32.5482 12.208 31.4975 11.8133 30.6975 11.024C29.8975 10.224 29.4975 9.216 29.4975 8C29.4975 6.80533 29.8922 5.808 30.6815 5.008C31.4708 4.19733 32.4842 3.792 33.7215 3.792C34.8948 3.792 35.8548 4.20267 36.6015 5.024C37.3588 5.84533 37.7375 6.84267 37.7375 8.016C37.7375 8.19733 37.7162 8.43733 37.6735 8.736H31.3055ZM31.2895 7.328H35.9935C35.8762 6.67733 35.6042 6.18667 35.1775 5.856C34.7615 5.52533 34.2708 5.36 33.7055 5.36C33.0655 5.36 32.5322 5.536 32.1055 5.888C31.6788 6.24 31.4068 6.72 31.2895 7.328ZM43.786 3.792C44.8847 3.792 45.8233 4.20267 46.602 5.024C47.3807 5.83467 47.77 6.82667 47.77 8C47.77 9.184 47.3807 10.1813 46.602 10.992C45.8233 11.8027 44.8847 12.208 43.786 12.208C42.57 12.208 41.6367 11.76 40.986 10.864V15.2H39.258V4H40.986V5.152C41.6367 4.24533 42.57 3.792 43.786 3.792ZM41.706 9.84C42.186 10.32 42.7887 10.56 43.514 10.56C44.2393 10.56 44.842 10.32 45.322 9.84C45.802 9.34933 46.042 8.736 46.042 8C46.042 7.264 45.802 6.656 45.322 6.176C44.842 5.68533 44.2393 5.44 43.514 5.44C42.7887 5.44 42.186 5.68533 41.706 6.176C41.226 6.656 40.986 7.264 40.986 8C40.986 8.736 41.226 9.34933 41.706 9.84ZM55.1281 4H56.4561V12H54.7601V6.912L50.6641 12H49.3361V4H51.0321V9.072L55.1281 4ZM64.5731 4V5.664H61.9651V12H60.2371V5.664H57.6131V4H64.5731ZM66.7899 8.736C66.9179 9.344 67.2112 9.81333 67.6699 10.144C68.1285 10.464 68.6885 10.624 69.3499 10.624C70.2672 10.624 70.9552 10.2933 71.4139 9.632L72.8379 10.464C72.0485 11.6267 70.8805 12.208 69.3339 12.208C68.0325 12.208 66.9819 11.8133 66.1819 11.024C65.3819 10.224 64.9819 9.216 64.9819 8C64.9819 6.80533 65.3765 5.808 66.1659 5.008C66.9552 4.19733 67.9685 3.792 69.2059 3.792C70.3792 3.792 71.3392 4.20267 72.0859 5.024C72.8432 5.84533 73.2219 6.84267 73.2219 8.016C73.2219 8.19733 73.2005 8.43733 73.1579 8.736H66.7899ZM66.7739 7.328H71.4779C71.3605 6.67733 71.0885 6.18667 70.6619 5.856C70.2459 5.52533 69.7552 5.36 69.1899 5.36C68.5499 5.36 68.0165 5.536 67.5899 5.888C67.1632 6.24 66.8912 6.72 66.7739 7.328ZM85.8144 12H83.7504L80.4704 8.304V12H78.7424V4H80.4704V7.536L83.5744 4H85.6864L82.1664 7.92L85.8144 12ZM92.6721 4H94.4001V12H92.6721V10.848C92.0215 11.7547 91.0881 12.208 89.8721 12.208C88.7735 12.208 87.8348 11.8027 87.0561 10.992C86.2775 10.1707 85.8881 9.17333 85.8881 8C85.8881 6.816 86.2775 5.81867 87.0561 5.008C87.8348 4.19733 88.7735 3.792 89.8721 3.792C91.0881 3.792 92.0215 4.24 92.6721 5.136V4ZM88.3361 9.84C88.8161 10.32 89.4188 10.56 90.1441 10.56C90.8695 10.56 91.4721 10.32 91.9521 9.84C92.4321 9.34933 92.6721 8.736 92.6721 8C92.6721 7.264 92.4321 6.656 91.9521 6.176C91.4721 5.68533 90.8695 5.44 90.1441 5.44C89.4188 5.44 88.8161 5.68533 88.3361 6.176C87.8561 6.656 87.6161 7.264 87.6161 8C87.6161 8.736 87.8561 9.34933 88.3361 9.84ZM103.486 12H101.422L98.1423 8.304V12H96.4143V4H98.1423V7.536L101.246 4H103.358L99.8383 7.92L103.486 12ZM110.441 4H111.769V12H110.073V6.912L105.977 12H104.649V4H106.345V9.072L110.441 4ZM115.134 8.736C115.262 9.344 115.555 9.81333 116.014 10.144C116.472 10.464 117.032 10.624 117.694 10.624C118.611 10.624 119.299 10.2933 119.758 9.632L121.182 10.464C120.392 11.6267 119.224 12.208 117.678 12.208C116.376 12.208 115.326 11.8133 114.526 11.024C113.726 10.224 113.326 9.216 113.326 8C113.326 6.80533 113.72 5.808 114.51 5.008C115.299 4.19733 116.312 3.792 117.55 3.792C118.723 3.792 119.683 4.20267 120.43 5.024C121.187 5.84533 121.566 6.84267 121.566 8.016C121.566 8.19733 121.544 8.43733 121.502 8.736H115.134ZM115.118 7.328H119.822C119.704 6.67733 119.432 6.18667 119.006 5.856C118.59 5.52533 118.099 5.36 117.534 5.36C116.894 5.36 116.36 5.536 115.934 5.888C115.507 6.24 115.235 6.72 115.118 7.328ZM134.158 12H132.094L128.814 8.304V12H127.086V4H128.814V7.536L131.918 4H134.03L130.51 7.92L134.158 12ZM141.016 4H142.744V12H141.016V10.848C140.365 11.7547 139.432 12.208 138.216 12.208C137.117 12.208 136.179 11.8027 135.4 10.992C134.621 10.1707 134.232 9.17333 134.232 8C134.232 6.816 134.621 5.81867 135.4 5.008C136.179 4.19733 137.117 3.792 138.216 3.792C139.432 3.792 140.365 4.24 141.016 5.136V4ZM136.68 9.84C137.16 10.32 137.763 10.56 138.488 10.56C139.213 10.56 139.816 10.32 140.296 9.84C140.776 9.34933 141.016 8.736 141.016 8C141.016 7.264 140.776 6.656 140.296 6.176C139.816 5.68533 139.213 5.44 138.488 5.44C137.763 5.44 137.16 5.68533 136.68 6.176C136.2 6.656 135.96 7.264 135.96 8C135.96 8.736 136.2 9.34933 136.68 9.84ZM150.87 4V5.664H148.262V12H146.534V5.664H143.91V4H150.87ZM153.087 8.736C153.215 9.344 153.508 9.81333 153.967 10.144C154.425 10.464 154.985 10.624 155.647 10.624C156.564 10.624 157.252 10.2933 157.711 9.632L159.135 10.464C158.345 11.6267 157.177 12.208 155.631 12.208C154.329 12.208 153.279 11.8133 152.479 11.024C151.679 10.224 151.279 9.216 151.279 8C151.279 6.80533 151.673 5.808 152.463 5.008C153.252 4.19733 154.265 3.792 155.503 3.792C156.676 3.792 157.636 4.20267 158.383 5.024C159.14 5.84533 159.519 6.84267 159.519 8.016C159.519 8.19733 159.497 8.43733 159.455 8.736H153.087ZM153.071 7.328H157.775C157.657 6.67733 157.385 6.18667 156.959 5.856C156.543 5.52533 156.052 5.36 155.487 5.36C154.847 5.36 154.313 5.536 153.887 5.888C153.46 6.24 153.188 6.72 153.071 7.328ZM166.399 4V5.664H162.767V12H161.039V4H166.399ZM171.034 12.208C169.861 12.208 168.863 11.8027 168.042 10.992C167.221 10.1813 166.81 9.184 166.81 8C166.81 6.816 167.221 5.81867 168.042 5.008C168.863 4.19733 169.861 3.792 171.034 3.792C172.218 3.792 173.215 4.19733 174.026 5.008C174.847 5.81867 175.258 6.816 175.258 8C175.258 9.184 174.847 10.1813 174.026 10.992C173.215 11.8027 172.218 12.208 171.034 12.208ZM169.258 9.808C169.738 10.288 170.33 10.528 171.034 10.528C171.738 10.528 172.33 10.288 172.81 9.808C173.29 9.328 173.53 8.72533 173.53 8C173.53 7.27467 173.29 6.672 172.81 6.192C172.33 5.712 171.738 5.472 171.034 5.472C170.33 5.472 169.738 5.712 169.258 6.192C168.778 6.672 168.538 7.27467 168.538 8C168.538 8.72533 168.778 9.328 169.258 9.808ZM181.349 3.792C182.447 3.792 183.386 4.20267 184.165 5.024C184.943 5.83467 185.333 6.82667 185.333 8C185.333 9.184 184.943 10.1813 184.165 10.992C183.386 11.8027 182.447 12.208 181.349 12.208C180.133 12.208 179.199 11.76 178.549 10.864V15.2H176.821V4H178.549V5.152C179.199 4.24533 180.133 3.792 181.349 3.792ZM179.269 9.84C179.749 10.32 180.351 10.56 181.077 10.56C181.802 10.56 182.405 10.32 182.885 9.84C183.365 9.34933 183.605 8.736 183.605 8C183.605 7.264 183.365 6.656 182.885 6.176C182.405 5.68533 181.802 5.44 181.077 5.44C180.351 5.44 179.749 5.68533 179.269 6.176C178.789 6.656 178.549 7.264 178.549 8C178.549 8.736 178.789 9.34933 179.269 9.84ZM192.691 4H194.019V12H192.323V6.912L188.227 12H186.899V4H188.595V9.072L192.691 4ZM201.816 4H203.144V12H201.448V6.912L197.352 12H196.024V4H197.72V9.072L201.816 4ZM214.685 7.888C215.474 8.25067 215.869 8.864 215.869 9.728C215.869 10.4 215.639 10.9493 215.181 11.376C214.733 11.792 214.087 12 213.245 12H209.149V4H212.925C213.746 4 214.381 4.208 214.829 4.624C215.287 5.02933 215.517 5.55733 215.517 6.208C215.517 6.96533 215.239 7.52533 214.685 7.888ZM212.797 5.472H210.797V7.248H212.797C213.501 7.248 213.853 6.94933 213.853 6.352C213.853 5.76533 213.501 5.472 212.797 5.472ZM213.085 10.496C213.81 10.496 214.173 10.1813 214.173 9.552C214.173 9.27467 214.077 9.06133 213.885 8.912C213.693 8.752 213.426 8.672 213.085 8.672H210.797V10.496H213.085ZM221.05 12.208C219.844 12.208 218.836 11.8027 218.026 10.992C217.226 10.1813 216.826 9.184 216.826 8C216.826 6.80533 217.226 5.808 218.026 5.008C218.836 4.19733 219.844 3.792 221.05 3.792C221.828 3.792 222.538 3.97867 223.178 4.352C223.818 4.72533 224.298 5.22667 224.618 5.856L223.13 6.72C222.948 6.336 222.671 6.03733 222.298 5.824C221.935 5.6 221.514 5.488 221.034 5.488C220.33 5.488 219.738 5.728 219.258 6.208C218.788 6.688 218.554 7.28533 218.554 8C218.554 8.71467 218.788 9.312 219.258 9.792C219.738 10.272 220.33 10.512 221.034 10.512C221.503 10.512 221.924 10.4 222.298 10.176C222.682 9.952 222.97 9.65333 223.162 9.28L224.65 10.128C224.308 10.768 223.818 11.2747 223.178 11.648C222.538 12.0213 221.828 12.208 221.05 12.208ZM231.933 4V5.664H229.325V12H227.597V5.664H224.973V4H231.933ZM237.63 3.792C238.728 3.792 239.667 4.20267 240.446 5.024C241.224 5.83467 241.614 6.82667 241.614 8C241.614 9.184 241.224 10.1813 240.446 10.992C239.667 11.8027 238.728 12.208 237.63 12.208C236.414 12.208 235.48 11.76 234.83 10.864V15.2H233.102V4H234.83V5.152C235.48 4.24533 236.414 3.792 237.63 3.792ZM235.55 9.84C236.03 10.32 236.632 10.56 237.358 10.56C238.083 10.56 238.686 10.32 239.166 9.84C239.646 9.34933 239.886 8.736 239.886 8C239.886 7.264 239.646 6.656 239.166 6.176C238.686 5.68533 238.083 5.44 237.358 5.44C236.632 5.44 236.03 5.68533 235.55 6.176C235.07 6.656 234.83 7.264 234.83 8C234.83 8.736 235.07 9.34933 235.55 9.84ZM244.54 8.736C244.668 9.344 244.961 9.81333 245.42 10.144C245.879 10.464 246.439 10.624 247.1 10.624C248.017 10.624 248.705 10.2933 249.164 9.632L250.588 10.464C249.799 11.6267 248.631 12.208 247.084 12.208C245.783 12.208 244.732 11.8133 243.932 11.024C243.132 10.224 242.732 9.216 242.732 8C242.732 6.80533 243.127 5.808 243.916 5.008C244.705 4.19733 245.719 3.792 246.956 3.792C248.129 3.792 249.089 4.20267 249.836 5.024C250.593 5.84533 250.972 6.84267 250.972 8.016C250.972 8.19733 250.951 8.43733 250.908 8.736H244.54ZM244.524 7.328H249.228C249.111 6.67733 248.839 6.18667 248.412 5.856C247.996 5.52533 247.505 5.36 246.94 5.36C246.3 5.36 245.767 5.536 245.34 5.888C244.913 6.24 244.641 6.72 244.524 7.328ZM257.356 4H259.084V12H257.356V9.296C256.716 9.53067 256.044 9.648 255.34 9.648C254.348 9.648 253.564 9.40267 252.988 8.912C252.412 8.42133 252.124 7.70133 252.124 6.752V4H253.852V6.592C253.852 7.552 254.423 8.032 255.564 8.032C256.236 8.032 256.834 7.90933 257.356 7.664V4ZM5.544 27.888C6.33333 28.2507 6.728 28.864 6.728 29.728C6.728 30.4 6.49867 30.9493 6.04 31.376C5.592 31.792 4.94667 32 4.104 32H0.00800002V24H3.784C4.60533 24 5.24 24.208 5.688 24.624C6.14667 25.0293 6.376 25.5573 6.376 26.208C6.376 26.9653 6.09867 27.5253 5.544 27.888ZM3.656 25.472H1.656V27.248H3.656C4.36 27.248 4.712 26.9493 4.712 26.352C4.712 25.7653 4.36 25.472 3.656 25.472ZM3.944 30.496C4.66933 30.496 5.032 30.1813 5.032 29.552C5.032 29.2747 4.936 29.0613 4.744 28.912C4.552 28.752 4.28533 28.672 3.944 28.672H1.656V30.496H3.944ZM14.469 24H16.197V32H14.469V30.848C13.8183 31.7547 12.885 32.208 11.669 32.208C10.5703 32.208 9.63167 31.8027 8.853 30.992C8.07433 30.1707 7.685 29.1733 7.685 28C7.685 26.816 8.07433 25.8187 8.853 25.008C9.63167 24.1973 10.5703 23.792 11.669 23.792C12.885 23.792 13.8183 24.24 14.469 25.136V24ZM10.133 29.84C10.613 30.32 11.2157 30.56 11.941 30.56C12.6663 30.56 13.269 30.32 13.749 29.84C14.229 29.3493 14.469 28.736 14.469 28C14.469 27.264 14.229 26.656 13.749 26.176C13.269 25.6853 12.6663 25.44 11.941 25.44C11.2157 25.44 10.613 25.6853 10.133 26.176C9.653 26.656 9.413 27.264 9.413 28C9.413 28.736 9.653 29.3493 10.133 29.84ZM26.3711 24V32H24.6911V26.736L22.3871 30.4H22.1791L19.8911 26.752V32H18.2111V24H19.9711L22.2911 27.696L24.6111 24H26.3711ZM38.1594 24H39.4874V32H37.7914V26.912L33.6954 32H32.3674V24H34.0634V29.072L38.1594 24ZM46.8844 24H48.6124V32H46.8844V28.816H43.2204V32H41.4924V24H43.2204V27.184H46.8844V24ZM56.7294 24V25.664H54.1214V32H52.3934V25.664H49.7694V24H56.7294ZM58.9461 28.736C59.0741 29.344 59.3675 29.8133 59.8261 30.144C60.2848 30.464 60.8448 30.624 61.5061 30.624C62.4235 30.624 63.1115 30.2933 63.5701 29.632L64.9941 30.464C64.2048 31.6267 63.0368 32.208 61.4901 32.208C60.1888 32.208 59.1381 31.8133 58.3381 31.024C57.5381 30.224 57.1381 29.216 57.1381 28C57.1381 26.8053 57.5328 25.808 58.3221 25.008C59.1115 24.1973 60.1248 23.792 61.3621 23.792C62.5355 23.792 63.4955 24.2027 64.2421 25.024C64.9995 25.8453 65.3781 26.8427 65.3781 28.016C65.3781 28.1973 65.3568 28.4373 65.3141 28.736H58.9461ZM58.9301 27.328H63.6341C63.5168 26.6773 63.2448 26.1867 62.8181 25.856C62.4021 25.5253 61.9115 25.36 61.3461 25.36C60.7061 25.36 60.1728 25.536 59.7461 25.888C59.3195 26.24 59.0475 26.72 58.9301 27.328ZM71.4266 23.792C72.5253 23.792 73.464 24.2027 74.2426 25.024C75.0213 25.8347 75.4106 26.8267 75.4106 28C75.4106 29.184 75.0213 30.1813 74.2426 30.992C73.464 31.8027 72.5253 32.208 71.4266 32.208C70.2106 32.208 69.2773 31.76 68.6266 30.864V35.2H66.8986V24H68.6266V25.152C69.2773 24.2453 70.2106 23.792 71.4266 23.792ZM69.3466 29.84C69.8266 30.32 70.4293 30.56 71.1546 30.56C71.88 30.56 72.4826 30.32 72.9626 29.84C73.4426 29.3493 73.6826 28.736 73.6826 28C73.6826 27.264 73.4426 26.656 72.9626 26.176C72.4826 25.6853 71.88 25.44 71.1546 25.44C70.4293 25.44 69.8266 25.6853 69.3466 26.176C68.8666 26.656 68.6266 27.264 68.6266 28C68.6266 28.736 68.8666 29.3493 69.3466 29.84ZM78.3368 28.736C78.4648 29.344 78.7581 29.8133 79.2168 30.144C79.6754 30.464 80.2354 30.624 80.8968 30.624C81.8141 30.624 82.5021 30.2933 82.9608 29.632L84.3848 30.464C83.5954 31.6267 82.4274 32.208 80.8808 32.208C79.5794 32.208 78.5288 31.8133 77.7288 31.024C76.9288 30.224 76.5288 29.216 76.5288 28C76.5288 26.8053 76.9234 25.808 77.7128 25.008C78.5021 24.1973 79.5154 23.792 80.7528 23.792C81.9261 23.792 82.8861 24.2027 83.6328 25.024C84.3901 25.8453 84.7688 26.8427 84.7688 28.016C84.7688 28.1973 84.7474 28.4373 84.7048 28.736H78.3368ZM78.3207 27.328H83.0248C82.9074 26.6773 82.6354 26.1867 82.2088 25.856C81.7928 25.5253 81.3021 25.36 80.7368 25.36C80.0968 25.36 79.5634 25.536 79.1368 25.888C78.7101 26.24 78.4381 26.72 78.3207 27.328ZM90.0184 32.208C88.813 32.208 87.805 31.8027 86.9944 30.992C86.1944 30.1813 85.7944 29.184 85.7944 28C85.7944 26.8053 86.1944 25.808 86.9944 25.008C87.805 24.1973 88.813 23.792 90.0184 23.792C90.797 23.792 91.5064 23.9787 92.1464 24.352C92.7864 24.7253 93.2664 25.2267 93.5864 25.856L92.0984 26.72C91.917 26.336 91.6397 26.0373 91.2664 25.824C90.9037 25.6 90.4824 25.488 90.0024 25.488C89.2984 25.488 88.7064 25.728 88.2264 26.208C87.757 26.688 87.5224 27.2853 87.5224 28C87.5224 28.7147 87.757 29.312 88.2264 29.792C88.7064 30.272 89.2984 30.512 90.0024 30.512C90.4717 30.512 90.893 30.4 91.2664 30.176C91.6504 29.952 91.9384 29.6533 92.1304 29.28L93.6184 30.128C93.277 30.768 92.7864 31.2747 92.1464 31.648C91.5064 32.0213 90.797 32.208 90.0184 32.208ZM100.306 24H102.034V32H100.306V28.816H96.6423V32H94.9143V24H96.6423V27.184H100.306V24ZM107.527 26.72C108.381 26.72 109.079 26.9653 109.623 27.456C110.167 27.936 110.439 28.5707 110.439 29.36C110.439 30.1387 110.167 30.7733 109.623 31.264C109.079 31.7547 108.381 32 107.527 32H104.039V24H105.767V26.72H107.527ZM111.399 24H113.127V32H111.399V24ZM107.543 30.448C107.885 30.448 108.167 30.3467 108.391 30.144C108.626 29.9413 108.743 29.68 108.743 29.36C108.743 29.0293 108.626 28.768 108.391 28.576C108.167 28.3733 107.885 28.272 107.543 28.272H105.767V30.448H107.543Z" fill="#A7A7B1"/>
</svg>
