<svg width="18" height="18" viewBox="0 0 18 18" fill="none" xmlns="http://www.w3.org/2000/svg">
<rect y="-0.00012207" width="18" height="18" rx="9" fill="white"/>
<path d="M6.02959 11.2526C5.84297 11.4392 5.83916 11.7706 6.0334 11.9648C6.23145 12.159 6.56279 12.1552 6.74561 11.9724L9.00029 9.71774L11.2512 11.9686C11.4416 12.159 11.7691 12.159 11.9634 11.9648C12.1576 11.7668 12.1576 11.443 11.9672 11.2526L9.71631 9.00172L11.9672 6.74704C12.1576 6.55661 12.1614 6.22907 11.9634 6.03483C11.7691 5.84059 11.4416 5.84059 11.2512 6.03102L9.00029 8.2819L6.74561 6.03102C6.56279 5.8444 6.22764 5.83678 6.0334 6.03483C5.83916 6.22907 5.84297 6.56422 6.02959 6.74704L8.28047 9.00172L6.02959 11.2526Z" fill="black" stroke="black" stroke-width="0.3"/>
</svg>
