<svg width="54" height="30" viewBox="0 0 54 30" fill="none" xmlns="http://www.w3.org/2000/svg">
<path d="M22.3064 19.1203V24.2403H19.3064V29.0002H13.7465V24.2403H0.506501V19.1203L9.82647 1.00033H15.7465L6.46648 19.1203H13.7465V12.4803H19.3064V19.1203H22.3064ZM29.615 28.5602C29.0039 29.1714 28.2706 29.4769 27.415 29.4769C26.5595 29.4769 25.8262 29.1714 25.2151 28.5602C24.6039 27.9491 24.2984 27.2158 24.2984 26.3603C24.2984 25.5047 24.6039 24.7714 25.2151 24.1603C25.8262 23.5491 26.5595 23.2436 27.415 23.2436C28.2706 23.2436 29.0039 23.5491 29.615 24.1603C30.2262 24.7714 30.5317 25.5047 30.5317 26.3603C30.5317 27.2158 30.2262 27.9491 29.615 28.5602ZM53.145 10.1603C53.145 12.3203 52.585 14.2136 51.465 15.8403H51.505L42.785 29.0002H36.4651L42.705 19.8803C39.7984 19.8269 37.4251 18.9069 35.5851 17.1203C33.7717 15.307 32.8651 12.987 32.8651 10.1603C32.8651 7.30697 33.7984 4.97365 35.6651 3.16032C37.5584 1.34699 39.9984 0.440327 42.985 0.440327C45.9984 0.440327 48.4384 1.34699 50.305 3.16032C52.1983 4.94698 53.145 7.28031 53.145 10.1603ZM38.345 10.1603C38.345 11.547 38.785 12.6536 39.665 13.4803C40.5717 14.307 41.6784 14.7203 42.985 14.7203C44.345 14.7203 45.465 14.307 46.345 13.4803C47.225 12.6536 47.665 11.547 47.665 10.1603C47.665 8.77364 47.225 7.68031 46.345 6.88031C45.465 6.05364 44.345 5.64031 42.985 5.64031C41.6784 5.64031 40.5717 6.05364 39.665 6.88031C38.785 7.70697 38.345 8.8003 38.345 10.1603Z" fill="url(#paint0_linear_2459_1680)"/>
<defs>
<linearGradient id="paint0_linear_2459_1680" x1="-0.333496" y1="15.0002" x2="58.8356" y2="15.0002" gradientUnits="userSpaceOnUse">
<stop stop-color="#FF6645"/>
<stop offset="0.0001" stop-color="#FF6645"/>
<stop offset="1" stop-color="#DF2B4B"/>
</linearGradient>
</defs>
</svg>
