<svg width="11" height="20" viewBox="0 0 11 20" fill="none" xmlns="http://www.w3.org/2000/svg">
<path d="M0 10C0 10.365 0.139548 10.6763 0.429379 10.9554L8.80226 19.1458C9.02768 19.3819 9.32825 19.5 9.67175 19.5C10.3695 19.5 10.9169 18.9633 10.9169 18.2548C10.9169 17.9113 10.7774 17.6 10.5412 17.3638L2.99492 10L10.5412 2.63616C10.7774 2.38927 10.9169 2.07797 10.9169 1.73446C10.9169 1.03672 10.3695 0.5 9.67175 0.5C9.32825 0.5 9.02768 0.618079 8.80226 0.854237L0.429379 9.04463C0.139548 9.32373 0.0107345 9.63503 0 10Z" fill="black"/>
</svg>
