<svg width="270" height="11" viewBox="0 0 270 11" fill="none" xmlns="http://www.w3.org/2000/svg">
<path d="M5.61 8V2.258L1.65 8H0.825V0.299999H1.848V6.053L5.808 0.299999H6.633V8H5.61ZM13.669 2.5V8H12.734V4.007L10.985 6.823H10.864L9.11498 4.007V8H8.16898V2.5H9.19198L10.919 5.283L12.646 2.5H13.669ZM19.2318 2.5V8H18.2858V6.02H17.4828L15.9428 8H14.7768L16.3828 5.965C15.9721 5.86233 15.6385 5.657 15.3818 5.349C15.1251 5.041 14.9968 4.68167 14.9968 4.271C14.9968 3.765 15.1765 3.34333 15.5358 3.006C15.8951 2.66867 16.3461 2.5 16.8888 2.5H19.2318ZM16.9218 5.162H18.2858V3.391H16.9218C16.6505 3.391 16.4195 3.47167 16.2288 3.633C16.0381 3.79433 15.9428 4.01067 15.9428 4.282C15.9428 4.546 16.0381 4.75867 16.2288 4.92C16.4195 5.08133 16.6505 5.162 16.9218 5.162ZM28.1711 2.5V8H27.2141V3.413H24.3651V8H23.4081V2.5H28.1711ZM34.2577 7.307C33.693 7.86433 33.0074 8.143 32.2007 8.143C31.394 8.143 30.7084 7.86433 30.1437 7.307C29.5864 6.74967 29.3077 6.064 29.3077 5.25C29.3077 4.436 29.5864 3.75033 30.1437 3.193C30.7084 2.63567 31.394 2.357 32.2007 2.357C33.0074 2.357 33.693 2.63567 34.2577 3.193C34.8224 3.75033 35.1047 4.436 35.1047 5.25C35.1047 6.064 34.8224 6.74967 34.2577 7.307ZM32.2007 7.208C32.7507 7.208 33.2127 7.021 33.5867 6.647C33.9607 6.273 34.1477 5.80733 34.1477 5.25C34.1477 4.69267 33.9607 4.227 33.5867 3.853C33.2127 3.479 32.7507 3.292 32.2007 3.292C31.658 3.292 31.1997 3.479 30.8257 3.853C30.4517 4.227 30.2647 4.69267 30.2647 5.25C30.2647 5.80733 30.4517 6.273 30.8257 6.647C31.1997 7.021 31.658 7.208 32.2007 7.208ZM40.6144 2.5V8H39.6574V3.424H37.4904V5.668C37.4904 6.57 37.3071 7.20067 36.9404 7.56C36.5811 7.912 36.0714 8.05867 35.4114 8V7.098C35.7854 7.14933 36.0641 7.06867 36.2474 6.856C36.4381 6.636 36.5334 6.23267 36.5334 5.646V2.5H40.6144ZM44.3734 4.48C44.9234 4.48 45.3781 4.645 45.7374 4.975C46.1041 5.29767 46.2874 5.71933 46.2874 6.24C46.2874 6.76067 46.1041 7.186 45.7374 7.516C45.3781 7.83867 44.9234 8 44.3734 8H42.0524V2.5H43.0094V4.48H44.3734ZM44.3734 7.109C44.6448 7.109 44.8721 7.032 45.0554 6.878C45.2461 6.71667 45.3414 6.504 45.3414 6.24C45.3414 5.976 45.2461 5.76333 45.0554 5.602C44.8721 5.44067 44.6448 5.36 44.3734 5.36H43.0094V7.109H44.3734ZM50.1558 5.184C50.7645 5.43333 51.0688 5.86967 51.0688 6.493C51.0688 6.955 50.8855 7.34733 50.5188 7.67C50.1522 7.98533 49.6315 8.143 48.9568 8.143C47.8568 8.143 47.1198 7.703 46.7458 6.823L47.5488 6.35C47.7615 6.95133 48.2345 7.252 48.9678 7.252C49.3345 7.252 49.6168 7.175 49.8148 7.021C50.0202 6.85967 50.1228 6.65433 50.1228 6.405C50.1228 6.185 50.0385 6.00533 49.8698 5.866C49.7085 5.72667 49.4885 5.657 49.2098 5.657H48.4068V4.788H49.0008C49.2795 4.788 49.4958 4.722 49.6498 4.59C49.8038 4.45067 49.8808 4.26367 49.8808 4.029C49.8808 3.79433 49.7892 3.60367 49.6058 3.457C49.4298 3.31033 49.1842 3.237 48.8688 3.237C48.2528 3.237 47.8348 3.49733 47.6148 4.018L46.8338 3.567C47.2225 2.76033 47.9008 2.357 48.8688 2.357C49.4702 2.357 49.9432 2.511 50.2878 2.819C50.6398 3.127 50.8158 3.50467 50.8158 3.952C50.8158 4.50933 50.5958 4.92 50.1558 5.184ZM56.7357 7.307C56.171 7.86433 55.4853 8.143 54.6787 8.143C53.872 8.143 53.1863 7.86433 52.6217 7.307C52.0643 6.74967 51.7857 6.064 51.7857 5.25C51.7857 4.436 52.0643 3.75033 52.6217 3.193C53.1863 2.63567 53.872 2.357 54.6787 2.357C55.4853 2.357 56.171 2.63567 56.7357 3.193C57.3003 3.75033 57.5827 4.436 57.5827 5.25C57.5827 6.064 57.3003 6.74967 56.7357 7.307ZM54.6787 7.208C55.2287 7.208 55.6907 7.021 56.0647 6.647C56.4387 6.273 56.6257 5.80733 56.6257 5.25C56.6257 4.69267 56.4387 4.227 56.0647 3.853C55.6907 3.479 55.2287 3.292 54.6787 3.292C54.136 3.292 53.6777 3.479 53.3037 3.853C52.9297 4.227 52.7427 4.69267 52.7427 5.25C52.7427 5.80733 52.9297 6.273 53.3037 6.647C53.6777 7.021 54.136 7.208 54.6787 7.208ZM62.3618 5.173C62.9264 5.40767 63.2088 5.833 63.2088 6.449C63.2088 6.90367 63.0548 7.27767 62.7468 7.571C62.4461 7.857 62.0134 8 61.4488 8H58.6988V2.5H61.2288C61.7788 2.5 62.2041 2.63933 62.5048 2.918C62.8054 3.18933 62.9558 3.54867 62.9558 3.996C62.9558 4.524 62.7578 4.91633 62.3618 5.173ZM61.1848 3.358H59.6338V4.799H61.1848C61.7421 4.799 62.0208 4.55333 62.0208 4.062C62.0208 3.59267 61.7421 3.358 61.1848 3.358ZM61.3938 7.131C61.6724 7.131 61.8851 7.065 62.0318 6.933C62.1858 6.801 62.2628 6.614 62.2628 6.372C62.2628 6.14467 62.1858 5.96867 62.0318 5.844C61.8851 5.712 61.6724 5.646 61.3938 5.646H59.6338V7.131H61.3938ZM68.7836 2.5H69.7406V8H68.7836V7.054C68.307 7.78 67.614 8.143 66.7046 8.143C65.9346 8.143 65.2783 7.86433 64.7356 7.307C64.193 6.74233 63.9216 6.05667 63.9216 5.25C63.9216 4.44333 64.193 3.76133 64.7356 3.204C65.2783 2.63933 65.9346 2.357 66.7046 2.357C67.614 2.357 68.307 2.72 68.7836 3.446V2.5ZM66.8256 7.219C67.383 7.219 67.8486 7.032 68.2226 6.658C68.5966 6.27667 68.7836 5.80733 68.7836 5.25C68.7836 4.69267 68.5966 4.227 68.2226 3.853C67.8486 3.47167 67.383 3.281 66.8256 3.281C66.2756 3.281 65.8136 3.47167 65.4396 3.853C65.0656 4.227 64.8786 4.69267 64.8786 5.25C64.8786 5.80733 65.0656 6.27667 65.4396 6.658C65.8136 7.032 66.2756 7.219 66.8256 7.219ZM75.2705 2.5V3.424H73.4005V8H72.4435V3.424H70.5625V2.5H75.2705ZM76.5532 5.69C76.6485 6.18133 76.8722 6.56267 77.2242 6.834C77.5835 7.10533 78.0235 7.241 78.5442 7.241C79.2702 7.241 79.7982 6.97333 80.1282 6.438L80.9422 6.9C80.4068 7.72867 79.6002 8.143 78.5222 8.143C77.6495 8.143 76.9382 7.87167 76.3882 7.329C75.8455 6.779 75.5742 6.086 75.5742 5.25C75.5742 4.42133 75.8418 3.732 76.3772 3.182C76.9125 2.632 77.6055 2.357 78.4562 2.357C79.2628 2.357 79.9192 2.643 80.4252 3.215C80.9385 3.77967 81.1952 4.46167 81.1952 5.261C81.1952 5.40033 81.1842 5.54333 81.1622 5.69H76.5532ZM78.4562 3.259C77.9428 3.259 77.5175 3.40567 77.1802 3.699C76.8428 3.985 76.6338 4.37 76.5532 4.854H80.2272C80.1465 4.33333 79.9412 3.93733 79.6112 3.666C79.2812 3.39467 78.8962 3.259 78.4562 3.259ZM86.6553 2.5V8H85.6983V3.424H83.5313V5.668C83.5313 6.57 83.348 7.20067 82.9813 7.56C82.622 7.912 82.1123 8.05867 81.4523 8V7.098C81.8263 7.14933 82.105 7.06867 82.2883 6.856C82.479 6.636 82.5743 6.23267 82.5743 5.646V2.5H86.6553ZM92.2073 2.5V8H91.2613V6.02H90.4583L88.9183 8H87.7523L89.3583 5.965C88.9477 5.86233 88.614 5.657 88.3573 5.349C88.1007 5.041 87.9723 4.68167 87.9723 4.271C87.9723 3.765 88.152 3.34333 88.5113 3.006C88.8707 2.66867 89.3217 2.5 89.8643 2.5H92.2073ZM89.8973 5.162H91.2613V3.391H89.8973C89.626 3.391 89.395 3.47167 89.2043 3.633C89.0137 3.79433 88.9183 4.01067 88.9183 4.282C88.9183 4.546 89.0137 4.75867 89.2043 4.92C89.395 5.08133 89.626 5.162 89.8973 5.162ZM98.9686 8.143C98.1399 8.143 97.4506 7.868 96.9006 7.318C96.3506 6.76067 96.0756 6.07133 96.0756 5.25C96.0756 4.42867 96.3506 3.743 96.9006 3.193C97.4506 2.63567 98.1399 2.357 98.9686 2.357C99.5112 2.357 99.9989 2.489 100.432 2.753C100.864 3.00967 101.187 3.358 101.4 3.798L100.597 4.26C100.457 3.96667 100.241 3.732 99.9476 3.556C99.6616 3.38 99.3352 3.292 98.9686 3.292C98.4186 3.292 97.9566 3.479 97.5826 3.853C97.2159 4.227 97.0326 4.69267 97.0326 5.25C97.0326 5.8 97.2159 6.262 97.5826 6.636C97.9566 7.01 98.4186 7.197 98.9686 7.197C99.3352 7.197 99.6652 7.11267 99.9586 6.944C100.252 6.768 100.476 6.53333 100.63 6.24L101.444 6.713C101.209 7.14567 100.872 7.494 100.432 7.758C99.9916 8.01467 99.5039 8.143 98.9686 8.143ZM106.943 7.307C106.379 7.86433 105.693 8.143 104.886 8.143C104.08 8.143 103.394 7.86433 102.829 7.307C102.272 6.74967 101.993 6.064 101.993 5.25C101.993 4.436 102.272 3.75033 102.829 3.193C103.394 2.63567 104.08 2.357 104.886 2.357C105.693 2.357 106.379 2.63567 106.943 3.193C107.508 3.75033 107.79 4.436 107.79 5.25C107.79 6.064 107.508 6.74967 106.943 7.307ZM104.886 7.208C105.436 7.208 105.898 7.021 106.272 6.647C106.646 6.273 106.833 5.80733 106.833 5.25C106.833 4.69267 106.646 4.227 106.272 3.853C105.898 3.479 105.436 3.292 104.886 3.292C104.344 3.292 103.885 3.479 103.511 3.853C103.137 4.227 102.95 4.69267 102.95 5.25C102.95 5.80733 103.137 6.273 103.511 6.647C103.885 7.021 104.344 7.208 104.886 7.208ZM113.421 7.087H114.18V9.474H113.234V8H109.109V9.474H108.163V7.087H108.834C109.186 6.603 109.362 5.92467 109.362 5.052V2.5H113.421V7.087ZM109.923 7.087H112.475V3.391H110.308V5.052C110.308 5.87333 110.18 6.55167 109.923 7.087ZM115.656 5.69C115.751 6.18133 115.975 6.56267 116.327 6.834C116.686 7.10533 117.126 7.241 117.647 7.241C118.373 7.241 118.901 6.97333 119.231 6.438L120.045 6.9C119.51 7.72867 118.703 8.143 117.625 8.143C116.752 8.143 116.041 7.87167 115.491 7.329C114.948 6.779 114.677 6.086 114.677 5.25C114.677 4.42133 114.945 3.732 115.48 3.182C116.015 2.632 116.708 2.357 117.559 2.357C118.366 2.357 119.022 2.643 119.528 3.215C120.041 3.77967 120.298 4.46167 120.298 5.261C120.298 5.40033 120.287 5.54333 120.265 5.69H115.656ZM117.559 3.259C117.046 3.259 116.62 3.40567 116.283 3.699C115.946 3.985 115.737 4.37 115.656 4.854H119.33C119.249 4.33333 119.044 3.93733 118.714 3.666C118.384 3.39467 117.999 3.259 117.559 3.259ZM124.422 2.357C125.192 2.357 125.848 2.63933 126.391 3.204C126.934 3.76133 127.205 4.44333 127.205 5.25C127.205 6.05667 126.934 6.74233 126.391 7.307C125.848 7.86433 125.192 8.143 124.422 8.143C123.513 8.143 122.82 7.78 122.343 7.054V10.2H121.386V2.5H122.343V3.446C122.82 2.72 123.513 2.357 124.422 2.357ZM124.301 7.219C124.851 7.219 125.313 7.032 125.687 6.658C126.061 6.27667 126.248 5.80733 126.248 5.25C126.248 4.69267 126.061 4.227 125.687 3.853C125.313 3.47167 124.851 3.281 124.301 3.281C123.744 3.281 123.278 3.47167 122.904 3.853C122.53 4.227 122.343 4.69267 122.343 5.25C122.343 5.80733 122.53 6.27667 122.904 6.658C123.278 7.032 123.744 7.219 124.301 7.219ZM134.659 8H133.537L131.48 5.393V8H130.534V5.393L128.477 8H127.366L129.665 5.162L127.476 2.5H128.587L130.534 4.931V2.5H131.48V4.931L133.427 2.5H134.549L132.349 5.162L134.659 8ZM139.556 2.5H140.326V8H139.38V4.139L136.333 8H135.563V2.5H136.509V6.361L139.556 2.5ZM145.863 2.5V3.424H143.993V8H143.036V3.424H141.155V2.5H145.863ZM153.233 2.5H154.19V8H153.233V5.701H150.384V8H149.427V2.5H150.384V4.788H153.233V2.5ZM156.306 5.69C156.401 6.18133 156.625 6.56267 156.977 6.834C157.336 7.10533 157.776 7.241 158.297 7.241C159.023 7.241 159.551 6.97333 159.881 6.438L160.695 6.9C160.159 7.72867 159.353 8.143 158.275 8.143C157.402 8.143 156.691 7.87167 156.141 7.329C155.598 6.779 155.327 6.086 155.327 5.25C155.327 4.42133 155.594 3.732 156.13 3.182C156.665 2.632 157.358 2.357 158.209 2.357C159.015 2.357 159.672 2.643 160.178 3.215C160.691 3.77967 160.948 4.46167 160.948 5.261C160.948 5.40033 160.937 5.54333 160.915 5.69H156.306ZM158.209 3.259C157.695 3.259 157.27 3.40567 156.933 3.699C156.595 3.985 156.386 4.37 156.306 4.854H159.98C159.899 4.33333 159.694 3.93733 159.364 3.666C159.034 3.39467 158.649 3.259 158.209 3.259ZM166.551 7.087H167.31V9.474H166.364V8H162.239V9.474H161.293V7.087H161.964C162.316 6.603 162.492 5.92467 162.492 5.052V2.5H166.551V7.087ZM163.053 7.087H165.605V3.391H163.438V5.052C163.438 5.87333 163.309 6.55167 163.053 7.087ZM172.756 7.307C172.192 7.86433 171.506 8.143 170.699 8.143C169.893 8.143 169.207 7.86433 168.642 7.307C168.085 6.74967 167.806 6.064 167.806 5.25C167.806 4.436 168.085 3.75033 168.642 3.193C169.207 2.63567 169.893 2.357 170.699 2.357C171.506 2.357 172.192 2.63567 172.756 3.193C173.321 3.75033 173.603 4.436 173.603 5.25C173.603 6.064 173.321 6.74967 172.756 7.307ZM170.699 7.208C171.249 7.208 171.711 7.021 172.085 6.647C172.459 6.273 172.646 5.80733 172.646 5.25C172.646 4.69267 172.459 4.227 172.085 3.853C171.711 3.479 171.249 3.292 170.699 3.292C170.157 3.292 169.698 3.479 169.324 3.853C168.95 4.227 168.763 4.69267 168.763 5.25C168.763 5.80733 168.95 6.273 169.324 6.647C169.698 7.021 170.157 7.208 170.699 7.208ZM179.482 2.5V8H178.525V3.413H175.676V8H174.719V2.5H179.482ZM184.766 2.5H185.789L183.545 8.341C183.31 8.96433 182.98 9.43733 182.555 9.76C182.13 10.09 181.646 10.2367 181.103 10.2V9.309C181.778 9.36033 182.273 8.99367 182.588 8.209L182.676 8.011L180.289 2.5H181.301L183.182 6.812L184.766 2.5ZM188.946 8.143C188.118 8.143 187.428 7.868 186.878 7.318C186.328 6.76067 186.053 6.07133 186.053 5.25C186.053 4.42867 186.328 3.743 186.878 3.193C187.428 2.63567 188.118 2.357 188.946 2.357C189.489 2.357 189.977 2.489 190.409 2.753C190.842 3.00967 191.165 3.358 191.377 3.798L190.574 4.26C190.435 3.96667 190.219 3.732 189.925 3.556C189.639 3.38 189.313 3.292 188.946 3.292C188.396 3.292 187.934 3.479 187.56 3.853C187.194 4.227 187.01 4.69267 187.01 5.25C187.01 5.8 187.194 6.262 187.56 6.636C187.934 7.01 188.396 7.197 188.946 7.197C189.313 7.197 189.643 7.11267 189.936 6.944C190.23 6.768 190.453 6.53333 190.607 6.24L191.421 6.713C191.187 7.14567 190.849 7.494 190.409 7.758C189.969 8.01467 189.482 8.143 188.946 8.143ZM196.36 2.5V3.424H194.49V8H193.533V3.424H191.652V2.5H196.36ZM201.18 2.5H201.95V8H201.004V4.139L197.957 8H197.187V2.5H198.133V6.361L201.18 2.5ZM208.894 2.5V8H207.959V4.007L206.21 6.823H206.089L204.34 4.007V8H203.394V2.5H204.417L206.144 5.283L207.871 2.5H208.894ZM212.664 4.48C213.214 4.48 213.669 4.645 214.028 4.975C214.395 5.29767 214.578 5.71933 214.578 6.24C214.578 6.76067 214.395 7.186 214.028 7.516C213.669 7.83867 213.214 8 212.664 8H210.343V2.5H211.3V4.48H212.664ZM215.293 2.5H216.25V8H215.293V2.5ZM212.664 7.109C212.935 7.109 213.163 7.032 213.346 6.878C213.537 6.71667 213.632 6.504 213.632 6.24C213.632 5.976 213.537 5.76333 213.346 5.602C213.163 5.44067 212.935 5.36 212.664 5.36H211.3V7.109H212.664ZM218.371 5.69C218.467 6.18133 218.69 6.56267 219.042 6.834C219.402 7.10533 219.842 7.241 220.362 7.241C221.088 7.241 221.616 6.97333 221.946 6.438L222.76 6.9C222.225 7.72867 221.418 8.143 220.34 8.143C219.468 8.143 218.756 7.87167 218.206 7.329C217.664 6.779 217.392 6.086 217.392 5.25C217.392 4.42133 217.66 3.732 218.195 3.182C218.731 2.632 219.424 2.357 220.274 2.357C221.081 2.357 221.737 2.643 222.243 3.215C222.757 3.77967 223.013 4.46167 223.013 5.261C223.013 5.40033 223.002 5.54333 222.98 5.69H218.371ZM220.274 3.259C219.761 3.259 219.336 3.40567 218.998 3.699C218.661 3.985 218.452 4.37 218.371 4.854H222.045C221.965 4.33333 221.759 3.93733 221.429 3.666C221.099 3.39467 220.714 3.259 220.274 3.259ZM229.424 8.143C228.595 8.143 227.906 7.868 227.356 7.318C226.806 6.76067 226.531 6.07133 226.531 5.25C226.531 4.42867 226.806 3.743 227.356 3.193C227.906 2.63567 228.595 2.357 229.424 2.357C229.967 2.357 230.454 2.489 230.887 2.753C231.32 3.00967 231.642 3.358 231.855 3.798L231.052 4.26C230.913 3.96667 230.696 3.732 230.403 3.556C230.117 3.38 229.791 3.292 229.424 3.292C228.874 3.292 228.412 3.479 228.038 3.853C227.671 4.227 227.488 4.69267 227.488 5.25C227.488 5.8 227.671 6.262 228.038 6.636C228.412 7.01 228.874 7.197 229.424 7.197C229.791 7.197 230.121 7.11267 230.414 6.944C230.707 6.768 230.931 6.53333 231.085 6.24L231.899 6.713C231.664 7.14567 231.327 7.494 230.887 7.758C230.447 8.01467 229.959 8.143 229.424 8.143ZM236.836 2.5H237.606V8H236.66V4.139L233.613 8H232.843V2.5H233.789V6.361L236.836 2.5ZM244.55 2.5V8H243.615V4.007L241.866 6.823H241.745L239.996 4.007V8H239.05V2.5H240.073L241.8 5.283L243.527 2.5H244.55ZM249.662 5.173C250.227 5.40767 250.509 5.833 250.509 6.449C250.509 6.90367 250.355 7.27767 250.047 7.571C249.746 7.857 249.314 8 248.749 8H245.999V2.5H248.529C249.079 2.5 249.504 2.63933 249.805 2.918C250.106 3.18933 250.256 3.54867 250.256 3.996C250.256 4.524 250.058 4.91633 249.662 5.173ZM248.485 3.358H246.934V4.799H248.485C249.042 4.799 249.321 4.55333 249.321 4.062C249.321 3.59267 249.042 3.358 248.485 3.358ZM248.694 7.131C248.973 7.131 249.185 7.065 249.332 6.933C249.486 6.801 249.563 6.614 249.563 6.372C249.563 6.14467 249.486 5.96867 249.332 5.844C249.185 5.712 248.973 5.646 248.694 5.646H246.934V7.131H248.694ZM256.172 7.307C255.607 7.86433 254.922 8.143 254.115 8.143C253.308 8.143 252.623 7.86433 252.058 7.307C251.501 6.74967 251.222 6.064 251.222 5.25C251.222 4.436 251.501 3.75033 252.058 3.193C252.623 2.63567 253.308 2.357 254.115 2.357C254.922 2.357 255.607 2.63567 256.172 3.193C256.737 3.75033 257.019 4.436 257.019 5.25C257.019 6.064 256.737 6.74967 256.172 7.307ZM254.115 7.208C254.665 7.208 255.127 7.021 255.501 6.647C255.875 6.273 256.062 5.80733 256.062 5.25C256.062 4.69267 255.875 4.227 255.501 3.853C255.127 3.479 254.665 3.292 254.115 3.292C253.572 3.292 253.114 3.479 252.74 3.853C252.366 4.227 252.179 4.69267 252.179 5.25C252.179 5.80733 252.366 6.273 252.74 6.647C253.114 7.021 253.572 7.208 254.115 7.208ZM262.529 2.5V8H261.572V3.424H259.405V5.668C259.405 6.57 259.221 7.20067 258.855 7.56C258.495 7.912 257.986 8.05867 257.326 8V7.098C257.7 7.14933 257.978 7.06867 258.162 6.856C258.352 6.636 258.448 6.23267 258.448 5.646V2.5H262.529ZM266.288 4.48C266.838 4.48 267.292 4.645 267.652 4.975C268.018 5.29767 268.202 5.71933 268.202 6.24C268.202 6.76067 268.018 7.186 267.652 7.516C267.292 7.83867 266.838 8 266.288 8H263.967V2.5H264.924V4.48H266.288ZM268.917 2.5H269.874V8H268.917V2.5ZM266.288 7.109C266.559 7.109 266.786 7.032 266.97 6.878C267.16 6.71667 267.256 6.504 267.256 6.24C267.256 5.976 267.16 5.76333 266.97 5.602C266.786 5.44067 266.559 5.36 266.288 5.36H264.924V7.109H266.288Z" fill="#FF4745"/>
</svg>
