<svg width="113" height="16" viewBox="0 0 113 16" fill="none" xmlns="http://www.w3.org/2000/svg">
<path d="M6.871 0.0999992H9.2V12H6.871V7.07H2.451V12H0.105V0.0999992H2.451V4.826H6.871V0.0999992ZM13.0517 8.651C13.3463 9.71633 14.1453 10.249 15.4487 10.249C16.2873 10.249 16.922 9.96567 17.3527 9.399L19.1207 10.419C18.282 11.6317 17.0467 12.238 15.4147 12.238C14.0093 12.238 12.8817 11.813 12.0317 10.963C11.1817 10.113 10.7567 9.042 10.7567 7.75C10.7567 6.46933 11.176 5.404 12.0147 4.554C12.8533 3.69267 13.93 3.262 15.2447 3.262C16.4913 3.262 17.517 3.69267 18.3217 4.554C19.1377 5.41533 19.5457 6.48067 19.5457 7.75C19.5457 8.03333 19.5173 8.33367 19.4607 8.651H13.0517ZM13.0177 6.951H17.3527C17.228 6.373 16.9673 5.94233 16.5707 5.659C16.1853 5.37567 15.7433 5.234 15.2447 5.234C14.6553 5.234 14.168 5.387 13.7827 5.693C13.3973 5.98767 13.1423 6.407 13.0177 6.951ZM27.0866 7.648C27.8799 8.03333 28.2766 8.67933 28.2766 9.586C28.2766 10.3 28.0273 10.8837 27.5286 11.337C27.0413 11.779 26.3443 12 25.4376 12H20.9666V3.5H25.0976C25.9929 3.5 26.6843 3.721 27.1716 4.163C27.6703 4.605 27.9196 5.183 27.9196 5.897C27.9196 6.645 27.6419 7.22867 27.0866 7.648ZM24.8936 5.302H23.0236V6.832H24.8936C25.5169 6.832 25.8286 6.577 25.8286 6.067C25.8286 5.557 25.5169 5.302 24.8936 5.302ZM25.1826 10.147C25.8173 10.147 26.1346 9.875 26.1346 9.331C26.1346 9.093 26.0496 8.906 25.8796 8.77C25.7096 8.634 25.4773 8.566 25.1826 8.566H23.0236V10.147H25.1826ZM31.3922 8.651C31.6869 9.71633 32.4859 10.249 33.7892 10.249C34.6279 10.249 35.2625 9.96567 35.6932 9.399L37.4612 10.419C36.6225 11.6317 35.3872 12.238 33.7552 12.238C32.3499 12.238 31.2222 11.813 30.3722 10.963C29.5222 10.113 29.0972 9.042 29.0972 7.75C29.0972 6.46933 29.5165 5.404 30.3552 4.554C31.1939 3.69267 32.2705 3.262 33.5852 3.262C34.8319 3.262 35.8575 3.69267 36.6622 4.554C37.4782 5.41533 37.8862 6.48067 37.8862 7.75C37.8862 8.03333 37.8579 8.33367 37.8012 8.651H31.3922ZM31.3582 6.951H35.6932C35.5685 6.373 35.3079 5.94233 34.9112 5.659C34.5259 5.37567 34.0839 5.234 33.5852 5.234C32.9959 5.234 32.5085 5.387 32.1232 5.693C31.7379 5.98767 31.4829 6.407 31.3582 6.951ZM44.2541 3.262C45.3988 3.262 46.3735 3.69833 47.1781 4.571C47.9941 5.43233 48.4021 6.492 48.4021 7.75C48.4021 9.008 47.9941 10.0733 47.1781 10.946C46.3735 11.8073 45.3988 12.238 44.2541 12.238C43.0641 12.238 42.1461 11.8243 41.5001 10.997V15.4H39.3071V3.5H41.5001V4.503C42.1461 3.67567 43.0641 3.262 44.2541 3.262ZM42.1631 9.484C42.6051 9.926 43.1661 10.147 43.8461 10.147C44.5261 10.147 45.0871 9.926 45.5291 9.484C45.9825 9.03067 46.2091 8.45267 46.2091 7.75C46.2091 7.04733 45.9825 6.475 45.5291 6.033C45.0871 5.57967 44.5261 5.353 43.8461 5.353C43.1661 5.353 42.6051 5.57967 42.1631 6.033C41.7211 6.475 41.5001 7.04733 41.5001 7.75C41.5001 8.45267 41.7211 9.03067 42.1631 9.484ZM55.4147 3.5H57.6077V12H55.4147V8.77H52.0317V12H49.8387V3.5H52.0317V6.713H55.4147V3.5ZM63.3491 6.22C64.3124 6.22 65.0887 6.48633 65.6781 7.019C66.2674 7.54033 66.5621 8.23733 66.5621 9.11C66.5621 9.98267 66.2674 10.6853 65.6781 11.218C65.0887 11.7393 64.3124 12 63.3491 12H59.5071V3.5H61.7001V6.22H63.3491ZM67.4971 3.5H69.6901V12H67.4971V3.5ZM63.3661 10.062C63.6721 10.062 63.9214 9.977 64.1141 9.807C64.3181 9.62567 64.4201 9.39333 64.4201 9.11C64.4201 8.82667 64.3181 8.59433 64.1141 8.413C63.9214 8.23167 63.6721 8.141 63.3661 8.141H61.7001V10.062H63.3661ZM73.0106 2.412V0.507999H77.9406V2.412H73.0106ZM77.7196 3.5H79.3516V12H77.2096V7.172L73.2146 12H71.5826V3.5H73.7246V8.328L77.7196 3.5ZM93.2279 12H90.6779L87.5839 8.141V12H85.3909V3.5H87.5839V7.24L90.5079 3.5H93.1259L89.7089 7.699L93.2279 12ZM100.84 10.946C99.9676 11.8073 98.9023 12.238 97.6443 12.238C96.3863 12.238 95.321 11.8073 94.4483 10.946C93.587 10.0733 93.1563 9.008 93.1563 7.75C93.1563 6.492 93.587 5.43233 94.4483 4.571C95.321 3.69833 96.3863 3.262 97.6443 3.262C98.9023 3.262 99.9676 3.69833 100.84 4.571C101.713 5.43233 102.149 6.492 102.149 7.75C102.149 9.008 101.713 10.0733 100.84 10.946ZM95.9953 9.433C96.4373 9.875 96.987 10.096 97.6443 10.096C98.3016 10.096 98.8513 9.875 99.2933 9.433C99.7353 8.991 99.9563 8.43 99.9563 7.75C99.9563 7.07 99.7353 6.509 99.2933 6.067C98.8513 5.625 98.3016 5.404 97.6443 5.404C96.987 5.404 96.4373 5.625 95.9953 6.067C95.5646 6.509 95.3493 7.07 95.3493 7.75C95.3493 8.43 95.5646 8.991 95.9953 9.433ZM110.9 9.943H112.022V14.278H109.88V12H104.61V14.278H102.468V9.943H103.505C103.992 9.21767 104.236 8.21467 104.236 6.934V3.5H110.9V9.943ZM105.851 9.943H108.758V5.472H106.378V6.934C106.378 8.13533 106.202 9.13833 105.851 9.943Z" fill="black"/>
</svg>
