<svg width="131" height="9" viewBox="0 0 131 9" fill="none" xmlns="http://www.w3.org/2000/svg">
<path d="M5.61 8V2.258L1.65 8H0.825V0.299999H1.848V6.053L5.808 0.299999H6.633V8H5.61ZM13.669 2.5V8H12.734V4.007L10.985 6.823H10.864L9.11498 4.007V8H8.16898V2.5H9.19198L10.919 5.283L12.646 2.5H13.669ZM19.2318 2.5V8H18.2858V6.02H17.4828L15.9428 8H14.7768L16.3828 5.965C15.9721 5.86233 15.6385 5.657 15.3818 5.349C15.1251 5.041 14.9968 4.68167 14.9968 4.271C14.9968 3.765 15.1765 3.34333 15.5358 3.006C15.8951 2.66867 16.3461 2.5 16.8888 2.5H19.2318ZM16.9218 5.162H18.2858V3.391H16.9218C16.6505 3.391 16.4195 3.47167 16.2288 3.633C16.0381 3.79433 15.9428 4.01067 15.9428 4.282C15.9428 4.546 16.0381 4.75867 16.2288 4.92C16.4195 5.08133 16.6505 5.162 16.9218 5.162ZM28.1711 2.5V8H27.2141V3.413H24.3651V8H23.4081V2.5H28.1711ZM34.2577 7.307C33.693 7.86433 33.0074 8.143 32.2007 8.143C31.394 8.143 30.7084 7.86433 30.1437 7.307C29.5864 6.74967 29.3077 6.064 29.3077 5.25C29.3077 4.436 29.5864 3.75033 30.1437 3.193C30.7084 2.63567 31.394 2.357 32.2007 2.357C33.0074 2.357 33.693 2.63567 34.2577 3.193C34.8224 3.75033 35.1047 4.436 35.1047 5.25C35.1047 6.064 34.8224 6.74967 34.2577 7.307ZM32.2007 7.208C32.7507 7.208 33.2127 7.021 33.5867 6.647C33.9607 6.273 34.1477 5.80733 34.1477 5.25C34.1477 4.69267 33.9607 4.227 33.5867 3.853C33.2127 3.479 32.7507 3.292 32.2007 3.292C31.658 3.292 31.1997 3.479 30.8257 3.853C30.4517 4.227 30.2647 4.69267 30.2647 5.25C30.2647 5.80733 30.4517 6.273 30.8257 6.647C31.1997 7.021 31.658 7.208 32.2007 7.208ZM40.6144 2.5V8H39.6574V3.424H37.4904V5.668C37.4904 6.57 37.3071 7.20067 36.9404 7.56C36.5811 7.912 36.0714 8.05867 35.4114 8V7.098C35.7854 7.14933 36.0641 7.06867 36.2474 6.856C36.4381 6.636 36.5334 6.23267 36.5334 5.646V2.5H40.6144ZM44.3734 4.48C44.9234 4.48 45.3781 4.645 45.7374 4.975C46.1041 5.29767 46.2874 5.71933 46.2874 6.24C46.2874 6.76067 46.1041 7.186 45.7374 7.516C45.3781 7.83867 44.9234 8 44.3734 8H42.0524V2.5H43.0094V4.48H44.3734ZM44.3734 7.109C44.6448 7.109 44.8721 7.032 45.0554 6.878C45.2461 6.71667 45.3414 6.504 45.3414 6.24C45.3414 5.976 45.2461 5.76333 45.0554 5.602C44.8721 5.44067 44.6448 5.36 44.3734 5.36H43.0094V7.109H44.3734ZM50.1558 5.184C50.7645 5.43333 51.0688 5.86967 51.0688 6.493C51.0688 6.955 50.8855 7.34733 50.5188 7.67C50.1522 7.98533 49.6315 8.143 48.9568 8.143C47.8568 8.143 47.1198 7.703 46.7458 6.823L47.5488 6.35C47.7615 6.95133 48.2345 7.252 48.9678 7.252C49.3345 7.252 49.6168 7.175 49.8148 7.021C50.0202 6.85967 50.1228 6.65433 50.1228 6.405C50.1228 6.185 50.0385 6.00533 49.8698 5.866C49.7085 5.72667 49.4885 5.657 49.2098 5.657H48.4068V4.788H49.0008C49.2795 4.788 49.4958 4.722 49.6498 4.59C49.8038 4.45067 49.8808 4.26367 49.8808 4.029C49.8808 3.79433 49.7892 3.60367 49.6058 3.457C49.4298 3.31033 49.1842 3.237 48.8688 3.237C48.2528 3.237 47.8348 3.49733 47.6148 4.018L46.8338 3.567C47.2225 2.76033 47.9008 2.357 48.8688 2.357C49.4702 2.357 49.9432 2.511 50.2878 2.819C50.6398 3.127 50.8158 3.50467 50.8158 3.952C50.8158 4.50933 50.5958 4.92 50.1558 5.184ZM56.7357 7.307C56.171 7.86433 55.4853 8.143 54.6787 8.143C53.872 8.143 53.1863 7.86433 52.6217 7.307C52.0643 6.74967 51.7857 6.064 51.7857 5.25C51.7857 4.436 52.0643 3.75033 52.6217 3.193C53.1863 2.63567 53.872 2.357 54.6787 2.357C55.4853 2.357 56.171 2.63567 56.7357 3.193C57.3003 3.75033 57.5827 4.436 57.5827 5.25C57.5827 6.064 57.3003 6.74967 56.7357 7.307ZM54.6787 7.208C55.2287 7.208 55.6907 7.021 56.0647 6.647C56.4387 6.273 56.6257 5.80733 56.6257 5.25C56.6257 4.69267 56.4387 4.227 56.0647 3.853C55.6907 3.479 55.2287 3.292 54.6787 3.292C54.136 3.292 53.6777 3.479 53.3037 3.853C52.9297 4.227 52.7427 4.69267 52.7427 5.25C52.7427 5.80733 52.9297 6.273 53.3037 6.647C53.6777 7.021 54.136 7.208 54.6787 7.208ZM62.3618 5.173C62.9264 5.40767 63.2088 5.833 63.2088 6.449C63.2088 6.90367 63.0548 7.27767 62.7468 7.571C62.4461 7.857 62.0134 8 61.4488 8H58.6988V2.5H61.2288C61.7788 2.5 62.2041 2.63933 62.5048 2.918C62.8054 3.18933 62.9558 3.54867 62.9558 3.996C62.9558 4.524 62.7578 4.91633 62.3618 5.173ZM61.1848 3.358H59.6338V4.799H61.1848C61.7421 4.799 62.0208 4.55333 62.0208 4.062C62.0208 3.59267 61.7421 3.358 61.1848 3.358ZM61.3938 7.131C61.6724 7.131 61.8851 7.065 62.0318 6.933C62.1858 6.801 62.2628 6.614 62.2628 6.372C62.2628 6.14467 62.1858 5.96867 62.0318 5.844C61.8851 5.712 61.6724 5.646 61.3938 5.646H59.6338V7.131H61.3938ZM68.7836 2.5H69.7406V8H68.7836V7.054C68.307 7.78 67.614 8.143 66.7046 8.143C65.9346 8.143 65.2783 7.86433 64.7356 7.307C64.193 6.74233 63.9216 6.05667 63.9216 5.25C63.9216 4.44333 64.193 3.76133 64.7356 3.204C65.2783 2.63933 65.9346 2.357 66.7046 2.357C67.614 2.357 68.307 2.72 68.7836 3.446V2.5ZM66.8256 7.219C67.383 7.219 67.8486 7.032 68.2226 6.658C68.5966 6.27667 68.7836 5.80733 68.7836 5.25C68.7836 4.69267 68.5966 4.227 68.2226 3.853C67.8486 3.47167 67.383 3.281 66.8256 3.281C66.2756 3.281 65.8136 3.47167 65.4396 3.853C65.0656 4.227 64.8786 4.69267 64.8786 5.25C64.8786 5.80733 65.0656 6.27667 65.4396 6.658C65.8136 7.032 66.2756 7.219 66.8256 7.219ZM75.2705 2.5V3.424H73.4005V8H72.4435V3.424H70.5625V2.5H75.2705ZM76.5532 5.69C76.6485 6.18133 76.8722 6.56267 77.2242 6.834C77.5835 7.10533 78.0235 7.241 78.5442 7.241C79.2702 7.241 79.7982 6.97333 80.1282 6.438L80.9422 6.9C80.4068 7.72867 79.6002 8.143 78.5222 8.143C77.6495 8.143 76.9382 7.87167 76.3882 7.329C75.8455 6.779 75.5742 6.086 75.5742 5.25C75.5742 4.42133 75.8418 3.732 76.3772 3.182C76.9125 2.632 77.6055 2.357 78.4562 2.357C79.2628 2.357 79.9192 2.643 80.4252 3.215C80.9385 3.77967 81.1952 4.46167 81.1952 5.261C81.1952 5.40033 81.1842 5.54333 81.1622 5.69H76.5532ZM78.4562 3.259C77.9428 3.259 77.5175 3.40567 77.1802 3.699C76.8428 3.985 76.6338 4.37 76.5532 4.854H80.2272C80.1465 4.33333 79.9412 3.93733 79.6112 3.666C79.2812 3.39467 78.8962 3.259 78.4562 3.259ZM86.6553 2.5V8H85.6983V3.424H83.5313V5.668C83.5313 6.57 83.348 7.20067 82.9813 7.56C82.622 7.912 82.1123 8.05867 81.4523 8V7.098C81.8263 7.14933 82.105 7.06867 82.2883 6.856C82.479 6.636 82.5743 6.23267 82.5743 5.646V2.5H86.6553ZM92.2073 2.5V8H91.2613V6.02H90.4583L88.9183 8H87.7523L89.3583 5.965C88.9477 5.86233 88.614 5.657 88.3573 5.349C88.1007 5.041 87.9723 4.68167 87.9723 4.271C87.9723 3.765 88.152 3.34333 88.5113 3.006C88.8707 2.66867 89.3217 2.5 89.8643 2.5H92.2073ZM89.8973 5.162H91.2613V3.391H89.8973C89.626 3.391 89.395 3.47167 89.2043 3.633C89.0137 3.79433 88.9183 4.01067 88.9183 4.282C88.9183 4.546 89.0137 4.75867 89.2043 4.92C89.395 5.08133 89.626 5.162 89.8973 5.162ZM99.3536 5.184C99.9622 5.43333 100.267 5.86967 100.267 6.493C100.267 6.955 100.083 7.34733 99.7166 7.67C99.3499 7.98533 98.8292 8.143 98.1546 8.143C97.0546 8.143 96.3176 7.703 95.9436 6.823L96.7466 6.35C96.9592 6.95133 97.4322 7.252 98.1656 7.252C98.5322 7.252 98.8146 7.175 99.0126 7.021C99.2179 6.85967 99.3206 6.65433 99.3206 6.405C99.3206 6.185 99.2362 6.00533 99.0676 5.866C98.9062 5.72667 98.6862 5.657 98.4076 5.657H97.6046V4.788H98.1986C98.4772 4.788 98.6936 4.722 98.8476 4.59C99.0016 4.45067 99.0786 4.26367 99.0786 4.029C99.0786 3.79433 98.9869 3.60367 98.8036 3.457C98.6276 3.31033 98.3819 3.237 98.0666 3.237C97.4506 3.237 97.0326 3.49733 96.8126 4.018L96.0316 3.567C96.4202 2.76033 97.0986 2.357 98.0666 2.357C98.6679 2.357 99.1409 2.511 99.4856 2.819C99.8376 3.127 100.014 3.50467 100.014 3.952C100.014 4.50933 99.7936 4.92 99.3536 5.184ZM105.845 2.5H106.802V8H105.845V7.054C105.369 7.78 104.676 8.143 103.766 8.143C102.996 8.143 102.34 7.86433 101.797 7.307C101.255 6.74233 100.983 6.05667 100.983 5.25C100.983 4.44333 101.255 3.76133 101.797 3.204C102.34 2.63933 102.996 2.357 103.766 2.357C104.676 2.357 105.369 2.72 105.845 3.446V2.5ZM103.887 7.219C104.445 7.219 104.91 7.032 105.284 6.658C105.658 6.27667 105.845 5.80733 105.845 5.25C105.845 4.69267 105.658 4.227 105.284 3.853C104.91 3.47167 104.445 3.281 103.887 3.281C103.337 3.281 102.875 3.47167 102.501 3.853C102.127 4.227 101.94 4.69267 101.94 5.25C101.94 5.80733 102.127 6.27667 102.501 6.658C102.875 7.032 103.337 7.219 103.887 7.219ZM112.046 2.5H113.003V8H112.046V5.701H109.197V8H108.24V2.5H109.197V4.788H112.046V2.5ZM118.562 2.5V8H117.616V6.02H116.813L115.273 8H114.107L115.713 5.965C115.302 5.86233 114.969 5.657 114.712 5.349C114.455 5.041 114.327 4.68167 114.327 4.271C114.327 3.765 114.507 3.34333 114.866 3.006C115.225 2.66867 115.676 2.5 116.219 2.5H118.562ZM116.252 5.162H117.616V3.391H116.252C115.981 3.391 115.75 3.47167 115.559 3.633C115.368 3.79433 115.273 4.01067 115.273 4.282C115.273 4.546 115.368 4.75867 115.559 4.92C115.75 5.08133 115.981 5.162 116.252 5.162ZM124.092 2.5V3.424H122.222V8H121.265V3.424H119.384V2.5H124.092ZM129.346 7.307C128.781 7.86433 128.096 8.143 127.289 8.143C126.482 8.143 125.797 7.86433 125.232 7.307C124.675 6.74967 124.396 6.064 124.396 5.25C124.396 4.436 124.675 3.75033 125.232 3.193C125.797 2.63567 126.482 2.357 127.289 2.357C128.096 2.357 128.781 2.63567 129.346 3.193C129.911 3.75033 130.193 4.436 130.193 5.25C130.193 6.064 129.911 6.74967 129.346 7.307ZM127.289 7.208C127.839 7.208 128.301 7.021 128.675 6.647C129.049 6.273 129.236 5.80733 129.236 5.25C129.236 4.69267 129.049 4.227 128.675 3.853C128.301 3.479 127.839 3.292 127.289 3.292C126.746 3.292 126.288 3.479 125.914 3.853C125.54 4.227 125.353 4.69267 125.353 5.25C125.353 5.80733 125.54 6.273 125.914 6.647C126.288 7.021 126.746 7.208 127.289 7.208Z" fill="#FF4745"/>
</svg>
