<svg width="341" height="30" viewBox="0 0 341 30" fill="none" xmlns="http://www.w3.org/2000/svg">
<path d="M7.605 0.899999V10H6.11V2.33H2.405V10H0.91V0.899999H7.605ZM13.0166 3.331C13.9092 3.331 14.6719 3.66467 15.3046 4.332C15.9372 4.99067 16.2536 5.79667 16.2536 6.75C16.2536 7.712 15.9372 8.52233 15.3046 9.181C14.6719 9.83967 13.9092 10.169 13.0166 10.169C12.0286 10.169 11.2702 9.805 10.7416 9.077V12.6H9.33755V3.5H10.7416V4.436C11.2702 3.69933 12.0286 3.331 13.0166 3.331ZM11.3266 8.245C11.7166 8.635 12.2062 8.83 12.7956 8.83C13.3849 8.83 13.8746 8.635 14.2646 8.245C14.6546 7.84633 14.8496 7.348 14.8496 6.75C14.8496 6.152 14.6546 5.658 14.2646 5.268C13.8746 4.86933 13.3849 4.67 12.7956 4.67C12.2062 4.67 11.7166 4.86933 11.3266 5.268C10.9366 5.658 10.7416 6.152 10.7416 6.75C10.7416 7.348 10.9366 7.84633 11.3266 8.245ZM20.594 10.169C19.6407 10.169 18.8304 9.83967 18.163 9.181C17.4957 8.52233 17.162 7.712 17.162 6.75C17.162 5.788 17.4957 4.97767 18.163 4.319C18.8304 3.66033 19.6407 3.331 20.594 3.331C21.556 3.331 22.3664 3.66033 23.025 4.319C23.6924 4.97767 24.026 5.788 24.026 6.75C24.026 7.712 23.6924 8.52233 23.025 9.181C22.3664 9.83967 21.556 10.169 20.594 10.169ZM19.151 8.219C19.541 8.609 20.022 8.804 20.594 8.804C21.166 8.804 21.647 8.609 22.037 8.219C22.427 7.829 22.622 7.33933 22.622 6.75C22.622 6.16067 22.427 5.671 22.037 5.281C21.647 4.891 21.166 4.696 20.594 4.696C20.022 4.696 19.541 4.891 19.151 5.281C18.761 5.671 18.566 6.16067 18.566 6.75C18.566 7.33933 18.761 7.829 19.151 8.219ZM30.7617 8.674H31.6327V11.742H30.2547V10H25.7957V11.742H24.4177V8.674H25.2107C25.6093 8.11067 25.8087 7.32633 25.8087 6.321V3.5H30.7617V8.674ZM26.7577 8.674H29.3837V4.787H27.1867V6.321C27.1867 7.24833 27.0437 8.03267 26.7577 8.674ZM35.5872 10.169C34.6339 10.169 33.8235 9.83967 33.1562 9.181C32.4889 8.52233 32.1552 7.712 32.1552 6.75C32.1552 5.788 32.4889 4.97767 33.1562 4.319C33.8235 3.66033 34.6339 3.331 35.5872 3.331C36.5492 3.331 37.3595 3.66033 38.0182 4.319C38.6855 4.97767 39.0192 5.788 39.0192 6.75C39.0192 7.712 38.6855 8.52233 38.0182 9.181C37.3595 9.83967 36.5492 10.169 35.5872 10.169ZM34.1442 8.219C34.5342 8.609 35.0152 8.804 35.5872 8.804C36.1592 8.804 36.6402 8.609 37.0302 8.219C37.4202 7.829 37.6152 7.33933 37.6152 6.75C37.6152 6.16067 37.4202 5.671 37.0302 5.281C36.6402 4.891 36.1592 4.696 35.5872 4.696C35.0152 4.696 34.5342 4.891 34.1442 5.281C33.7542 5.671 33.5592 6.16067 33.5592 6.75C33.5592 7.33933 33.7542 7.829 34.1442 8.219ZM45.5843 3.5V10H44.1803V4.852H42.0093V7.27C42.0093 8.30133 41.784 9.03367 41.3333 9.467C40.8826 9.90033 40.2413 10.078 39.4093 10V8.687C39.808 8.75633 40.107 8.674 40.3063 8.44C40.5056 8.206 40.6053 7.79433 40.6053 7.205V3.5H45.5843ZM55.5924 10H53.9934L51.7834 6.997V10H50.4054V7.023L48.1954 10H46.5964L49.1314 6.685L46.7264 3.5H48.3254L50.4054 6.347V3.5H51.7834V6.36L53.8634 3.5H55.4624L53.0574 6.685L55.5924 10ZM61.2297 3.5H62.6337V10H61.2297V9.064C60.701 9.80067 59.9427 10.169 58.9547 10.169C58.062 10.169 57.2994 9.83967 56.6667 9.181C56.034 8.51367 55.7177 7.70333 55.7177 6.75C55.7177 5.788 56.034 4.97767 56.6667 4.319C57.2994 3.66033 58.062 3.331 58.9547 3.331C59.9427 3.331 60.701 3.695 61.2297 4.423V3.5ZM57.7067 8.245C58.0967 8.635 58.5864 8.83 59.1757 8.83C59.765 8.83 60.2547 8.635 60.6447 8.245C61.0347 7.84633 61.2297 7.348 61.2297 6.75C61.2297 6.152 61.0347 5.658 60.6447 5.268C60.2547 4.86933 59.765 4.67 59.1757 4.67C58.5864 4.67 58.0967 4.86933 57.7067 5.268C57.3167 5.658 57.1217 6.152 57.1217 6.75C57.1217 7.348 57.3167 7.84633 57.7067 8.245ZM69.3012 3.5V10H67.9232V7.816H67.1432L65.4922 10H63.8412L65.5962 7.686C65.1455 7.53867 64.7815 7.27867 64.5042 6.906C64.2355 6.53333 64.1012 6.11733 64.1012 5.658C64.1012 5.06 64.3135 4.553 64.7382 4.137C65.1715 3.71233 65.7262 3.5 66.4022 3.5H69.3012ZM66.4802 6.607H67.9232V4.774H66.4802C66.1942 4.774 65.9558 4.85633 65.7652 5.021C65.5745 5.18567 65.4792 5.411 65.4792 5.697C65.4792 5.97433 65.5745 6.19533 65.7652 6.36C65.9558 6.52467 66.1942 6.607 66.4802 6.607ZM72.8852 8.44L71.9752 11.82H70.8052L71.3252 8.44H72.8852ZM82.1236 6.659C82.765 6.95367 83.0856 7.452 83.0856 8.154C83.0856 8.7 82.8993 9.14633 82.5266 9.493C82.1626 9.831 81.6383 10 80.9536 10H77.6256V3.5H80.6936C81.361 3.5 81.8766 3.669 82.2406 4.007C82.6133 4.33633 82.7996 4.76533 82.7996 5.294C82.7996 5.90933 82.5743 6.36433 82.1236 6.659ZM80.5896 4.696H78.9646V6.139H80.5896C81.1616 6.139 81.4476 5.89633 81.4476 5.411C81.4476 4.93433 81.1616 4.696 80.5896 4.696ZM80.8236 8.778C81.413 8.778 81.7076 8.52233 81.7076 8.011C81.7076 7.78567 81.6296 7.61233 81.4736 7.491C81.3176 7.361 81.101 7.296 80.8236 7.296H78.9646V8.778H80.8236ZM87.0612 5.71C87.7545 5.71 88.3222 5.90933 88.7642 6.308C89.2062 6.698 89.4272 7.21367 89.4272 7.855C89.4272 8.48767 89.2062 9.00333 88.7642 9.402C88.3222 9.80067 87.7545 10 87.0612 10H84.2272V3.5H85.6312V5.71H87.0612ZM90.2072 3.5H91.6112V10H90.2072V3.5ZM87.0742 8.739C87.3515 8.739 87.5812 8.65667 87.7632 8.492C87.9539 8.32733 88.0492 8.115 88.0492 7.855C88.0492 7.58633 87.9539 7.374 87.7632 7.218C87.5812 7.05333 87.3515 6.971 87.0742 6.971H85.6312V8.739H87.0742ZM99.5589 10.169C98.5795 10.169 97.7605 9.83967 97.1019 9.181C96.4519 8.52233 96.1269 7.712 96.1269 6.75C96.1269 5.77933 96.4519 4.969 97.1019 4.319C97.7605 3.66033 98.5795 3.331 99.5589 3.331C100.192 3.331 100.768 3.48267 101.288 3.786C101.808 4.08933 102.198 4.49667 102.458 5.008L101.249 5.71C101.102 5.398 100.876 5.15533 100.573 4.982C100.278 4.8 99.9359 4.709 99.5459 4.709C98.9739 4.709 98.4929 4.904 98.1029 5.294C97.7215 5.684 97.5309 6.16933 97.5309 6.75C97.5309 7.33067 97.7215 7.816 98.1029 8.206C98.4929 8.596 98.9739 8.791 99.5459 8.791C99.9272 8.791 100.27 8.7 100.573 8.518C100.885 8.336 101.119 8.09333 101.275 7.79L102.484 8.479C102.207 8.999 101.808 9.41067 101.288 9.714C100.768 10.0173 100.192 10.169 99.5589 10.169ZM106.465 10.169C105.512 10.169 104.701 9.83967 104.034 9.181C103.367 8.52233 103.033 7.712 103.033 6.75C103.033 5.788 103.367 4.97767 104.034 4.319C104.701 3.66033 105.512 3.331 106.465 3.331C107.427 3.331 108.237 3.66033 108.896 4.319C109.563 4.97767 109.897 5.788 109.897 6.75C109.897 7.712 109.563 8.52233 108.896 9.181C108.237 9.83967 107.427 10.169 106.465 10.169ZM105.022 8.219C105.412 8.609 105.893 8.804 106.465 8.804C107.037 8.804 107.518 8.609 107.908 8.219C108.298 7.829 108.493 7.33933 108.493 6.75C108.493 6.16067 108.298 5.671 107.908 5.281C107.518 4.891 107.037 4.696 106.465 4.696C105.893 4.696 105.412 4.891 105.022 5.281C104.632 5.671 104.437 6.16067 104.437 6.75C104.437 7.33933 104.632 7.829 105.022 8.219ZM115.522 3.5V4.852H112.571V10H111.167V3.5H115.522ZM121.566 3.5V10H120.162V4.852H117.991V7.27C117.991 8.30133 117.765 9.03367 117.315 9.467C116.864 9.90033 116.223 10.078 115.391 10V8.687C115.789 8.75633 116.088 8.674 116.288 8.44C116.487 8.206 116.587 7.79433 116.587 7.205V3.5H121.566ZM128.35 3.5H129.754V10H128.35V9.064C127.821 9.80067 127.063 10.169 126.075 10.169C125.182 10.169 124.419 9.83967 123.787 9.181C123.154 8.51367 122.838 7.70333 122.838 6.75C122.838 5.788 123.154 4.97767 123.787 4.319C124.419 3.66033 125.182 3.331 126.075 3.331C127.063 3.331 127.821 3.695 128.35 4.423V3.5ZM124.827 8.245C125.217 8.635 125.706 8.83 126.296 8.83C126.885 8.83 127.375 8.635 127.765 8.245C128.155 7.84633 128.35 7.348 128.35 6.75C128.35 6.152 128.155 5.658 127.765 5.268C127.375 4.86933 126.885 4.67 126.296 4.67C125.706 4.67 125.217 4.86933 124.827 5.268C124.437 5.658 124.242 6.152 124.242 6.75C124.242 7.348 124.437 7.84633 124.827 8.245ZM139.086 3.5H140.49V10H131.39V3.5H132.794V8.674H135.238V3.5H136.642V8.674H139.086V3.5ZM147.266 3.5H148.67V10H147.266V9.064C146.737 9.80067 145.979 10.169 144.991 10.169C144.098 10.169 143.335 9.83967 142.703 9.181C142.07 8.51367 141.754 7.70333 141.754 6.75C141.754 5.788 142.07 4.97767 142.703 4.319C143.335 3.66033 144.098 3.331 144.991 3.331C145.979 3.331 146.737 3.695 147.266 4.423V3.5ZM143.743 8.245C144.133 8.635 144.622 8.83 145.212 8.83C145.801 8.83 146.291 8.635 146.681 8.245C147.071 7.84633 147.266 7.348 147.266 6.75C147.266 6.152 147.071 5.658 146.681 5.268C146.291 4.86933 145.801 4.67 145.212 4.67C144.622 4.67 144.133 4.86933 143.743 5.268C143.353 5.658 143.158 6.152 143.158 6.75C143.158 7.348 143.353 7.84633 143.743 8.245ZM151.411 7.348C151.515 7.842 151.754 8.22333 152.126 8.492C152.499 8.752 152.954 8.882 153.491 8.882C154.237 8.882 154.796 8.61333 155.168 8.076L156.325 8.752C155.684 9.69667 154.735 10.169 153.478 10.169C152.421 10.169 151.567 9.84833 150.917 9.207C150.267 8.557 149.942 7.738 149.942 6.75C149.942 5.77933 150.263 4.969 150.904 4.319C151.546 3.66033 152.369 3.331 153.374 3.331C154.328 3.331 155.108 3.66467 155.714 4.332C156.33 4.99933 156.637 5.80967 156.637 6.763C156.637 6.91033 156.62 7.10533 156.585 7.348H151.411ZM151.398 6.204H155.22C155.125 5.67533 154.904 5.27667 154.557 5.008C154.219 4.73933 153.821 4.605 153.361 4.605C152.841 4.605 152.408 4.748 152.061 5.034C151.715 5.32 151.494 5.71 151.398 6.204ZM162.585 3.5V4.852H160.466V10H159.062V4.852H156.93V3.5H162.585ZM164.386 7.348C164.49 7.842 164.728 8.22333 165.101 8.492C165.474 8.752 165.929 8.882 166.466 8.882C167.211 8.882 167.77 8.61333 168.143 8.076L169.3 8.752C168.659 9.69667 167.71 10.169 166.453 10.169C165.396 10.169 164.542 9.84833 163.892 9.207C163.242 8.557 162.917 7.738 162.917 6.75C162.917 5.77933 163.238 4.969 163.879 4.319C164.52 3.66033 165.344 3.331 166.349 3.331C167.302 3.331 168.082 3.66467 168.689 4.332C169.304 4.99933 169.612 5.80967 169.612 6.763C169.612 6.91033 169.595 7.10533 169.56 7.348H164.386ZM164.373 6.204H168.195C168.1 5.67533 167.879 5.27667 167.532 5.008C167.194 4.73933 166.795 4.605 166.336 4.605C165.816 4.605 165.383 4.748 165.036 5.034C164.689 5.32 164.468 5.71 164.373 6.204ZM173.877 10.169C172.898 10.169 172.079 9.83967 171.42 9.181C170.77 8.52233 170.445 7.712 170.445 6.75C170.445 5.77933 170.77 4.969 171.42 4.319C172.079 3.66033 172.898 3.331 173.877 3.331C174.51 3.331 175.086 3.48267 175.606 3.786C176.126 4.08933 176.516 4.49667 176.776 5.008L175.567 5.71C175.42 5.398 175.195 5.15533 174.891 4.982C174.597 4.8 174.254 4.709 173.864 4.709C173.292 4.709 172.811 4.904 172.421 5.294C172.04 5.684 171.849 6.16933 171.849 6.75C171.849 7.33067 172.04 7.816 172.421 8.206C172.811 8.596 173.292 8.791 173.864 8.791C174.246 8.791 174.588 8.7 174.891 8.518C175.203 8.336 175.437 8.09333 175.593 7.79L176.802 8.479C176.525 8.999 176.126 9.41067 175.606 9.714C175.086 10.0173 174.51 10.169 173.877 10.169ZM180.689 5.71C181.382 5.71 181.95 5.90933 182.392 6.308C182.834 6.698 183.055 7.21367 183.055 7.855C183.055 8.48767 182.834 9.00333 182.392 9.402C181.95 9.80067 181.382 10 180.689 10H177.855V3.5H179.259V5.71H180.689ZM180.702 8.739C180.979 8.739 181.209 8.65667 181.391 8.492C181.582 8.32733 181.677 8.115 181.677 7.855C181.677 7.58633 181.582 7.374 181.391 7.218C181.209 7.05333 180.979 6.971 180.702 6.971H179.259V8.739H180.702ZM190.521 10.169C189.541 10.169 188.722 9.83967 188.064 9.181C187.414 8.52233 187.089 7.712 187.089 6.75C187.089 5.77933 187.414 4.969 188.064 4.319C188.722 3.66033 189.541 3.331 190.521 3.331C191.153 3.331 191.73 3.48267 192.25 3.786C192.77 4.08933 193.16 4.49667 193.42 5.008L192.211 5.71C192.063 5.398 191.838 5.15533 191.535 4.982C191.24 4.8 190.898 4.709 190.508 4.709C189.936 4.709 189.455 4.904 189.065 5.294C188.683 5.684 188.493 6.16933 188.493 6.75C188.493 7.33067 188.683 7.816 189.065 8.206C189.455 8.596 189.936 8.791 190.508 8.791C190.889 8.791 191.231 8.7 191.535 8.518C191.847 8.336 192.081 8.09333 192.237 7.79L193.446 8.479C193.168 8.999 192.77 9.41067 192.25 9.714C191.73 10.0173 191.153 10.169 190.521 10.169ZM270.552 3.5H271.631V10H270.253V5.866L266.925 10H265.846V3.5H267.224V7.621L270.552 3.5ZM142.241 20.5V27H140.837V21.826H137.86V27H136.456V20.5H142.241ZM147.549 20.331C148.441 20.331 149.204 20.6647 149.837 21.332C150.469 21.9907 150.786 22.7967 150.786 23.75C150.786 24.712 150.469 25.5223 149.837 26.181C149.204 26.8397 148.441 27.169 147.549 27.169C146.561 27.169 145.802 26.805 145.274 26.077V29.6H143.87V20.5H145.274V21.436C145.802 20.6993 146.561 20.331 147.549 20.331ZM145.859 25.245C146.249 25.635 146.738 25.83 147.328 25.83C147.917 25.83 148.407 25.635 148.797 25.245C149.187 24.8463 149.382 24.348 149.382 23.75C149.382 23.152 149.187 22.658 148.797 22.268C148.407 21.8693 147.917 21.67 147.328 21.67C146.738 21.67 146.249 21.8693 145.859 22.268C145.469 22.658 145.274 23.152 145.274 23.75C145.274 24.348 145.469 24.8463 145.859 25.245ZM156.764 20.5H157.843V27H156.465V22.866L153.137 27H152.058V20.5H153.436V24.621L156.764 20.5ZM164.958 20.5V27H163.554V21.852H161.383V24.27C161.383 25.3013 161.158 26.0337 160.707 26.467C160.257 26.9003 159.615 27.078 158.783 27V25.687C159.182 25.7563 159.481 25.674 159.68 25.44C159.88 25.206 159.979 24.7943 159.979 24.205V20.5H164.958ZM169.662 27.169C168.709 27.169 167.899 26.8397 167.231 26.181C166.564 25.5223 166.23 24.712 166.23 23.75C166.23 22.788 166.564 21.9777 167.231 21.319C167.899 20.6603 168.709 20.331 169.662 20.331C170.624 20.331 171.435 20.6603 172.093 21.319C172.761 21.9777 173.094 22.788 173.094 23.75C173.094 24.712 172.761 25.5223 172.093 26.181C171.435 26.8397 170.624 27.169 169.662 27.169ZM168.219 25.219C168.609 25.609 169.09 25.804 169.662 25.804C170.234 25.804 170.715 25.609 171.105 25.219C171.495 24.829 171.69 24.3393 171.69 23.75C171.69 23.1607 171.495 22.671 171.105 22.281C170.715 21.891 170.234 21.696 169.662 21.696C169.09 21.696 168.609 21.891 168.219 22.281C167.829 22.671 167.634 23.1607 167.634 23.75C167.634 24.3393 167.829 24.829 168.219 25.219ZM182.215 27H180.616L178.406 23.997V27H177.028V24.023L174.818 27H173.219L175.754 23.685L173.349 20.5H174.948L177.028 23.347V20.5H178.406V23.36L180.486 20.5H182.085L179.68 23.685L182.215 27ZM183.81 24.348C183.914 24.842 184.152 25.2233 184.525 25.492C184.897 25.752 185.352 25.882 185.89 25.882C186.635 25.882 187.194 25.6133 187.567 25.076L188.724 25.752C188.082 26.6967 187.133 27.169 185.877 27.169C184.819 27.169 183.966 26.8483 183.316 26.207C182.666 25.557 182.341 24.738 182.341 23.75C182.341 22.7793 182.661 21.969 183.303 21.319C183.944 20.6603 184.767 20.331 185.773 20.331C186.726 20.331 187.506 20.6647 188.113 21.332C188.728 21.9993 189.036 22.8097 189.036 23.763C189.036 23.9103 189.018 24.1053 188.984 24.348H183.81ZM183.797 23.204H187.619C187.523 22.6753 187.302 22.2767 186.956 22.008C186.618 21.7393 186.219 21.605 185.76 21.605C185.24 21.605 184.806 21.748 184.46 22.034C184.113 22.32 183.892 22.71 183.797 23.204ZM194.652 20.5H196.056V27H194.652V24.413H191.675V27H190.271V20.5H191.675V23.087H194.652V20.5ZM202.391 20.5H203.47V27H202.092V22.866L198.764 27H197.685V20.5H199.063V24.621L202.391 20.5ZM210.13 20.5V27H208.752V24.816H207.972L206.321 27H204.67L206.425 24.686C205.975 24.5387 205.611 24.2787 205.333 23.906C205.065 23.5333 204.93 23.1173 204.93 22.658C204.93 22.06 205.143 21.553 205.567 21.137C206.001 20.7123 206.555 20.5 207.231 20.5H210.13ZM207.309 23.607H208.752V21.774H207.309C207.023 21.774 206.785 21.8563 206.594 22.021C206.404 22.1857 206.308 22.411 206.308 22.697C206.308 22.9743 206.404 23.1953 206.594 23.36C206.785 23.5247 207.023 23.607 207.309 23.607Z" fill="#A7A7B1"/>
<path d="M202.962 0.899999H204.47L201.649 7.66C200.955 9.31533 199.833 10.0953 198.282 10V8.609C198.793 8.661 199.205 8.583 199.517 8.375C199.837 8.167 200.093 7.82033 200.284 7.335L197.255 0.899999H198.763L200.973 5.697L202.962 0.899999ZM207.507 10.169C206.528 10.169 205.709 9.83967 205.05 9.181C204.4 8.52233 204.075 7.712 204.075 6.75C204.075 5.77933 204.4 4.969 205.05 4.319C205.709 3.66033 206.528 3.331 207.507 3.331C208.14 3.331 208.716 3.48267 209.236 3.786C209.756 4.08933 210.146 4.49667 210.406 5.008L209.197 5.71C209.05 5.398 208.824 5.15533 208.521 4.982C208.226 4.8 207.884 4.709 207.494 4.709C206.922 4.709 206.441 4.904 206.051 5.294C205.67 5.684 205.479 6.16933 205.479 6.75C205.479 7.33067 205.67 7.816 206.051 8.206C206.441 8.596 206.922 8.791 207.494 8.791C207.875 8.791 208.218 8.7 208.521 8.518C208.833 8.336 209.067 8.09333 209.223 7.79L210.432 8.479C210.155 8.999 209.756 9.41067 209.236 9.714C208.716 10.0173 208.14 10.169 207.507 10.169ZM216.844 3.5V10H215.44V4.852H213.269V7.27C213.269 8.30133 213.044 9.03367 212.593 9.467C212.142 9.90033 211.501 10.078 210.669 10V8.687C211.068 8.75633 211.367 8.674 211.566 8.44C211.765 8.206 211.865 7.79433 211.865 7.205V3.5H216.844ZM221.548 10.169C220.595 10.169 219.784 9.83967 219.117 9.181C218.45 8.52233 218.116 7.712 218.116 6.75C218.116 5.788 218.45 4.97767 219.117 4.319C219.784 3.66033 220.595 3.331 221.548 3.331C222.51 3.331 223.32 3.66033 223.979 4.319C224.646 4.97767 224.98 5.788 224.98 6.75C224.98 7.712 224.646 8.52233 223.979 9.181C223.32 9.83967 222.51 10.169 221.548 10.169ZM220.105 8.219C220.495 8.609 220.976 8.804 221.548 8.804C222.12 8.804 222.601 8.609 222.991 8.219C223.381 7.829 223.576 7.33933 223.576 6.75C223.576 6.16067 223.381 5.671 222.991 5.281C222.601 4.891 222.12 4.696 221.548 4.696C220.976 4.696 220.495 4.891 220.105 5.281C219.715 5.671 219.52 6.16067 219.52 6.75C219.52 7.33933 219.715 7.829 220.105 8.219ZM230.748 6.659C231.389 6.95367 231.71 7.452 231.71 8.154C231.71 8.7 231.523 9.14633 231.151 9.493C230.787 9.831 230.262 10 229.578 10H226.25V3.5H229.318C229.985 3.5 230.501 3.669 230.865 4.007C231.237 4.33633 231.424 4.76533 231.424 5.294C231.424 5.90933 231.198 6.36433 230.748 6.659ZM229.214 4.696H227.589V6.139H229.214C229.786 6.139 230.072 5.89633 230.072 5.411C230.072 4.93433 229.786 4.696 229.214 4.696ZM229.448 8.778C230.037 8.778 230.332 8.52233 230.332 8.011C230.332 7.78567 230.254 7.61233 230.098 7.491C229.942 7.361 229.725 7.296 229.448 7.296H227.589V8.778H229.448ZM237.557 3.5H238.636V10H237.258V5.866L233.93 10H232.851V3.5H234.229V7.621L237.557 3.5ZM245.296 3.5V10H243.918V7.816H243.138L241.487 10H239.836L241.591 7.686C241.141 7.53867 240.777 7.27867 240.499 6.906C240.231 6.53333 240.096 6.11733 240.096 5.658C240.096 5.06 240.309 4.553 240.733 4.137C241.167 3.71233 241.721 3.5 242.397 3.5H245.296ZM242.475 6.607H243.918V4.774H242.475C242.189 4.774 241.951 4.85633 241.76 5.021C241.57 5.18567 241.474 5.411 241.474 5.697C241.474 5.97433 241.57 6.19533 241.76 6.36C241.951 6.52467 242.189 6.607 242.475 6.607ZM253.56 3.5V10H252.195V5.723L250.323 8.7H250.154L248.295 5.736V10H246.93V3.5H248.36L250.245 6.503L252.13 3.5H253.56ZM259.888 3.5H260.967V10H259.589V5.866L256.261 10H255.182V3.5H256.56V7.621L259.888 3.5ZM283.296 0.899999V10H281.801V2.33H278.096V10H276.601V0.899999H283.296ZM288.097 10.169C287.144 10.169 286.333 9.83967 285.666 9.181C284.999 8.52233 284.665 7.712 284.665 6.75C284.665 5.788 284.999 4.97767 285.666 4.319C286.333 3.66033 287.144 3.331 288.097 3.331C289.059 3.331 289.869 3.66033 290.528 4.319C291.195 4.97767 291.529 5.788 291.529 6.75C291.529 7.712 291.195 8.52233 290.528 9.181C289.869 9.83967 289.059 10.169 288.097 10.169ZM286.654 8.219C287.044 8.609 287.525 8.804 288.097 8.804C288.669 8.804 289.15 8.609 289.54 8.219C289.93 7.829 290.125 7.33933 290.125 6.75C290.125 6.16067 289.93 5.671 289.54 5.281C289.15 4.891 288.669 4.696 288.097 4.696C287.525 4.696 287.044 4.891 286.654 5.281C286.264 5.671 286.069 6.16067 286.069 6.75C286.069 7.33933 286.264 7.829 286.654 8.219ZM298.094 3.5V10H296.69V4.852H294.519V7.27C294.519 8.30133 294.294 9.03367 293.843 9.467C293.392 9.90033 292.751 10.078 291.919 10V8.687C292.318 8.75633 292.617 8.674 292.816 8.44C293.015 8.206 293.115 7.79433 293.115 7.205V3.5H298.094ZM304.436 3.5H305.515V10H304.137V5.866L300.809 10H299.73V3.5H301.108V7.621L304.436 3.5ZM312.11 3.5V4.852H309.991V10H308.587V4.852H306.455V3.5H312.11ZM317.766 3.5H318.845V10H317.467V5.866L314.139 10H313.06V3.5H314.438V7.621L317.766 3.5ZM326.22 10H324.543L321.878 6.997V10H320.474V3.5H321.878V6.373L324.4 3.5H326.116L323.256 6.685L326.22 10ZM329.712 10.169C328.759 10.169 327.949 9.83967 327.281 9.181C326.614 8.52233 326.28 7.712 326.28 6.75C326.28 5.788 326.614 4.97767 327.281 4.319C327.949 3.66033 328.759 3.331 329.712 3.331C330.674 3.331 331.485 3.66033 332.143 4.319C332.811 4.97767 333.144 5.788 333.144 6.75C333.144 7.712 332.811 8.52233 332.143 9.181C331.485 9.83967 330.674 10.169 329.712 10.169ZM328.269 8.219C328.659 8.609 329.14 8.804 329.712 8.804C330.284 8.804 330.765 8.609 331.155 8.219C331.545 7.829 331.74 7.33933 331.74 6.75C331.74 6.16067 331.545 5.671 331.155 5.281C330.765 4.891 330.284 4.696 329.712 4.696C329.14 4.696 328.659 4.891 328.269 5.281C327.879 5.671 327.684 6.16067 327.684 6.75C327.684 7.33933 327.879 7.829 328.269 8.219ZM335.48 2.59V1.368H339.12V2.59H335.48ZM339.12 3.5H340.199V10H338.821V5.866L335.493 10H334.414V3.5H335.792V7.621L339.12 3.5ZM6.565 27H4.888L2.223 23.997V27H0.819V20.5H2.223V23.373L4.745 20.5H6.461L3.601 23.685L6.565 27ZM10.0569 27.169C9.10359 27.169 8.29326 26.8397 7.62592 26.181C6.95859 25.5223 6.62492 24.712 6.62492 23.75C6.62492 22.788 6.95859 21.9777 7.62592 21.319C8.29326 20.6603 9.10359 20.331 10.0569 20.331C11.0189 20.331 11.8293 20.6603 12.4879 21.319C13.1553 21.9777 13.4889 22.788 13.4889 23.75C13.4889 24.712 13.1553 25.5223 12.4879 26.181C11.8293 26.8397 11.0189 27.169 10.0569 27.169ZM8.61392 25.219C9.00392 25.609 9.48492 25.804 10.0569 25.804C10.6289 25.804 11.1099 25.609 11.4999 25.219C11.8899 24.829 12.0849 24.3393 12.0849 23.75C12.0849 23.1607 11.8899 22.671 11.4999 22.281C11.1099 21.891 10.6289 21.696 10.0569 21.696C9.48492 21.696 9.00392 21.891 8.61392 22.281C8.22392 22.671 8.02892 23.1607 8.02892 23.75C8.02892 24.3393 8.22392 24.829 8.61392 25.219ZM19.1395 20.5H20.5435V27H19.1395V24.413H16.1625V27H14.7585V20.5H16.1625V23.087H19.1395V20.5ZM28.8545 21.501C29.4438 22.1163 29.7385 22.866 29.7385 23.75C29.7385 24.634 29.4438 25.3837 28.8545 25.999C28.2652 26.6143 27.4678 26.987 26.4625 27.117V29.6H25.0845V27.117C24.0792 26.987 23.2818 26.6143 22.6925 25.999C22.1032 25.3837 21.8085 24.634 21.8085 23.75C21.8085 22.866 22.1032 22.1163 22.6925 21.501C23.2818 20.8857 24.0792 20.513 25.0845 20.383V17.9H26.4625V20.383C27.4678 20.513 28.2652 20.8857 28.8545 21.501ZM26.4625 25.778C27.0605 25.6653 27.5242 25.4313 27.8535 25.076C28.1828 24.712 28.3475 24.27 28.3475 23.75C28.3475 23.23 28.1828 22.7923 27.8535 22.437C27.5242 22.073 27.0605 21.8347 26.4625 21.722V25.778ZM23.6935 22.437C23.3642 22.801 23.1995 23.2387 23.1995 23.75C23.1995 24.2613 23.3642 24.699 23.6935 25.063C24.0228 25.427 24.4865 25.6653 25.0845 25.778V21.722C24.4865 21.8347 24.0228 22.073 23.6935 22.437ZM35.7145 20.5H36.7935V27H35.4155V22.866L32.0875 27H31.0085V20.5H32.3865V24.621L35.7145 20.5ZM44.1425 25.674H45.0135V28.742H43.6355V27H39.1765V28.742H37.7985V25.674H38.5915C38.9902 25.1107 39.1895 24.3263 39.1895 23.321V20.5H44.1425V25.674ZM40.1385 25.674H42.7645V21.787H40.5675V23.321C40.5675 24.2483 40.4245 25.0327 40.1385 25.674ZM47.0051 24.348C47.1091 24.842 47.3474 25.2233 47.7201 25.492C48.0927 25.752 48.5477 25.882 49.0851 25.882C49.8304 25.882 50.3894 25.6133 50.7621 25.076L51.9191 25.752C51.2777 26.6967 50.3287 27.169 49.0721 27.169C48.0147 27.169 47.1611 26.8483 46.5111 26.207C45.8611 25.557 45.5361 24.738 45.5361 23.75C45.5361 22.7793 45.8567 21.969 46.4981 21.319C47.1394 20.6603 47.9627 20.331 48.9681 20.331C49.9214 20.331 50.7014 20.6647 51.3081 21.332C51.9234 21.9993 52.2311 22.8097 52.2311 23.763C52.2311 23.9103 52.2137 24.1053 52.1791 24.348H47.0051ZM46.9921 23.204H50.8141C50.7187 22.6753 50.4977 22.2767 50.1511 22.008C49.8131 21.7393 49.4144 21.605 48.9551 21.605C48.4351 21.605 48.0017 21.748 47.6551 22.034C47.3084 22.32 47.0874 22.71 46.9921 23.204ZM57.8475 20.5H59.2515V27H57.8475V24.413H54.8705V27H53.4665V20.5H54.8705V23.087H57.8475V20.5ZM66.4705 25.674H67.5365V28.742H66.1585V27H60.8805V20.5H62.2845V25.674H65.0665V20.5H66.4705V25.674ZM73.3814 20.5H74.4604V27H73.0824V22.866L69.7544 27H68.6754V20.5H70.0534V24.621L73.3814 20.5ZM81.2375 20.5H82.6415V27H81.2375V26.064C80.7088 26.8007 79.9505 27.169 78.9625 27.169C78.0698 27.169 77.3072 26.8397 76.6745 26.181C76.0418 25.5137 75.7255 24.7033 75.7255 23.75C75.7255 22.788 76.0418 21.9777 76.6745 21.319C77.3072 20.6603 78.0698 20.331 78.9625 20.331C79.9505 20.331 80.7088 20.695 81.2375 21.423V20.5ZM77.7145 25.245C78.1045 25.635 78.5942 25.83 79.1835 25.83C79.7728 25.83 80.2625 25.635 80.6525 25.245C81.0425 24.8463 81.2375 24.348 81.2375 23.75C81.2375 23.152 81.0425 22.658 80.6525 22.268C80.2625 21.8693 79.7728 21.67 79.1835 21.67C78.5942 21.67 78.1045 21.8693 77.7145 22.268C77.3245 22.658 77.1295 23.152 77.1295 23.75C77.1295 24.348 77.3245 24.8463 77.7145 25.245ZM89.764 20.5V27H88.36V21.852H86.189V24.27C86.189 25.3013 85.9637 26.0337 85.513 26.467C85.0623 26.9003 84.421 27.078 83.589 27V25.687C83.9877 25.7563 84.2867 25.674 84.486 25.44C84.6853 25.206 84.785 24.7943 84.785 24.205V20.5H89.764ZM94.2341 22.71C94.9274 22.71 95.4951 22.9093 95.9371 23.308C96.3791 23.698 96.6001 24.2137 96.6001 24.855C96.6001 25.4877 96.3791 26.0033 95.9371 26.402C95.4951 26.8007 94.9274 27 94.2341 27H91.4001V20.5H92.8041V22.71H94.2341ZM94.2471 25.739C94.5244 25.739 94.7541 25.6567 94.9361 25.492C95.1267 25.3273 95.2221 25.115 95.2221 24.855C95.2221 24.5863 95.1267 24.374 94.9361 24.218C94.7541 24.0533 94.5244 23.971 94.2471 23.971H92.8041V25.739H94.2471ZM102.129 20.5H103.533V27H102.129V24.413H99.1517V27H97.7477V20.5H99.1517V23.087H102.129V20.5ZM108.23 27.169C107.276 27.169 106.466 26.8397 105.799 26.181C105.131 25.5223 104.798 24.712 104.798 23.75C104.798 22.788 105.131 21.9777 105.799 21.319C106.466 20.6603 107.276 20.331 108.23 20.331C109.192 20.331 110.002 20.6603 110.661 21.319C111.328 21.9777 111.662 22.788 111.662 23.75C111.662 24.712 111.328 25.5223 110.661 26.181C110.002 26.8397 109.192 27.169 108.23 27.169ZM106.787 25.219C107.177 25.609 107.658 25.804 108.23 25.804C108.802 25.804 109.283 25.609 109.673 25.219C110.063 24.829 110.258 24.3393 110.258 23.75C110.258 23.1607 110.063 22.671 109.673 22.281C109.283 21.891 108.802 21.696 108.23 21.696C107.658 21.696 107.177 21.891 106.787 22.281C106.397 22.671 106.202 23.1607 106.202 23.75C106.202 24.3393 106.397 24.829 106.787 25.219ZM115.999 27.169C115.02 27.169 114.201 26.8397 113.542 26.181C112.892 25.5223 112.567 24.712 112.567 23.75C112.567 22.7793 112.892 21.969 113.542 21.319C114.201 20.6603 115.02 20.331 115.999 20.331C116.632 20.331 117.208 20.4827 117.728 20.786C118.248 21.0893 118.638 21.4967 118.898 22.008L117.689 22.71C117.542 22.398 117.317 22.1553 117.013 21.982C116.719 21.8 116.376 21.709 115.986 21.709C115.414 21.709 114.933 21.904 114.543 22.294C114.162 22.684 113.971 23.1693 113.971 23.75C113.971 24.3307 114.162 24.816 114.543 25.206C114.933 25.596 115.414 25.791 115.986 25.791C116.368 25.791 116.71 25.7 117.013 25.518C117.325 25.336 117.559 25.0933 117.715 24.79L118.924 25.479C118.647 25.999 118.248 26.4107 117.728 26.714C117.208 27.0173 116.632 27.169 115.999 27.169ZM124.842 20.5V21.852H122.723V27H121.319V21.852H119.187V20.5H124.842ZM130.498 20.5H131.577V27H130.199V22.866L126.871 27H125.792V20.5H127.17V24.621L130.498 20.5Z" fill="black"/>
</svg>
