<svg width="24" height="24" viewBox="0 0 24 24" fill="none" xmlns="http://www.w3.org/2000/svg">
<path d="M7.35882 6.14514L13.0437 11.7051L7.35882 17.265L7.35172 17.2726C7.13902 17.4985 7 17.8012 7 18.1548C7 18.8662 7.55951 19.4102 8.25537 19.4102C8.59964 19.4102 8.90961 19.2857 9.15469 19.0417L15.7272 12.6103L15.731 12.6065C15.9696 12.3679 16.1182 12.0623 16.1182 11.7051C16.1182 11.3569 15.9764 11.0376 15.7247 10.7975L9.15321 4.35862L9.14653 4.35231C8.90437 4.12361 8.59895 4 8.25537 4C7.55951 4 7 4.54398 7 5.25537C7 5.59787 7.13698 5.90944 7.35172 6.1376L7.35882 6.14514Z" fill="#BFBFC0"/>
</svg>
