<svg width="343" height="54" viewBox="0 0 343 54" fill="none" xmlns="http://www.w3.org/2000/svg">
<rect width="343" height="54" rx="27" fill="url(#paint0_linear_2459_1647)"/>
<path d="M155.213 31.124H156.563V35.912H154.079V33.5H147.113V35.912H144.629V31.124H145.853C146.549 30.152 146.897 28.73 146.897 26.858V20.9H155.213V31.124ZM148.517 31.124H152.729V23.222H149.381V26.894C149.381 28.718 149.093 30.128 148.517 31.124ZM164.601 24.5H166.923V33.5H164.601V32.438C163.905 33.314 162.927 33.752 161.667 33.752C160.467 33.752 159.435 33.296 158.571 32.384C157.719 31.46 157.293 30.332 157.293 29C157.293 27.668 157.719 26.546 158.571 25.634C159.435 24.71 160.467 24.248 161.667 24.248C162.927 24.248 163.905 24.686 164.601 25.562V24.5ZM160.317 30.836C160.785 31.304 161.379 31.538 162.099 31.538C162.819 31.538 163.413 31.304 163.881 30.836C164.361 30.356 164.601 29.744 164.601 29C164.601 28.256 164.361 27.65 163.881 27.182C163.413 26.702 162.819 26.462 162.099 26.462C161.379 26.462 160.785 26.702 160.317 27.182C159.849 27.65 159.615 28.256 159.615 29C159.615 29.744 159.849 30.356 160.317 30.836ZM176.751 24.5V33.5H174.429V26.732H171.945V29.738C171.945 32.522 170.679 33.776 168.147 33.5V31.322C168.627 31.442 168.993 31.364 169.245 31.088C169.497 30.8 169.623 30.308 169.623 29.612V24.5H176.751ZM180.817 29.954C181.129 31.082 181.975 31.646 183.355 31.646C184.243 31.646 184.915 31.346 185.371 30.746L187.243 31.826C186.355 33.11 185.047 33.752 183.319 33.752C181.831 33.752 180.637 33.302 179.737 32.402C178.837 31.502 178.387 30.368 178.387 29C178.387 27.644 178.831 26.516 179.719 25.616C180.607 24.704 181.747 24.248 183.139 24.248C184.459 24.248 185.545 24.704 186.397 25.616C187.261 26.528 187.693 27.656 187.693 29C187.693 29.3 187.663 29.618 187.603 29.954H180.817ZM180.781 28.154H185.371C185.239 27.542 184.963 27.086 184.543 26.786C184.135 26.486 183.667 26.336 183.139 26.336C182.515 26.336 181.999 26.498 181.591 26.822C181.183 27.134 180.913 27.578 180.781 28.154ZM191.206 29.954C191.518 31.082 192.364 31.646 193.744 31.646C194.632 31.646 195.304 31.346 195.76 30.746L197.632 31.826C196.744 33.11 195.436 33.752 193.708 33.752C192.22 33.752 191.026 33.302 190.126 32.402C189.226 31.502 188.776 30.368 188.776 29C188.776 27.644 189.22 26.516 190.108 25.616C190.996 24.704 192.136 24.248 193.528 24.248C194.848 24.248 195.934 24.704 196.786 25.616C197.65 26.528 198.082 27.656 198.082 29C198.082 29.3 198.052 29.618 197.992 29.954H191.206ZM191.17 28.154H195.76C195.628 27.542 195.352 27.086 194.932 26.786C194.524 26.486 194.056 26.336 193.528 26.336C192.904 26.336 192.388 26.498 191.98 26.822C191.572 27.134 191.302 27.578 191.17 28.154Z" fill="white"/>
<defs>
<linearGradient id="paint0_linear_2459_1647" x1="-2.39581e-07" y1="27" x2="369" y2="27" gradientUnits="userSpaceOnUse">
<stop stop-color="#FF6645"/>
<stop offset="0.0001" stop-color="#FF6645"/>
<stop offset="1" stop-color="#DF2B4B"/>
</linearGradient>
</defs>
</svg>
