<svg width="308" height="37" viewBox="0 0 308 37" fill="none" xmlns="http://www.w3.org/2000/svg">
<path d="M7.888 0.0999992H9.86L6.171 8.94C5.26433 11.1047 3.79667 12.1247 1.768 12V10.181C2.43667 10.249 2.975 10.147 3.383 9.875C3.80233 9.603 4.13667 9.14967 4.386 8.515L0.425 0.0999992H2.397L5.287 6.373L7.888 0.0999992ZM14.8357 7.648C15.7423 8.056 16.1957 8.73033 16.1957 9.671C16.1957 10.3963 15.901 11.0027 15.3117 11.49C14.7223 11.9773 13.9007 12.221 12.8467 12.221C11.1353 12.221 9.97932 11.541 9.37866 10.181L10.8747 9.297C11.1807 10.147 11.8437 10.572 12.8637 10.572C13.3397 10.572 13.7137 10.4757 13.9857 10.283C14.2577 10.079 14.3937 9.81267 14.3937 9.484C14.3937 9.18933 14.286 8.957 14.0707 8.787C13.8553 8.60567 13.555 8.515 13.1697 8.515H11.9627V6.9H12.8637C13.2377 6.9 13.5267 6.815 13.7307 6.645C13.946 6.46367 14.0537 6.22 14.0537 5.914C14.0537 5.61933 13.9347 5.38133 13.6967 5.2C13.4587 5.00733 13.1413 4.911 12.7447 4.911C11.8947 4.911 11.3053 5.285 10.9767 6.033L9.48066 5.183C10.1153 3.91367 11.192 3.279 12.7107 3.279C13.6627 3.279 14.4163 3.52267 14.9717 4.01C15.5383 4.486 15.8217 5.06967 15.8217 5.761C15.8217 6.611 15.493 7.24 14.8357 7.648ZM23.3144 3.5H25.1504V12H23.3144V8.617H19.4214V12H17.5854V3.5H19.4214V6.883H23.3144V3.5ZM33.9027 3.5H35.7387V12H33.9027V10.776C33.2114 11.7393 32.2197 12.221 30.9277 12.221C29.7604 12.221 28.763 11.7903 27.9357 10.929C27.1084 10.0563 26.6947 8.99667 26.6947 7.75C26.6947 6.492 27.1084 5.43233 27.9357 4.571C28.763 3.70967 29.7604 3.279 30.9277 3.279C32.2197 3.279 33.2114 3.755 33.9027 4.707V3.5ZM29.2957 9.705C29.8057 10.215 30.446 10.47 31.2167 10.47C31.9874 10.47 32.6277 10.215 33.1377 9.705C33.6477 9.18367 33.9027 8.532 33.9027 7.75C33.9027 6.968 33.6477 6.322 33.1377 5.812C32.6277 5.29067 31.9874 5.03 31.2167 5.03C30.446 5.03 29.8057 5.29067 29.2957 5.812C28.7857 6.322 28.5307 6.968 28.5307 7.75C28.5307 8.532 28.7857 9.18367 29.2957 9.705ZM39.1627 2.31V0.711999H43.9227V2.31H39.1627ZM43.9227 3.5H45.3337V12H43.5317V6.594L39.1797 12H37.7687V3.5H39.5707V8.889L43.9227 3.5ZM53.848 3.5V5.268H51.077V12H49.241V5.268H46.453V3.5H53.848ZM56.0933 8.532C56.2293 9.178 56.541 9.67667 57.0283 10.028C57.5156 10.368 58.1106 10.538 58.8133 10.538C59.788 10.538 60.519 10.1867 61.0063 9.484L62.5193 10.368C61.6806 11.6033 60.4396 12.221 58.7963 12.221C57.4136 12.221 56.2973 11.8017 55.4473 10.963C54.5973 10.113 54.1723 9.042 54.1723 7.75C54.1723 6.48067 54.5916 5.421 55.4303 4.571C56.269 3.70967 57.3456 3.279 58.6603 3.279C59.907 3.279 60.927 3.71533 61.7203 4.588C62.525 5.46067 62.9273 6.52033 62.9273 7.767C62.9273 7.95967 62.9046 8.21467 62.8593 8.532H56.0933ZM56.0763 7.036H61.0743C60.9496 6.34467 60.6606 5.82333 60.2073 5.472C59.7653 5.12067 59.244 4.945 58.6433 4.945C57.9633 4.945 57.3966 5.132 56.9433 5.506C56.49 5.88 56.201 6.39 56.0763 7.036ZM72.5848 12.221C71.3382 12.221 70.2785 11.7903 69.4058 10.929C68.5332 10.0677 68.0968 9.008 68.0968 7.75C68.0968 6.492 68.5332 5.43233 69.4058 4.571C70.2785 3.70967 71.3382 3.279 72.5848 3.279C73.8428 3.279 74.9025 3.70967 75.7638 4.571C76.6365 5.43233 77.0728 6.492 77.0728 7.75C77.0728 9.008 76.6365 10.0677 75.7638 10.929C74.9025 11.7903 73.8428 12.221 72.5848 12.221ZM70.6978 9.671C71.2078 10.181 71.8368 10.436 72.5848 10.436C73.3328 10.436 73.9618 10.181 74.4718 9.671C74.9818 9.161 75.2368 8.52067 75.2368 7.75C75.2368 6.97933 74.9818 6.339 74.4718 5.829C73.9618 5.319 73.3328 5.064 72.5848 5.064C71.8368 5.064 71.2078 5.319 70.6978 5.829C70.1878 6.339 69.9328 6.97933 69.9328 7.75C69.9328 8.52067 70.1878 9.161 70.6978 9.671ZM86.775 12.221C85.4943 12.221 84.4233 11.7903 83.562 10.929C82.712 10.0677 82.287 9.008 82.287 7.75C82.287 6.48067 82.712 5.421 83.562 4.571C84.4233 3.70967 85.4943 3.279 86.775 3.279C87.6023 3.279 88.356 3.47733 89.036 3.874C89.716 4.27067 90.226 4.80333 90.566 5.472L88.985 6.39C88.7923 5.982 88.4977 5.66467 88.101 5.438C87.7157 5.2 87.268 5.081 86.758 5.081C86.01 5.081 85.381 5.336 84.871 5.846C84.3723 6.356 84.123 6.99067 84.123 7.75C84.123 8.50933 84.3723 9.144 84.871 9.654C85.381 10.164 86.01 10.419 86.758 10.419C87.2567 10.419 87.7043 10.3 88.101 10.062C88.509 9.824 88.815 9.50667 89.019 9.11L90.6 10.011C90.2373 10.691 89.716 11.2293 89.036 11.626C88.356 12.0227 87.6023 12.221 86.775 12.221ZM98.4162 3.5H100.252V12H98.4162V10.776C97.7249 11.7393 96.7332 12.221 95.4412 12.221C94.2739 12.221 93.2766 11.7903 92.4492 10.929C91.6219 10.0563 91.2082 8.99667 91.2082 7.75C91.2082 6.492 91.6219 5.43233 92.4492 4.571C93.2766 3.70967 94.2739 3.279 95.4412 3.279C96.7332 3.279 97.7249 3.755 98.4162 4.707V3.5ZM93.8092 9.705C94.3192 10.215 94.9596 10.47 95.7302 10.47C96.5009 10.47 97.1412 10.215 97.6512 9.705C98.1612 9.18367 98.4162 8.532 98.4162 7.75C98.4162 6.968 98.1612 6.322 97.6512 5.812C97.1412 5.29067 96.5009 5.03 95.7302 5.03C94.9596 5.03 94.3192 5.29067 93.8092 5.812C93.2992 6.322 93.0442 6.968 93.0442 7.75C93.0442 8.532 93.2992 9.18367 93.8092 9.705ZM110.952 3.5V12H109.167V6.407L106.719 10.3H106.498L104.067 6.424V12H102.282V3.5H104.152L106.617 7.427L109.082 3.5H110.952ZM116.669 6.39C117.576 6.39 118.318 6.65067 118.896 7.172C119.474 7.682 119.763 8.35633 119.763 9.195C119.763 10.0223 119.474 10.6967 118.896 11.218C118.318 11.7393 117.576 12 116.669 12H112.963V3.5H114.799V6.39H116.669ZM120.783 3.5H122.619V12H120.783V3.5ZM116.686 10.351C117.049 10.351 117.349 10.2433 117.587 10.028C117.837 9.81267 117.961 9.535 117.961 9.195C117.961 8.84367 117.837 8.566 117.587 8.362C117.349 8.14667 117.049 8.039 116.686 8.039H114.799V10.351H116.686ZM132.239 12H130.114L128.006 9.093L125.881 12H123.739L126.935 7.631L123.909 3.5H126.034L127.989 6.186L129.944 3.5H132.086L129.06 7.648L132.239 12ZM144.234 3.5H146.07V12H144.234V10.776C143.543 11.7393 142.551 12.221 141.259 12.221C140.092 12.221 139.095 11.7903 138.267 10.929C137.44 10.0563 137.026 8.99667 137.026 7.75C137.026 6.492 137.44 5.43233 138.267 4.571C139.095 3.70967 140.092 3.279 141.259 3.279C142.551 3.279 143.543 3.755 144.234 4.707V3.5ZM139.627 9.705C140.137 10.215 140.778 10.47 141.548 10.47C142.319 10.47 142.959 10.215 143.469 9.705C143.979 9.18367 144.234 8.532 144.234 7.75C144.234 6.968 143.979 6.322 143.469 5.812C142.959 5.29067 142.319 5.03 141.548 5.03C140.778 5.03 140.137 5.29067 139.627 5.812C139.117 6.322 138.862 6.968 138.862 7.75C138.862 8.532 139.117 9.18367 139.627 9.705ZM155.614 12H153.421L149.936 8.073V12H148.1V3.5H149.936V7.257L153.234 3.5H155.478L151.738 7.665L155.614 12ZM163.233 3.5V5.268H160.462V12H158.626V5.268H155.838V3.5H163.233ZM170.178 3.5H172.133L168.869 12.272C168.472 13.3487 167.917 14.1533 167.203 14.686C166.489 15.2187 165.661 15.4567 164.721 15.4V13.683C165.299 13.717 165.763 13.598 166.115 13.326C166.477 13.0653 166.766 12.6403 166.982 12.051L167.033 11.932L163.463 3.5H165.418L168.002 9.688L170.178 3.5ZM179.571 3.5H181.407V12H179.571V10.776C178.879 11.7393 177.888 12.221 176.596 12.221C175.428 12.221 174.431 11.7903 173.604 10.929C172.776 10.0563 172.363 8.99667 172.363 7.75C172.363 6.492 172.776 5.43233 173.604 4.571C174.431 3.70967 175.428 3.279 176.596 3.279C177.888 3.279 178.879 3.755 179.571 4.707V3.5ZM174.964 9.705C175.474 10.215 176.114 10.47 176.885 10.47C177.655 10.47 178.296 10.215 178.806 9.705C179.316 9.18367 179.571 8.532 179.571 7.75C179.571 6.968 179.316 6.322 178.806 5.812C178.296 5.29067 177.655 5.03 176.885 5.03C176.114 5.03 175.474 5.29067 174.964 5.812C174.454 6.322 174.199 6.968 174.199 7.75C174.199 8.532 174.454 9.18367 174.964 9.705ZM190.611 3.5V12H188.775V5.268H185.936V8.43C185.936 9.77867 185.641 10.7363 185.052 11.303C184.462 11.8697 183.624 12.102 182.536 12V10.283C183.057 10.3737 183.448 10.266 183.709 9.96C183.969 9.654 184.1 9.11567 184.1 8.345V3.5H190.611ZM196.346 6.39C197.253 6.39 197.995 6.65067 198.573 7.172C199.151 7.682 199.44 8.35633 199.44 9.195C199.44 10.0223 199.151 10.6967 198.573 11.218C197.995 11.7393 197.253 12 196.346 12H192.64V3.5H194.476V6.39H196.346ZM196.363 10.351C196.726 10.351 197.026 10.2433 197.264 10.028C197.514 9.81267 197.638 9.535 197.638 9.195C197.638 8.84367 197.514 8.566 197.264 8.362C197.026 8.14667 196.726 8.039 196.363 8.039H194.476V10.351H196.363ZM206.56 3.5H208.396V12H206.56V8.617H202.667V12H200.831V3.5H202.667V6.883H206.56V3.5ZM214.122 6.39C215.029 6.39 215.771 6.65067 216.349 7.172C216.927 7.682 217.216 8.35633 217.216 9.195C217.216 10.0223 216.927 10.6967 216.349 11.218C215.771 11.7393 215.029 12 214.122 12H210.416V3.5H212.252V6.39H214.122ZM218.236 3.5H220.072V12H218.236V3.5ZM214.139 10.351C214.502 10.351 214.802 10.2433 215.04 10.028C215.29 9.81267 215.414 9.535 215.414 9.195C215.414 8.84367 215.29 8.566 215.04 8.362C214.802 8.14667 214.502 8.039 214.139 8.039H212.252V10.351H214.139ZM229.692 12H227.567L225.459 9.093L223.334 12H221.192L224.388 7.631L221.362 3.5H223.487L225.442 6.186L227.397 3.5H229.539L226.513 7.648L229.692 12ZM240.837 7.631C241.676 8.01633 242.095 8.668 242.095 9.586C242.095 10.3 241.852 10.8837 241.364 11.337C240.888 11.779 240.203 12 239.307 12H234.955V3.5H238.967C239.84 3.5 240.514 3.721 240.99 4.163C241.478 4.59367 241.721 5.15467 241.721 5.846C241.721 6.65067 241.427 7.24567 240.837 7.631ZM238.831 5.064H236.706V6.951H238.831C239.579 6.951 239.953 6.63367 239.953 5.999C239.953 5.37567 239.579 5.064 238.831 5.064ZM239.137 10.402C239.908 10.402 240.293 10.0677 240.293 9.399C240.293 9.10433 240.191 8.87767 239.987 8.719C239.783 8.549 239.5 8.464 239.137 8.464H236.706V10.402H239.137ZM247.49 12.221C246.21 12.221 245.139 11.7903 244.277 10.929C243.427 10.0677 243.002 9.008 243.002 7.75C243.002 6.48067 243.427 5.421 244.277 4.571C245.139 3.70967 246.21 3.279 247.49 3.279C248.318 3.279 249.071 3.47733 249.751 3.874C250.431 4.27067 250.941 4.80333 251.281 5.472L249.7 6.39C249.508 5.982 249.213 5.66467 248.816 5.438C248.431 5.2 247.983 5.081 247.473 5.081C246.725 5.081 246.096 5.336 245.586 5.846C245.088 6.356 244.838 6.99067 244.838 7.75C244.838 8.50933 245.088 9.144 245.586 9.654C246.096 10.164 246.725 10.419 247.473 10.419C247.972 10.419 248.42 10.3 248.816 10.062C249.224 9.824 249.53 9.50667 249.734 9.11L251.315 10.011C250.953 10.691 250.431 11.2293 249.751 11.626C249.071 12.0227 248.318 12.221 247.49 12.221ZM258.943 3.5V5.268H256.172V12H254.336V5.268H251.548V3.5H258.943ZM264.887 3.279C266.054 3.279 267.051 3.71533 267.879 4.588C268.706 5.44933 269.12 6.50333 269.12 7.75C269.12 9.008 268.706 10.0677 267.879 10.929C267.051 11.7903 266.054 12.221 264.887 12.221C263.595 12.221 262.603 11.745 261.912 10.793V15.4H260.076V3.5H261.912V4.724C262.603 3.76067 263.595 3.279 264.887 3.279ZM262.677 9.705C263.187 10.215 263.827 10.47 264.598 10.47C265.368 10.47 266.009 10.215 266.519 9.705C267.029 9.18367 267.284 8.532 267.284 7.75C267.284 6.968 267.029 6.322 266.519 5.812C266.009 5.29067 265.368 5.03 264.598 5.03C263.827 5.03 263.187 5.29067 262.677 5.812C262.167 6.322 261.912 6.968 261.912 7.75C261.912 8.532 262.167 9.18367 262.677 9.705ZM272.119 8.532C272.255 9.178 272.566 9.67667 273.054 10.028C273.541 10.368 274.136 10.538 274.839 10.538C275.813 10.538 276.544 10.1867 277.032 9.484L278.545 10.368C277.706 11.6033 276.465 12.221 274.822 12.221C273.439 12.221 272.323 11.8017 271.473 10.963C270.623 10.113 270.198 9.042 270.198 7.75C270.198 6.48067 270.617 5.421 271.456 4.571C272.294 3.70967 273.371 3.279 274.686 3.279C275.932 3.279 276.952 3.71533 277.746 4.588C278.55 5.46067 278.953 6.52033 278.953 7.767C278.953 7.95967 278.93 8.21467 278.885 8.532H272.119ZM272.102 7.036H277.1C276.975 6.34467 276.686 5.82333 276.233 5.472C275.791 5.12067 275.269 4.945 274.669 4.945C273.989 4.945 273.422 5.132 272.969 5.506C272.515 5.88 272.226 6.39 272.102 7.036ZM285.626 3.5H287.462V12H285.626V9.127C284.946 9.37633 284.232 9.501 283.484 9.501C282.43 9.501 281.597 9.24033 280.985 8.719C280.373 8.19767 280.067 7.43267 280.067 6.424V3.5H281.903V6.254C281.903 7.274 282.51 7.784 283.722 7.784C284.436 7.784 285.071 7.65367 285.626 7.393V3.5ZM296.228 3.5H298.064V12H296.228V10.776C295.536 11.7393 294.545 12.221 293.253 12.221C292.085 12.221 291.088 11.7903 290.261 10.929C289.433 10.0563 289.02 8.99667 289.02 7.75C289.02 6.492 289.433 5.43233 290.261 4.571C291.088 3.70967 292.085 3.279 293.253 3.279C294.545 3.279 295.536 3.755 296.228 4.707V3.5ZM291.621 9.705C292.131 10.215 292.771 10.47 293.542 10.47C294.312 10.47 294.953 10.215 295.463 9.705C295.973 9.18367 296.228 8.532 296.228 7.75C296.228 6.968 295.973 6.322 295.463 5.812C294.953 5.29067 294.312 5.03 293.542 5.03C292.771 5.03 292.131 5.29067 291.621 5.812C291.111 6.322 290.856 6.968 290.856 7.75C290.856 8.532 291.111 9.18367 291.621 9.705ZM307.693 12H305.568L303.46 9.093L301.335 12H299.193L302.389 7.631L299.363 3.5H301.488L303.443 6.186L305.398 3.5H307.54L304.514 7.648L307.693 12ZM6.8 25.5H8.636V34H6.8V30.617H2.907V34H1.071V25.5H2.907V28.883H6.8V25.5ZM12.1013 30.532C12.2373 31.178 12.549 31.6767 13.0363 32.028C13.5236 32.368 14.1186 32.538 14.8213 32.538C15.796 32.538 16.527 32.1867 17.0143 31.484L18.5273 32.368C17.6886 33.6033 16.4476 34.221 14.8043 34.221C13.4216 34.221 12.3053 33.8017 11.4553 32.963C10.6053 32.113 10.1803 31.042 10.1803 29.75C10.1803 28.4807 10.5996 27.421 11.4383 26.571C12.277 25.7097 13.3536 25.279 14.6683 25.279C15.915 25.279 16.935 25.7153 17.7283 26.588C18.533 27.4607 18.9353 28.5203 18.9353 29.767C18.9353 29.9597 18.9126 30.2147 18.8673 30.532H12.1013ZM12.0843 29.036H17.0823C16.9576 28.3447 16.6686 27.8233 16.2153 27.472C15.7733 27.1207 15.252 26.945 14.6513 26.945C13.9713 26.945 13.4046 27.132 12.9513 27.506C12.498 27.88 12.209 28.39 12.0843 29.036ZM27.5888 32.266H28.7278V36.278H26.9258V34H21.0948V36.278H19.2928V32.266H20.3298C20.8511 31.5293 21.1118 30.5037 21.1118 29.189V25.5H27.5888V32.266ZM22.3528 32.266H25.7868V27.183H22.9138V29.189C22.9138 30.4017 22.7268 31.4273 22.3528 32.266ZM36.5091 25.5H38.3451V34H36.5091V32.776C35.8178 33.7393 34.8261 34.221 33.5341 34.221C32.3668 34.221 31.3695 33.7903 30.5421 32.929C29.7148 32.0563 29.3011 30.9967 29.3011 29.75C29.3011 28.492 29.7148 27.4323 30.5421 26.571C31.3695 25.7097 32.3668 25.279 33.5341 25.279C34.8261 25.279 35.8178 25.755 36.5091 26.707V25.5ZM31.9021 31.705C32.4121 32.215 33.0525 32.47 33.8231 32.47C34.5938 32.47 35.2341 32.215 35.7441 31.705C36.2541 31.1837 36.5091 30.532 36.5091 29.75C36.5091 28.968 36.2541 28.322 35.7441 27.812C35.2341 27.2907 34.5938 27.03 33.8231 27.03C33.0525 27.03 32.4121 27.2907 31.9021 27.812C31.3921 28.322 31.1371 28.968 31.1371 29.75C31.1371 30.532 31.3921 31.1837 31.9021 31.705ZM47.5491 25.5V34H45.7131V27.268H42.8741V30.43C42.8741 31.7787 42.5795 32.7363 41.9901 33.303C41.4008 33.8697 40.5621 34.102 39.4741 34V32.283C39.9955 32.3737 40.3865 32.266 40.6471 31.96C40.9078 31.654 41.0381 31.1157 41.0381 30.345V25.5H47.5491ZM51.0236 30.532C51.1596 31.178 51.4713 31.6767 51.9586 32.028C52.446 32.368 53.041 32.538 53.7436 32.538C54.7183 32.538 55.4493 32.1867 55.9366 31.484L57.4496 32.368C56.611 33.6033 55.37 34.221 53.7266 34.221C52.344 34.221 51.2276 33.8017 50.3776 32.963C49.5276 32.113 49.1026 31.042 49.1026 29.75C49.1026 28.4807 49.522 27.421 50.3606 26.571C51.1993 25.7097 52.276 25.279 53.5906 25.279C54.8373 25.279 55.8573 25.7153 56.6506 26.588C57.4553 27.4607 57.8576 28.5203 57.8576 29.767C57.8576 29.9597 57.835 30.2147 57.7896 30.532H51.0236ZM51.0066 29.036H56.0046C55.88 28.3447 55.591 27.8233 55.1376 27.472C54.6956 27.1207 54.1743 26.945 53.5736 26.945C52.8936 26.945 52.327 27.132 51.8736 27.506C51.4203 27.88 51.1313 28.39 51.0066 29.036ZM66.8771 34H64.6841L61.1991 30.073V34H59.3631V25.5H61.1991V29.257L64.4971 25.5H66.7411L63.0011 29.665L66.8771 34ZM71.3335 34.221C70.0868 34.221 69.0272 33.7903 68.1545 32.929C67.2818 32.0677 66.8455 31.008 66.8455 29.75C66.8455 28.492 67.2818 27.4323 68.1545 26.571C69.0272 25.7097 70.0868 25.279 71.3335 25.279C72.5915 25.279 73.6512 25.7097 74.5125 26.571C75.3852 27.4323 75.8215 28.492 75.8215 29.75C75.8215 31.008 75.3852 32.0677 74.5125 32.929C73.6512 33.7903 72.5915 34.221 71.3335 34.221ZM69.4465 31.671C69.9565 32.181 70.5855 32.436 71.3335 32.436C72.0815 32.436 72.7105 32.181 73.2205 31.671C73.7305 31.161 73.9855 30.5207 73.9855 29.75C73.9855 28.9793 73.7305 28.339 73.2205 27.829C72.7105 27.319 72.0815 27.064 71.3335 27.064C70.5855 27.064 69.9565 27.319 69.4465 27.829C68.9365 28.339 68.6815 28.9793 68.6815 29.75C68.6815 30.5207 68.9365 31.161 69.4465 31.671ZM85.5237 34.221C84.277 34.221 83.2173 33.7903 82.3447 32.929C81.472 32.0677 81.0357 31.008 81.0357 29.75C81.0357 28.492 81.472 27.4323 82.3447 26.571C83.2173 25.7097 84.277 25.279 85.5237 25.279C86.7817 25.279 87.8413 25.7097 88.7027 26.571C89.5753 27.4323 90.0117 28.492 90.0117 29.75C90.0117 31.008 89.5753 32.0677 88.7027 32.929C87.8413 33.7903 86.7817 34.221 85.5237 34.221ZM83.6367 31.671C84.1467 32.181 84.7757 32.436 85.5237 32.436C86.2717 32.436 86.9007 32.181 87.4107 31.671C87.9207 31.161 88.1757 30.5207 88.1757 29.75C88.1757 28.9793 87.9207 28.339 87.4107 27.829C86.9007 27.319 86.2717 27.064 85.5237 27.064C84.7757 27.064 84.1467 27.319 83.6367 27.829C83.1267 28.339 82.8717 28.9793 82.8717 29.75C82.8717 30.5207 83.1267 31.161 83.6367 31.671ZM97.7238 25.5V27.268H94.9528V34H93.1168V27.268H90.3288V25.5H97.7238ZM108.878 29.631C109.717 30.0163 110.136 30.668 110.136 31.586C110.136 32.3 109.892 32.8837 109.405 33.337C108.929 33.779 108.243 34 107.348 34H102.996V25.5H107.008C107.881 25.5 108.555 25.721 109.031 26.163C109.518 26.5937 109.762 27.1547 109.762 27.846C109.762 28.6507 109.467 29.2457 108.878 29.631ZM106.872 27.064H104.747V28.951H106.872C107.62 28.951 107.994 28.6337 107.994 27.999C107.994 27.3757 107.62 27.064 106.872 27.064ZM107.178 32.402C107.949 32.402 108.334 32.0677 108.334 31.399C108.334 31.1043 108.232 30.8777 108.028 30.719C107.824 30.549 107.541 30.464 107.178 30.464H104.747V32.402H107.178ZM118.251 25.5H120.087V34H118.251V32.776C117.56 33.7393 116.568 34.221 115.276 34.221C114.109 34.221 113.111 33.7903 112.284 32.929C111.457 32.0563 111.043 30.9967 111.043 29.75C111.043 28.492 111.457 27.4323 112.284 26.571C113.111 25.7097 114.109 25.279 115.276 25.279C116.568 25.279 117.56 25.755 118.251 26.707V25.5ZM113.644 31.705C114.154 32.215 114.794 32.47 115.565 32.47C116.336 32.47 116.976 32.215 117.486 31.705C117.996 31.1837 118.251 30.532 118.251 29.75C118.251 28.968 117.996 28.322 117.486 27.812C116.976 27.2907 116.336 27.03 115.565 27.03C114.794 27.03 114.154 27.2907 113.644 27.812C113.134 28.322 112.879 28.968 112.879 29.75C112.879 30.532 113.134 31.1837 113.644 31.705ZM126.129 34.221C124.848 34.221 123.777 33.7903 122.916 32.929C122.066 32.0677 121.641 31.008 121.641 29.75C121.641 28.4807 122.066 27.421 122.916 26.571C123.777 25.7097 124.848 25.279 126.129 25.279C126.956 25.279 127.71 25.4773 128.39 25.874C129.07 26.2707 129.58 26.8033 129.92 27.472L128.339 28.39C128.146 27.982 127.852 27.6647 127.455 27.438C127.07 27.2 126.622 27.081 126.112 27.081C125.364 27.081 124.735 27.336 124.225 27.846C123.726 28.356 123.477 28.9907 123.477 29.75C123.477 30.5093 123.726 31.144 124.225 31.654C124.735 32.164 125.364 32.419 126.112 32.419C126.611 32.419 127.058 32.3 127.455 32.062C127.863 31.824 128.169 31.5067 128.373 31.11L129.954 32.011C129.591 32.691 129.07 33.2293 128.39 33.626C127.71 34.0227 126.956 34.221 126.129 34.221Z" fill="#A7A7B1"/>
</svg>
