<svg width="299" height="30" viewBox="0 0 299 30" fill="none" xmlns="http://www.w3.org/2000/svg">
<path d="M13.952 11.416C16.0853 12.5467 17.152 14.3173 17.152 16.728C17.152 18.7333 16.3947 20.3547 14.88 21.592C13.3653 22.8293 11.4133 23.448 9.024 23.448C4.864 23.448 2.08 21.688 0.672 18.168L4.48 16.024C5.16267 18.2 6.67733 19.288 9.024 19.288C10.24 19.288 11.168 19.032 11.808 18.52C12.448 18.008 12.768 17.3147 12.768 16.44C12.768 15.5653 12.448 14.872 11.808 14.36C11.1893 13.848 10.2933 13.592 9.12 13.592H6.336V9.656H8.448C9.55733 9.656 10.4213 9.42133 11.04 8.952C11.6587 8.46133 11.968 7.8 11.968 6.968C11.968 6.136 11.7013 5.48533 11.168 5.016C10.6347 4.52533 9.84533 4.28 8.8 4.28C6.88 4.28 5.536 5.21867 4.768 7.096L1.024 4.92C2.53867 1.74133 5.13067 0.151999 8.8 0.151999C11.0187 0.151999 12.832 0.749332 14.24 1.944C15.648 3.13866 16.352 4.71733 16.352 6.68C16.352 8.68533 15.552 10.264 13.952 11.416ZM31.8455 7H35.9735V23H31.8455V21.112C30.6082 22.6693 28.8695 23.448 26.6295 23.448C24.4962 23.448 22.6615 22.6373 21.1255 21.016C19.6108 19.3733 18.8535 17.368 18.8535 15C18.8535 12.632 19.6108 10.6373 21.1255 9.016C22.6615 7.37333 24.4962 6.552 26.6295 6.552C28.8695 6.552 30.6082 7.33067 31.8455 8.888V7ZM24.2295 18.264C25.0615 19.096 26.1175 19.512 27.3975 19.512C28.6775 19.512 29.7335 19.096 30.5655 18.264C31.4188 17.4107 31.8455 16.3227 31.8455 15C31.8455 13.6773 31.4188 12.6 30.5655 11.768C29.7335 10.9147 28.6775 10.488 27.3975 10.488C26.1175 10.488 25.0615 10.9147 24.2295 11.768C23.3975 12.6 22.9815 13.6773 22.9815 15C22.9815 16.3227 23.3975 17.4107 24.2295 18.264ZM54.2008 7V23H50.0728V10.872H43.7048V23H39.5768V7H54.2008ZM71.475 21.016C69.8323 22.6373 67.827 23.448 65.459 23.448C63.091 23.448 61.0857 22.6373 59.443 21.016C57.8217 19.3733 57.011 17.368 57.011 15C57.011 12.632 57.8217 10.6373 59.443 9.016C61.0857 7.37333 63.091 6.552 65.459 6.552C67.827 6.552 69.8323 7.37333 71.475 9.016C73.1177 10.6373 73.939 12.632 73.939 15C73.939 17.368 73.1177 19.3733 71.475 21.016ZM62.355 18.168C63.187 19 64.2217 19.416 65.459 19.416C66.6963 19.416 67.731 19 68.563 18.168C69.395 17.336 69.811 16.28 69.811 15C69.811 13.72 69.395 12.664 68.563 11.832C67.731 11 66.6963 10.584 65.459 10.584C64.2217 10.584 63.187 11 62.355 11.832C61.5443 12.664 61.139 13.72 61.139 15C61.139 16.28 61.5443 17.336 62.355 18.168ZM90.0248 7V23H85.8968V10.968H81.4808V16.312C81.4808 21.2613 79.2301 23.4907 74.7288 23V19.128C75.5821 19.3413 76.2328 19.2027 76.6808 18.712C77.1288 18.2 77.3528 17.3253 77.3528 16.088V7H90.0248ZM104.122 7H108.25V23H104.122V16.92H97.7535V23H93.6255V7H97.7535V13.048H104.122V7ZM123.444 7H126.516V23H122.484V13.912L114.964 23H111.892V7H115.924V16.088L123.444 7ZM142.766 7V10.968H137.774V23H133.646V10.968H128.59V7H142.766ZM147.694 16.696C148.248 18.7013 149.752 19.704 152.206 19.704C153.784 19.704 154.979 19.1707 155.79 18.104L159.118 20.024C157.539 22.3067 155.214 23.448 152.142 23.448C149.496 23.448 147.374 22.648 145.774 21.048C144.174 19.448 143.374 17.432 143.374 15C143.374 12.5893 144.163 10.584 145.742 8.984C147.32 7.36267 149.347 6.552 151.822 6.552C154.168 6.552 156.099 7.36267 157.614 8.984C159.15 10.6053 159.918 12.6107 159.918 15C159.918 15.5333 159.864 16.0987 159.758 16.696H147.694ZM147.63 13.496H155.79C155.555 12.408 155.064 11.5973 154.318 11.064C153.592 10.5307 152.76 10.264 151.822 10.264C150.712 10.264 149.795 10.552 149.07 11.128C148.344 11.6827 147.864 12.472 147.63 13.496ZM185.143 7V23H181.015V10.872H174.647V23H170.519V7H185.143ZM198.098 6.552C200.252 6.552 202.087 7.37333 203.602 9.016C205.138 10.6373 205.906 12.632 205.906 15C205.906 17.368 205.138 19.3733 203.602 21.016C202.087 22.6373 200.252 23.448 198.098 23.448C195.858 23.448 194.13 22.6693 192.914 21.112V29.4H188.786V7H192.914V8.888C194.13 7.33067 195.858 6.552 198.098 6.552ZM194.162 18.264C194.994 19.096 196.05 19.512 197.33 19.512C198.61 19.512 199.666 19.096 200.498 18.264C201.351 17.4107 201.778 16.3227 201.778 15C201.778 13.6773 201.351 12.6 200.498 11.768C199.666 10.9147 198.61 10.488 197.33 10.488C196.05 10.488 194.994 10.9147 194.162 11.768C193.33 12.6 192.914 13.6773 192.914 15C192.914 16.3227 193.33 17.4107 194.162 18.264ZM222.309 21.016C220.666 22.6373 218.661 23.448 216.293 23.448C213.925 23.448 211.919 22.6373 210.277 21.016C208.655 19.3733 207.845 17.368 207.845 15C207.845 12.632 208.655 10.6373 210.277 9.016C211.919 7.37333 213.925 6.552 216.293 6.552C218.661 6.552 220.666 7.37333 222.309 9.016C223.951 10.6373 224.773 12.632 224.773 15C224.773 17.368 223.951 19.3733 222.309 21.016ZM213.189 18.168C214.021 19 215.055 19.416 216.293 19.416C217.53 19.416 218.565 19 219.397 18.168C220.229 17.336 220.645 16.28 220.645 15C220.645 13.72 220.229 12.664 219.397 11.832C218.565 11 217.53 10.584 216.293 10.584C215.055 10.584 214.021 11 213.189 11.832C212.378 12.664 211.973 13.72 211.973 15C211.973 16.28 212.378 17.336 213.189 18.168ZM244.433 9.528C245.841 11.0427 246.545 12.8667 246.545 15C246.545 17.1333 245.841 18.9573 244.433 20.472C243.025 21.9867 241.094 22.9147 238.641 23.256V29.4H234.609V23.256C232.155 22.9147 230.225 21.9867 228.817 20.472C227.409 18.9573 226.705 17.1333 226.705 15C226.705 12.8667 227.409 11.0427 228.817 9.528C230.225 8.01333 232.155 7.08533 234.609 6.744V0.599998H238.641V6.744C241.094 7.08533 243.025 8.01333 244.433 9.528ZM230.769 15C230.769 16.0667 231.099 16.984 231.761 17.752C232.422 18.52 233.371 19.0427 234.609 19.32V10.68C233.371 10.9573 232.422 11.48 231.761 12.248C231.099 12.9947 230.769 13.912 230.769 15ZM238.641 19.288C239.878 19.0107 240.817 18.4987 241.457 17.752C242.118 16.984 242.449 16.0667 242.449 15C242.449 13.912 242.118 12.9947 241.457 12.248C240.817 11.48 239.878 10.9573 238.641 10.68V19.288ZM260.855 7H263.927V23H259.895V13.912L252.375 23H249.303V7H253.335V16.088L260.855 7ZM281.297 7V23H277.169V10.968H272.753V16.312C272.753 21.2613 270.503 23.4907 266.001 23V19.128C266.855 19.3413 267.505 19.2027 267.953 18.712C268.401 18.2 268.625 17.3253 268.625 16.088V7H281.297ZM292.13 12.12C293.943 12.12 295.405 12.6213 296.514 13.624C297.623 14.6053 298.178 15.9173 298.178 17.56C298.178 19.2027 297.623 20.5253 296.514 21.528C295.405 22.5093 293.943 23 292.13 23H284.898V7H289.026V12.12H292.13ZM292.162 19.352C292.738 19.352 293.207 19.192 293.57 18.872C293.954 18.5307 294.146 18.0933 294.146 17.56C294.146 17.0267 293.954 16.5893 293.57 16.248C293.207 15.9067 292.738 15.736 292.162 15.736H289.026V19.352H292.162Z" fill="black"/>
</svg>
