<svg width="182" height="19" viewBox="0 0 182 19" fill="none" xmlns="http://www.w3.org/2000/svg">
<path d="M7.94 15.28C5.83333 15.28 4.09333 14.58 2.72 13.18C1.34667 11.78 0.66 10.0533 0.66 8C0.66 5.93333 1.34667 4.20667 2.72 2.82C4.09333 1.42 5.83333 0.719999 7.94 0.719999C9.20667 0.719999 10.3733 1.02 11.44 1.62C12.52 2.20667 13.36 3.00667 13.96 4.02L11.58 5.4C11.2333 4.77333 10.74 4.28667 10.1 3.94C9.46 3.58 8.74 3.4 7.94 3.4C6.58 3.4 5.48 3.82667 4.64 4.68C3.81333 5.53333 3.4 6.64 3.4 8C3.4 9.34667 3.81333 10.4467 4.64 11.3C5.48 12.1533 6.58 12.58 7.94 12.58C8.74 12.58 9.46 12.4067 10.1 12.06C10.7533 11.7 11.2467 11.2133 11.58 10.6L13.96 11.98C13.36 12.9933 12.5267 13.8 11.46 14.4C10.3933 14.9867 9.22 15.28 7.94 15.28ZM23.4617 5V7.48H20.3417V15H17.7617V7.48H14.6017V5H23.4617ZM30.5495 4.72C31.8962 4.72 33.0429 5.23333 33.9895 6.26C34.9495 7.27333 35.4295 8.52 35.4295 10C35.4295 11.48 34.9495 12.7333 33.9895 13.76C33.0429 14.7733 31.8962 15.28 30.5495 15.28C29.1495 15.28 28.0695 14.7933 27.3095 13.82V19H24.7295V5H27.3095V6.18C28.0695 5.20667 29.1495 4.72 30.5495 4.72ZM28.0895 12.04C28.6095 12.56 29.2695 12.82 30.0695 12.82C30.8695 12.82 31.5295 12.56 32.0495 12.04C32.5829 11.5067 32.8495 10.8267 32.8495 10C32.8495 9.17333 32.5829 8.5 32.0495 7.98C31.5295 7.44667 30.8695 7.18 30.0695 7.18C29.2695 7.18 28.6095 7.44667 28.0895 7.98C27.5695 8.5 27.3095 9.17333 27.3095 10C27.3095 10.8267 27.5695 11.5067 28.0895 12.04ZM44.7391 5H47.3191V15H44.7391V13.82C43.9657 14.7933 42.8791 15.28 41.4791 15.28C40.1457 15.28 38.9991 14.7733 38.0391 13.76C37.0924 12.7333 36.6191 11.48 36.6191 10C36.6191 8.52 37.0924 7.27333 38.0391 6.26C38.9991 5.23333 40.1457 4.72 41.4791 4.72C42.8791 4.72 43.9657 5.20667 44.7391 6.18V5ZM39.9791 12.04C40.4991 12.56 41.1591 12.82 41.9591 12.82C42.7591 12.82 43.4191 12.56 43.9391 12.04C44.4724 11.5067 44.7391 10.8267 44.7391 10C44.7391 9.17333 44.4724 8.5 43.9391 7.98C43.4191 7.44667 42.7591 7.18 41.9591 7.18C41.1591 7.18 40.4991 7.44667 39.9791 7.98C39.4591 8.5 39.1991 9.17333 39.1991 10C39.1991 10.8267 39.4591 11.5067 39.9791 12.04ZM56.1086 5H58.6886V15H56.1086V11.2H52.1286V15H49.5486V5H52.1286V8.78H56.1086V5ZM68.5425 5H71.1225V15H68.5425V13.82C67.7692 14.7933 66.6825 15.28 65.2825 15.28C63.9492 15.28 62.8025 14.7733 61.8425 13.76C60.8958 12.7333 60.4225 11.48 60.4225 10C60.4225 8.52 60.8958 7.27333 61.8425 6.26C62.8025 5.23333 63.9492 4.72 65.2825 4.72C66.6825 4.72 67.7692 5.20667 68.5425 6.18V5ZM63.7825 12.04C64.3025 12.56 64.9625 12.82 65.7625 12.82C66.5625 12.82 67.2225 12.56 67.7425 12.04C68.2758 11.5067 68.5425 10.8267 68.5425 10C68.5425 9.17333 68.2758 8.5 67.7425 7.98C67.2225 7.44667 66.5625 7.18 65.7625 7.18C64.9625 7.18 64.3025 7.44667 63.7825 7.98C63.2625 8.5 63.0025 9.17333 63.0025 10C63.0025 10.8267 63.2625 11.5067 63.7825 12.04ZM85.462 5H87.382V15H84.862V9.32L80.162 15H78.242V5H80.762V10.68L85.462 5ZM98.2159 5V15H95.6359V7.48H92.8759V10.82C92.8759 13.9133 91.4693 15.3067 88.6559 15V12.58C89.1893 12.7133 89.5959 12.6267 89.8759 12.32C90.1559 12 90.2959 11.4533 90.2959 10.68V5H98.2159ZM107.664 5H109.584V15H107.064V9.32L102.364 15H100.444V5H102.964V10.68L107.664 5ZM122.548 4.72C123.894 4.72 125.041 5.23333 125.988 6.26C126.948 7.27333 127.428 8.52 127.428 10C127.428 11.48 126.948 12.7333 125.988 13.76C125.041 14.7733 123.894 15.28 122.548 15.28C121.148 15.28 120.068 14.7933 119.308 13.82V19H116.728V5H119.308V6.18C120.068 5.20667 121.148 4.72 122.548 4.72ZM120.088 12.04C120.608 12.56 121.268 12.82 122.068 12.82C122.868 12.82 123.528 12.56 124.048 12.04C124.581 11.5067 124.848 10.8267 124.848 10C124.848 9.17333 124.581 8.5 124.048 7.98C123.528 7.44667 122.868 7.18 122.068 7.18C121.268 7.18 120.608 7.44667 120.088 7.98C119.568 8.5 119.308 9.17333 119.308 10C119.308 10.8267 119.568 11.5067 120.088 12.04ZM131.317 11.06C131.664 12.3133 132.604 12.94 134.137 12.94C135.124 12.94 135.871 12.6067 136.377 11.94L138.457 13.14C137.471 14.5667 136.017 15.28 134.097 15.28C132.444 15.28 131.117 14.78 130.117 13.78C129.117 12.78 128.617 11.52 128.617 10C128.617 8.49333 129.111 7.24 130.097 6.24C131.084 5.22667 132.351 4.72 133.897 4.72C135.364 4.72 136.571 5.22667 137.517 6.24C138.477 7.25333 138.957 8.50667 138.957 10C138.957 10.3333 138.924 10.6867 138.857 11.06H131.317ZM131.277 9.06H136.377C136.231 8.38 135.924 7.87333 135.457 7.54C135.004 7.20667 134.484 7.04 133.897 7.04C133.204 7.04 132.631 7.22 132.177 7.58C131.724 7.92667 131.424 8.42 131.277 9.06ZM147.488 5V7.48H143.228V15H140.648V5H147.488ZM155.981 5H157.901V15H155.381V9.32L150.681 15H148.761V5H151.281V10.68L155.981 5ZM168.675 13.76C167.648 14.7733 166.395 15.28 164.915 15.28C163.435 15.28 162.182 14.7733 161.155 13.76C160.142 12.7333 159.635 11.48 159.635 10C159.635 8.52 160.142 7.27333 161.155 6.26C162.182 5.23333 163.435 4.72 164.915 4.72C166.395 4.72 167.648 5.23333 168.675 6.26C169.702 7.27333 170.215 8.52 170.215 10C170.215 11.48 169.702 12.7333 168.675 13.76ZM162.975 11.98C163.495 12.5 164.142 12.76 164.915 12.76C165.688 12.76 166.335 12.5 166.855 11.98C167.375 11.46 167.635 10.8 167.635 10C167.635 9.2 167.375 8.54 166.855 8.02C166.335 7.5 165.688 7.24 164.915 7.24C164.142 7.24 163.495 7.5 162.975 8.02C162.468 8.54 162.215 9.2 162.215 10C162.215 10.8 162.468 11.46 162.975 11.98ZM178.48 5H181.06V15H178.48V11.2H174.5V15H171.92V5H174.5V8.78H178.48V5Z" fill="black"/>
</svg>
