<svg width="225" height="38" viewBox="0 0 225 38" fill="none" xmlns="http://www.w3.org/2000/svg">
<path d="M7.194 5.829C7.71533 6.101 8.12333 6.475 8.418 6.951C8.71267 7.427 8.86 7.97667 8.86 8.6C8.86 9.57467 8.51433 10.385 7.823 11.031C7.13167 11.677 6.28733 12 5.29 12H0.19V0.0999992H4.916C5.89067 0.0999992 6.71233 0.417332 7.381 1.052C8.061 1.67533 8.401 2.45733 8.401 3.398C8.401 4.42933 7.99867 5.23967 7.194 5.829ZM4.916 1.936H2.145V5.064H4.916C5.34667 5.064 5.70933 4.91667 6.004 4.622C6.29867 4.316 6.446 3.942 6.446 3.5C6.446 3.058 6.29867 2.68967 6.004 2.395C5.70933 2.089 5.34667 1.936 4.916 1.936ZM5.29 10.164C5.74333 10.164 6.123 10.0053 6.429 9.688C6.74633 9.35933 6.905 8.96267 6.905 8.498C6.905 8.03333 6.74633 7.64233 6.429 7.325C6.123 6.99633 5.74333 6.832 5.29 6.832H2.145V10.164H5.29ZM16.219 7.631C17.0576 8.01633 17.477 8.668 17.477 9.586C17.477 10.3 17.2333 10.8837 16.746 11.337C16.27 11.779 15.5843 12 14.689 12H10.337V3.5H14.349C15.2216 3.5 15.896 3.721 16.372 4.163C16.8593 4.59367 17.103 5.15467 17.103 5.846C17.103 6.65067 16.8083 7.24567 16.219 7.631ZM14.213 5.064H12.088V6.951H14.213C14.961 6.951 15.335 6.63367 15.335 5.999C15.335 5.37567 14.961 5.064 14.213 5.064ZM14.519 10.402C15.2896 10.402 15.675 10.0677 15.675 9.399C15.675 9.10433 15.573 8.87767 15.369 8.719C15.165 8.549 14.8816 8.464 14.519 8.464H12.088V10.402H14.519ZM20.3048 8.532C20.4408 9.178 20.7525 9.67667 21.2398 10.028C21.7271 10.368 22.3221 10.538 23.0248 10.538C23.9995 10.538 24.7305 10.1867 25.2178 9.484L26.7308 10.368C25.8921 11.6033 24.6511 12.221 23.0078 12.221C21.6251 12.221 20.5088 11.8017 19.6588 10.963C18.8088 10.113 18.3838 9.042 18.3838 7.75C18.3838 6.48067 18.8031 5.421 19.6418 4.571C20.4805 3.70967 21.5571 3.279 22.8718 3.279C24.1185 3.279 25.1385 3.71533 25.9318 4.588C26.7365 5.46067 27.1388 6.52033 27.1388 7.767C27.1388 7.95967 27.1161 8.21467 27.0708 8.532H20.3048ZM20.2878 7.036H25.2858C25.1611 6.34467 24.8721 5.82333 24.4188 5.472C23.9768 5.12067 23.4555 4.945 22.8548 4.945C22.1748 4.945 21.6081 5.132 21.1548 5.506C20.7015 5.88 20.4125 6.39 20.2878 7.036ZM35.7923 10.266H36.9313V14.278H35.1293V12H29.2983V14.278H27.4963V10.266H28.5333C29.0546 9.52933 29.3153 8.50367 29.3153 7.189V3.5H35.7923V10.266ZM30.5563 10.266H33.9903V5.183H31.1173V7.189C31.1173 8.40167 30.9303 9.42733 30.5563 10.266ZM44.4666 3.5H45.8776V12H44.0756V6.594L39.7236 12H38.3126V3.5H40.1146V8.889L44.4666 3.5ZM54.392 3.5V5.268H51.621V12H49.785V5.268H46.997V3.5H54.392ZM56.6373 8.532C56.7733 9.178 57.0849 9.67667 57.5723 10.028C58.0596 10.368 58.6546 10.538 59.3573 10.538C60.3319 10.538 61.0629 10.1867 61.5503 9.484L63.0633 10.368C62.2246 11.6033 60.9836 12.221 59.3403 12.221C57.9576 12.221 56.8413 11.8017 55.9913 10.963C55.1413 10.113 54.7163 9.042 54.7163 7.75C54.7163 6.48067 55.1356 5.421 55.9743 4.571C56.8129 3.70967 57.8896 3.279 59.2043 3.279C60.4509 3.279 61.4709 3.71533 62.2643 4.588C63.0689 5.46067 63.4713 6.52033 63.4713 7.767C63.4713 7.95967 63.4486 8.21467 63.4033 8.532H56.6373ZM56.6203 7.036H61.6183C61.4936 6.34467 61.2046 5.82333 60.7513 5.472C60.3093 5.12067 59.7879 4.945 59.1873 4.945C58.5073 4.945 57.9406 5.132 57.4873 5.506C57.0339 5.88 56.7449 6.39 56.6203 7.036ZM76.6818 3.5V12H74.8458V5.234H70.9528V12H69.1168V3.5H76.6818ZM82.7141 12.221C81.4674 12.221 80.4078 11.7903 79.5351 10.929C78.6624 10.0677 78.2261 9.008 78.2261 7.75C78.2261 6.492 78.6624 5.43233 79.5351 4.571C80.4078 3.70967 81.4674 3.279 82.7141 3.279C83.9721 3.279 85.0318 3.70967 85.8931 4.571C86.7658 5.43233 87.2021 6.492 87.2021 7.75C87.2021 9.008 86.7658 10.0677 85.8931 10.929C85.0318 11.7903 83.9721 12.221 82.7141 12.221ZM80.8271 9.671C81.3371 10.181 81.9661 10.436 82.7141 10.436C83.4621 10.436 84.0911 10.181 84.6011 9.671C85.1111 9.161 85.3661 8.52067 85.3661 7.75C85.3661 6.97933 85.1111 6.339 84.6011 5.829C84.0911 5.319 83.4621 5.064 82.7141 5.064C81.9661 5.064 81.3371 5.319 80.8271 5.829C80.3171 6.339 80.0621 6.97933 80.0621 7.75C80.0621 8.52067 80.3171 9.161 80.8271 9.671ZM92.7643 12.221C91.4836 12.221 90.4126 11.7903 89.5513 10.929C88.7013 10.0677 88.2763 9.008 88.2763 7.75C88.2763 6.48067 88.7013 5.421 89.5513 4.571C90.4126 3.70967 91.4836 3.279 92.7643 3.279C93.5916 3.279 94.3453 3.47733 95.0253 3.874C95.7053 4.27067 96.2153 4.80333 96.5553 5.472L94.9743 6.39C94.7816 5.982 94.4869 5.66467 94.0903 5.438C93.7049 5.2 93.2573 5.081 92.7473 5.081C91.9993 5.081 91.3703 5.336 90.8603 5.846C90.3616 6.356 90.1123 6.99067 90.1123 7.75C90.1123 8.50933 90.3616 9.144 90.8603 9.654C91.3703 10.164 91.9993 10.419 92.7473 10.419C93.2459 10.419 93.6936 10.3 94.0903 10.062C94.4983 9.824 94.8043 9.50667 95.0083 9.11L96.5893 10.011C96.2266 10.691 95.7053 11.2293 95.0253 11.626C94.3453 12.0227 93.5916 12.221 92.7643 12.221ZM104.864 3.5V12H103.028V5.268H100.189V8.43C100.189 9.77867 99.8944 10.7363 99.3051 11.303C98.7158 11.8697 97.8771 12.102 96.7891 12V10.283C97.3104 10.3737 97.7014 10.266 97.9621 9.96C98.2228 9.654 98.3531 9.11567 98.3531 8.345V3.5H104.864ZM108.339 8.532C108.475 9.178 108.786 9.67667 109.274 10.028C109.761 10.368 110.356 10.538 111.059 10.538C112.033 10.538 112.764 10.1867 113.252 9.484L114.765 10.368C113.926 11.6033 112.685 12.221 111.042 12.221C109.659 12.221 108.543 11.8017 107.693 10.963C106.843 10.113 106.418 9.042 106.418 7.75C106.418 6.48067 106.837 5.421 107.676 4.571C108.514 3.70967 109.591 3.279 110.906 3.279C112.152 3.279 113.172 3.71533 113.966 4.588C114.77 5.46067 115.173 6.52033 115.173 7.767C115.173 7.95967 115.15 8.21467 115.105 8.532H108.339ZM108.322 7.036H113.32C113.195 6.34467 112.906 5.82333 112.453 5.472C112.011 5.12067 111.489 4.945 110.889 4.945C110.209 4.945 109.642 5.132 109.189 5.506C108.735 5.88 108.446 6.39 108.322 7.036ZM123.826 10.266H124.965V14.278H123.163V12H117.332V14.278H115.53V10.266H116.567C117.088 9.52933 117.349 8.50367 117.349 7.189V3.5H123.826V10.266ZM118.59 10.266H122.024V5.183H119.151V7.189C119.151 8.40167 118.964 9.42733 118.59 10.266ZM132.075 3.5H133.911V12H132.075V8.617H128.182V12H126.346V3.5H128.182V6.883H132.075V3.5ZM142.086 3.5H143.497V12H141.695V6.594L137.343 12H135.932V3.5H137.734V8.889L142.086 3.5ZM146.962 8.532C147.098 9.178 147.41 9.67667 147.897 10.028C148.384 10.368 148.979 10.538 149.682 10.538C150.657 10.538 151.388 10.1867 151.875 9.484L153.388 10.368C152.549 11.6033 151.308 12.221 149.665 12.221C148.282 12.221 147.166 11.8017 146.316 10.963C145.466 10.113 145.041 9.042 145.041 7.75C145.041 6.48067 145.46 5.421 146.299 4.571C147.138 3.70967 148.214 3.279 149.529 3.279C150.776 3.279 151.796 3.71533 152.589 4.588C153.394 5.46067 153.796 6.52033 153.796 7.767C153.796 7.95967 153.773 8.21467 153.728 8.532H146.962ZM146.945 7.036H151.943C151.818 6.34467 151.529 5.82333 151.076 5.472C150.634 5.12067 150.113 4.945 149.512 4.945C148.832 4.945 148.265 5.132 147.812 5.506C147.359 5.88 147.07 6.39 146.945 7.036ZM167.942 8.039V9.858H166.582V12H164.61V9.858H158.762V8.039L162.859 0.0999992H164.984L160.887 8.039H164.61V4.945H166.582V8.039H167.942ZM180.643 10.266H182.037V14.278H180.235V12H173.333V3.5H175.169V10.266H178.807V3.5H180.643V10.266ZM189.57 3.5H190.981V12H189.179V6.594L184.827 12H183.416V3.5H185.218V8.889L189.57 3.5ZM201.74 4.809C202.51 5.61367 202.896 6.594 202.896 7.75C202.896 8.906 202.51 9.88633 201.74 10.691C200.969 11.4957 199.926 11.983 198.612 12.153V15.4H196.81V12.153C195.495 11.983 194.452 11.4957 193.682 10.691C192.911 9.88633 192.526 8.906 192.526 7.75C192.526 6.594 192.911 5.61367 193.682 4.809C194.452 4.00433 195.495 3.517 196.81 3.347V0.0999992H198.612V3.347C199.926 3.517 200.969 4.00433 201.74 4.809ZM198.612 10.402C199.394 10.2547 200 9.94867 200.431 9.484C200.861 9.008 201.077 8.43 201.077 7.75C201.077 7.07 200.861 6.49767 200.431 6.033C200 5.557 199.394 5.24533 198.612 5.098V10.402ZM194.991 6.033C194.56 6.509 194.345 7.08133 194.345 7.75C194.345 8.41867 194.56 8.991 194.991 9.467C195.421 9.943 196.028 10.2547 196.81 10.402V5.098C196.028 5.24533 195.421 5.557 194.991 6.033ZM209.257 3.279C210.425 3.279 211.422 3.71533 212.249 4.588C213.077 5.44933 213.49 6.50333 213.49 7.75C213.49 9.008 213.077 10.0677 212.249 10.929C211.422 11.7903 210.425 12.221 209.257 12.221C207.965 12.221 206.974 11.745 206.282 10.793V15.4H204.446V3.5H206.282V4.724C206.974 3.76067 207.965 3.279 209.257 3.279ZM207.047 9.705C207.557 10.215 208.198 10.47 208.968 10.47C209.739 10.47 210.379 10.215 210.889 9.705C211.399 9.18367 211.654 8.532 211.654 7.75C211.654 6.968 211.399 6.322 210.889 5.812C210.379 5.29067 209.739 5.03 208.968 5.03C208.198 5.03 207.557 5.29067 207.047 5.812C206.537 6.322 206.282 6.968 206.282 7.75C206.282 8.532 206.537 9.18367 207.047 9.705ZM218.75 6.39C219.657 6.39 220.399 6.65067 220.977 7.172C221.555 7.682 221.844 8.35633 221.844 9.195C221.844 10.0223 221.555 10.6967 220.977 11.218C220.399 11.7393 219.657 12 218.75 12H215.044V3.5H216.88V6.39H218.75ZM222.864 3.5H224.7V12H222.864V3.5ZM218.767 10.351C219.13 10.351 219.43 10.2433 219.668 10.028C219.918 9.81267 220.042 9.535 220.042 9.195C220.042 8.84367 219.918 8.566 219.668 8.362C219.43 8.14667 219.13 8.039 218.767 8.039H216.88V10.351H218.767ZM5.953 29.631C6.79167 30.0163 7.211 30.668 7.211 31.586C7.211 32.3 6.96733 32.8837 6.48 33.337C6.004 33.779 5.31833 34 4.423 34H0.071V25.5H4.083C4.95567 25.5 5.63 25.721 6.106 26.163C6.59333 26.5937 6.837 27.1547 6.837 27.846C6.837 28.6507 6.54233 29.2457 5.953 29.631ZM3.947 27.064H1.822V28.951H3.947C4.695 28.951 5.069 28.6337 5.069 27.999C5.069 27.3757 4.695 27.064 3.947 27.064ZM4.253 32.402C5.02367 32.402 5.409 32.0677 5.409 31.399C5.409 31.1043 5.307 30.8777 5.103 30.719C4.899 30.549 4.61567 30.464 4.253 30.464H1.822V32.402H4.253ZM15.8608 34H13.7358L11.6278 31.093L9.50278 34H7.36078L10.5568 29.631L7.53078 25.5H9.65578L11.6108 28.186L13.5658 25.5H15.7078L12.6818 29.648L15.8608 34ZM20.3816 34.221C19.1349 34.221 18.0752 33.7903 17.2026 32.929C16.3299 32.0677 15.8936 31.008 15.8936 29.75C15.8936 28.492 16.3299 27.4323 17.2026 26.571C18.0752 25.7097 19.1349 25.279 20.3816 25.279C21.6396 25.279 22.6992 25.7097 23.5606 26.571C24.4332 27.4323 24.8696 28.492 24.8696 29.75C24.8696 31.008 24.4332 32.0677 23.5606 32.929C22.6992 33.7903 21.6396 34.221 20.3816 34.221ZM18.4946 31.671C19.0046 32.181 19.6336 32.436 20.3816 32.436C21.1296 32.436 21.7586 32.181 22.2686 31.671C22.7786 31.161 23.0336 30.5207 23.0336 29.75C23.0336 28.9793 22.7786 28.339 22.2686 27.829C21.7586 27.319 21.1296 27.064 20.3816 27.064C19.6336 27.064 19.0046 27.319 18.4946 27.829C17.9846 28.339 17.7296 28.9793 17.7296 29.75C17.7296 30.5207 17.9846 31.161 18.4946 31.671ZM33.5677 32.266H34.7067V36.278H32.9047V34H27.0737V36.278H25.2717V32.266H26.3087C26.83 31.5293 27.0907 30.5037 27.0907 29.189V25.5H33.5677V32.266ZM28.3317 32.266H31.7657V27.183H28.8927V29.189C28.8927 30.4017 28.7057 31.4273 28.3317 32.266ZM42.501 25.5V34H40.699V31.144H39.679L37.52 34H35.361L37.656 30.974C37.0667 30.7813 36.5907 30.4413 36.228 29.954C35.8767 29.4667 35.701 28.9227 35.701 28.322C35.701 27.54 35.9787 26.877 36.534 26.333C37.1007 25.7777 37.826 25.5 38.71 25.5H42.501ZM38.812 29.563H40.699V27.166H38.812C38.438 27.166 38.1264 27.2737 37.877 27.489C37.6277 27.7043 37.503 27.999 37.503 28.373C37.503 28.7357 37.6277 29.0247 37.877 29.24C38.1264 29.4553 38.438 29.563 38.812 29.563ZM56.2578 32.266H57.3968V36.278H55.5948V34H44.5278V25.5H46.3638V32.266H49.4748V25.5H51.3108V32.266H54.4218V25.5H56.2578V32.266ZM59.8912 30.532C60.0272 31.178 60.3388 31.6767 60.8262 32.028C61.3135 32.368 61.9085 32.538 62.6112 32.538C63.5858 32.538 64.3168 32.1867 64.8042 31.484L66.3172 32.368C65.4785 33.6033 64.2375 34.221 62.5942 34.221C61.2115 34.221 60.0952 33.8017 59.2452 32.963C58.3952 32.113 57.9702 31.042 57.9702 29.75C57.9702 28.4807 58.3895 27.421 59.2282 26.571C60.0668 25.7097 61.1435 25.279 62.4582 25.279C63.7048 25.279 64.7248 25.7153 65.5182 26.588C66.3228 27.4607 66.7252 28.5203 66.7252 29.767C66.7252 29.9597 66.7025 30.2147 66.6572 30.532H59.8912ZM59.8742 29.036H64.8722C64.7475 28.3447 64.4585 27.8233 64.0052 27.472C63.5632 27.1207 63.0418 26.945 62.4412 26.945C61.7612 26.945 61.1945 27.132 60.7412 27.506C60.2878 27.88 59.9988 28.39 59.8742 29.036ZM73.9257 25.5V27.268H70.0667V34H68.2307V25.5H73.9257ZM78.7401 34.221C77.4934 34.221 76.4338 33.7903 75.5611 32.929C74.6884 32.0677 74.2521 31.008 74.2521 29.75C74.2521 28.492 74.6884 27.4323 75.5611 26.571C76.4338 25.7097 77.4934 25.279 78.7401 25.279C79.9981 25.279 81.0578 25.7097 81.9191 26.571C82.7918 27.4323 83.2281 28.492 83.2281 29.75C83.2281 31.008 82.7918 32.0677 81.9191 32.929C81.0578 33.7903 79.9981 34.221 78.7401 34.221ZM76.8531 31.671C77.3631 32.181 77.9921 32.436 78.7401 32.436C79.4881 32.436 80.1171 32.181 80.6271 31.671C81.1371 31.161 81.3921 30.5207 81.3921 29.75C81.3921 28.9793 81.1371 28.339 80.6271 27.829C80.1171 27.319 79.4881 27.064 78.7401 27.064C77.9921 27.064 77.3631 27.319 76.8531 27.829C76.3431 28.339 76.0881 28.9793 76.0881 29.75C76.0881 30.5207 76.3431 31.161 76.8531 31.671ZM94.6473 25.5H96.4833V34H94.6473V30.617H90.7543V34H88.9183V25.5H90.7543V28.883H94.6473V25.5ZM102.516 34.221C101.269 34.221 100.209 33.7903 99.3366 32.929C98.4639 32.0677 98.0276 31.008 98.0276 29.75C98.0276 28.492 98.4639 27.4323 99.3366 26.571C100.209 25.7097 101.269 25.279 102.516 25.279C103.774 25.279 104.833 25.7097 105.695 26.571C106.567 27.4323 107.004 28.492 107.004 29.75C107.004 31.008 106.567 32.0677 105.695 32.929C104.833 33.7903 103.774 34.221 102.516 34.221ZM100.629 31.671C101.139 32.181 101.768 32.436 102.516 32.436C103.264 32.436 103.893 32.181 104.403 31.671C104.913 31.161 105.168 30.5207 105.168 29.75C105.168 28.9793 104.913 28.339 104.403 27.829C103.893 27.319 103.264 27.064 102.516 27.064C101.768 27.064 101.139 27.319 100.629 27.829C100.119 28.339 99.8636 28.9793 99.8636 29.75C99.8636 30.5207 100.119 31.161 100.629 31.671ZM117.224 25.5V34H115.439V28.407L112.991 32.3H112.77L110.339 28.424V34H108.554V25.5H110.424L112.889 29.427L115.354 25.5H117.224ZM120.68 30.532C120.816 31.178 121.127 31.6767 121.615 32.028C122.102 32.368 122.697 32.538 123.4 32.538C124.374 32.538 125.105 32.1867 125.593 31.484L127.106 32.368C126.267 33.6033 125.026 34.221 123.383 34.221C122 34.221 120.884 33.8017 120.034 32.963C119.184 32.113 118.759 31.042 118.759 29.75C118.759 28.4807 119.178 27.421 120.017 26.571C120.855 25.7097 121.932 25.279 123.247 25.279C124.493 25.279 125.513 25.7153 126.307 26.588C127.111 27.4607 127.514 28.5203 127.514 29.767C127.514 29.9597 127.491 30.2147 127.446 30.532H120.68ZM120.663 29.036H125.661C125.536 28.3447 125.247 27.8233 124.794 27.472C124.352 27.1207 123.83 26.945 123.23 26.945C122.55 26.945 121.983 27.132 121.53 27.506C121.076 27.88 120.787 28.39 120.663 29.036ZM133.83 25.279C134.998 25.279 135.995 25.7153 136.822 26.588C137.65 27.4493 138.063 28.5033 138.063 29.75C138.063 31.008 137.65 32.0677 136.822 32.929C135.995 33.7903 134.998 34.221 133.83 34.221C132.538 34.221 131.547 33.745 130.855 32.793V37.4H129.019V25.5H130.855V26.724C131.547 25.7607 132.538 25.279 133.83 25.279ZM131.62 31.705C132.13 32.215 132.771 32.47 133.541 32.47C134.312 32.47 134.952 32.215 135.462 31.705C135.972 31.1837 136.227 30.532 136.227 29.75C136.227 28.968 135.972 28.322 135.462 27.812C134.952 27.2907 134.312 27.03 133.541 27.03C132.771 27.03 132.13 27.2907 131.62 27.812C131.11 28.322 130.855 28.968 130.855 29.75C130.855 30.532 131.11 31.1837 131.62 31.705ZM146.349 25.5H148.185V34H146.349V32.776C145.658 33.7393 144.666 34.221 143.374 34.221C142.207 34.221 141.21 33.7903 140.382 32.929C139.555 32.0563 139.141 30.9967 139.141 29.75C139.141 28.492 139.555 27.4323 140.382 26.571C141.21 25.7097 142.207 25.279 143.374 25.279C144.666 25.279 145.658 25.755 146.349 26.707V25.5ZM141.742 31.705C142.252 32.215 142.893 32.47 143.663 32.47C144.434 32.47 145.074 32.215 145.584 31.705C146.094 31.1837 146.349 30.532 146.349 29.75C146.349 28.968 146.094 28.322 145.584 27.812C145.074 27.2907 144.434 27.03 143.663 27.03C142.893 27.03 142.252 27.2907 141.742 27.812C141.232 28.322 140.977 28.968 140.977 29.75C140.977 30.532 141.232 31.1837 141.742 31.705Z" fill="#A7A7B1"/>
</svg>
