<svg width="28" height="28" viewBox="0 0 28 28" fill="none" xmlns="http://www.w3.org/2000/svg">
<circle cx="14" cy="14" r="14" fill="black" fill-opacity="0.3"/>
<g clip-path="url(#clip0_2459_1728)">
<path d="M16.3275 12.1491L16.3322 11.375C16.3322 10.0863 15.2875 9.04163 13.9989 9.04163C12.7102 9.04163 12.2182 9.61233 11.7852 10.3215" stroke="white" stroke-width="1.41748" stroke-linecap="round" stroke-linejoin="round"/>
<path d="M9.45982 12.6407C9.63684 12.4637 9.86938 12.3731 10.203 12.327C10.5369 12.2809 10.9703 12.2794 11.5482 12.2794H16.4519C17.0298 12.2794 17.4633 12.2809 17.7971 12.327C18.1307 12.3731 18.3633 12.4637 18.5403 12.6407C18.7172 12.8177 18.8032 13.0501 18.8448 13.3837C18.8837 13.6956 18.8835 14.0943 18.8833 14.6164C18.8833 14.6533 18.8833 14.6909 18.8833 14.7291V15.9505C18.8833 15.9806 18.8833 16.0105 18.8833 16.0401C18.8834 16.8622 18.8835 17.483 18.821 17.9647C18.7563 18.4634 18.6247 18.8113 18.358 19.078C18.0912 19.3447 17.7433 19.4808 17.2446 19.5501C16.7456 19.6194 16.0972 19.6215 15.2305 19.6215H12.7696C11.9029 19.6215 11.2545 19.6194 10.7555 19.5501C10.2568 19.4808 9.90887 19.3447 9.64212 19.078C9.37542 18.8113 9.24383 18.4634 9.17912 17.9647C9.11662 17.483 9.11668 16.8621 9.11676 16.04C9.11676 16.0105 9.11676 15.9806 9.11676 15.9505V14.7291C9.11676 14.691 9.11675 14.6534 9.11673 14.6165C9.11655 14.0943 9.1164 13.6956 9.15527 13.3837C9.19685 13.0501 9.28289 12.8177 9.45982 12.6407ZM15.0959 16.0416C15.0959 15.3911 14.5686 14.8637 13.918 14.8637C13.2675 14.8637 12.7401 15.3911 12.7401 16.0416C12.7401 16.6922 13.2675 17.2195 13.918 17.2195C14.5686 17.2195 15.0959 16.6922 15.0959 16.0416Z" fill="white" stroke="white" stroke-width="0.022479"/>
</g>
<defs>
<clipPath id="clip0_2459_1728">
<rect width="14" height="14" fill="white" transform="translate(7 7)"/>
</clipPath>
</defs>
</svg>
