<svg width="297" height="30" viewBox="0 0 297 30" fill="none" xmlns="http://www.w3.org/2000/svg">
<path d="M16.816 0.599998V23H12.4V4.824H4.496V23H0.0800002V0.599998H16.816ZM34.2863 21.016C32.6436 22.6373 30.6383 23.448 28.2703 23.448C25.9023 23.448 23.8969 22.6373 22.2543 21.016C20.6329 19.3733 19.8223 17.368 19.8223 15C19.8223 12.632 20.6329 10.6373 22.2543 9.016C23.8969 7.37333 25.9023 6.552 28.2703 6.552C30.6383 6.552 32.6436 7.37333 34.2863 9.016C35.9289 10.6373 36.7503 12.632 36.7503 15C36.7503 17.368 35.9289 19.3733 34.2863 21.016ZM25.1663 18.168C25.9983 19 27.0329 19.416 28.2703 19.416C29.5076 19.416 30.5423 19 31.3743 18.168C32.2063 17.336 32.6223 16.28 32.6223 15C32.6223 13.72 32.2063 12.664 31.3743 11.832C30.5423 11 29.5076 10.584 28.2703 10.584C27.0329 10.584 25.9983 11 25.1663 11.832C24.3556 12.664 23.9503 13.72 23.9503 15C23.9503 16.28 24.3556 17.336 25.1663 18.168ZM53.2893 19.128H55.4013V27.288H51.3693V23H41.4493V27.288H37.4173V19.128H39.3693C40.2866 17.7627 40.7453 15.8747 40.7453 13.464V7H53.2893V19.128ZM43.7853 19.128H49.2573V10.712H44.7773V13.464C44.7773 15.7253 44.4466 17.6133 43.7853 19.128ZM69.8573 7V10.968H64.8653V23H60.7373V10.968H55.6813V7H69.8573ZM83.4418 14.808C84.9351 15.5333 85.6818 16.7493 85.6818 18.456C85.6818 19.8 85.2124 20.8987 84.2738 21.752C83.3564 22.584 82.0444 23 80.3378 23H71.9218V7H79.6978C81.3831 7 82.6844 7.416 83.6018 8.248C84.5404 9.08 85.0098 10.168 85.0098 11.512C85.0098 12.92 84.4871 14.0187 83.4418 14.808ZM79.3138 10.392H75.7938V13.272H79.3138C80.4871 13.272 81.0738 12.792 81.0738 11.832C81.0738 10.872 80.4871 10.392 79.3138 10.392ZM79.8578 19.512C81.0524 19.512 81.6498 19 81.6498 17.976C81.6498 17.528 81.4898 17.176 81.1698 16.92C80.8498 16.664 80.4124 16.536 79.8578 16.536H75.7938V19.512H79.8578ZM91.6135 16.696C92.1682 18.7013 93.6722 19.704 96.1255 19.704C97.7042 19.704 98.8988 19.1707 99.7095 18.104L103.038 20.024C101.459 22.3067 99.1335 23.448 96.0615 23.448C93.4162 23.448 91.2935 22.648 89.6935 21.048C88.0935 19.448 87.2935 17.432 87.2935 15C87.2935 12.5893 88.0828 10.584 89.6615 8.984C91.2402 7.36267 93.2668 6.552 95.7415 6.552C98.0882 6.552 100.019 7.36267 101.534 8.984C103.07 10.6053 103.838 12.6107 103.838 15C103.838 15.5333 103.784 16.0987 103.678 16.696H91.6135ZM91.5495 13.496H99.7095C99.4748 12.408 98.9842 11.5973 98.2375 11.064C97.5122 10.5307 96.6802 10.264 95.7415 10.264C94.6322 10.264 93.7148 10.552 92.9895 11.128C92.2642 11.6827 91.7842 12.472 91.5495 13.496ZM115.891 6.552C118.046 6.552 119.881 7.37333 121.395 9.016C122.931 10.6373 123.699 12.632 123.699 15C123.699 17.368 122.931 19.3733 121.395 21.016C119.881 22.6373 118.046 23.448 115.891 23.448C113.651 23.448 111.923 22.6693 110.707 21.112V29.4H106.579V7H110.707V8.888C111.923 7.33067 113.651 6.552 115.891 6.552ZM111.955 18.264C112.787 19.096 113.843 19.512 115.123 19.512C116.403 19.512 117.459 19.096 118.291 18.264C119.145 17.4107 119.571 16.3227 119.571 15C119.571 13.6773 119.145 12.6 118.291 11.768C117.459 10.9147 116.403 10.488 115.123 10.488C113.843 10.488 112.787 10.9147 111.955 11.768C111.123 12.6 110.707 13.6773 110.707 15C110.707 16.3227 111.123 17.4107 111.955 18.264ZM140.245 19.128H142.357V27.288H138.325V23H128.405V27.288H124.373V19.128H126.325C127.243 17.7627 127.701 15.8747 127.701 13.464V7H140.245V19.128ZM130.741 19.128H136.213V10.712H131.733V13.464C131.733 15.7253 131.403 17.6133 130.741 19.128ZM156.383 7H159.455V23H155.423V13.912L147.903 23H144.831V7H148.863V16.088L156.383 7ZM175.705 7V10.968H170.713V23H166.585V10.968H161.529V7H175.705ZM180.632 16.696C181.187 18.7013 182.691 19.704 185.144 19.704C186.723 19.704 187.918 19.1707 188.728 18.104L192.056 20.024C190.478 22.3067 188.152 23.448 185.08 23.448C182.435 23.448 180.312 22.648 178.712 21.048C177.112 19.448 176.312 17.432 176.312 15C176.312 12.5893 177.102 10.584 178.68 8.984C180.259 7.36267 182.286 6.552 184.76 6.552C187.107 6.552 189.038 7.36267 190.552 8.984C192.088 10.6053 192.856 12.6107 192.856 15C192.856 15.5333 192.803 16.0987 192.696 16.696H180.632ZM180.568 13.496H188.728C188.494 12.408 188.003 11.5973 187.256 11.064C186.531 10.5307 185.699 10.264 184.76 10.264C183.651 10.264 182.734 10.552 182.008 11.128C181.283 11.6827 180.803 12.472 180.568 13.496ZM213.954 7H218.082V23H213.954V16.92H207.586V23H203.458V7H207.586V13.048H213.954V7ZM235.356 21.016C233.714 22.6373 231.708 23.448 229.34 23.448C226.972 23.448 224.967 22.6373 223.324 21.016C221.703 19.3733 220.892 17.368 220.892 15C220.892 12.632 221.703 10.6373 223.324 9.016C224.967 7.37333 226.972 6.552 229.34 6.552C231.708 6.552 233.714 7.37333 235.356 9.016C236.999 10.6373 237.82 12.632 237.82 15C237.82 17.368 236.999 19.3733 235.356 21.016ZM226.236 18.168C227.068 19 228.103 19.416 229.34 19.416C230.578 19.416 231.612 19 232.444 18.168C233.276 17.336 233.692 16.28 233.692 15C233.692 13.72 233.276 12.664 232.444 11.832C231.612 11 230.578 10.584 229.34 10.584C228.103 10.584 227.068 11 226.236 11.832C225.426 12.664 225.02 13.72 225.02 15C225.02 16.28 225.426 17.336 226.236 18.168ZM257.224 7V23H253.224V13.656L249.16 20.056H248.648L244.552 13.592V23H240.584V7H244.648L248.904 13.72L253.16 7H257.224ZM264.338 16.696C264.893 18.7013 266.397 19.704 268.85 19.704C270.429 19.704 271.624 19.1707 272.434 18.104L275.762 20.024C274.184 22.3067 271.858 23.448 268.786 23.448C266.141 23.448 264.018 22.648 262.418 21.048C260.818 19.448 260.018 17.432 260.018 15C260.018 12.5893 260.808 10.584 262.386 8.984C263.965 7.36267 265.992 6.552 268.466 6.552C270.813 6.552 272.744 7.36267 274.258 8.984C275.794 10.6053 276.562 12.6107 276.562 15C276.562 15.5333 276.509 16.0987 276.402 16.696H264.338ZM264.274 13.496H272.434C272.2 12.408 271.709 11.5973 270.962 11.064C270.237 10.5307 269.405 10.264 268.466 10.264C267.357 10.264 266.44 10.552 265.714 11.128C264.989 11.6827 264.509 12.472 264.274 13.496ZM288.616 6.552C290.771 6.552 292.606 7.37333 294.12 9.016C295.656 10.6373 296.424 12.632 296.424 15C296.424 17.368 295.656 19.3733 294.12 21.016C292.606 22.6373 290.771 23.448 288.616 23.448C286.376 23.448 284.648 22.6693 283.432 21.112V29.4H279.304V7H283.432V8.888C284.648 7.33067 286.376 6.552 288.616 6.552ZM284.68 18.264C285.512 19.096 286.568 19.512 287.848 19.512C289.128 19.512 290.184 19.096 291.016 18.264C291.87 17.4107 292.296 16.3227 292.296 15C292.296 13.6773 291.87 12.6 291.016 11.768C290.184 10.9147 289.128 10.488 287.848 10.488C286.568 10.488 285.512 10.9147 284.68 11.768C283.848 12.6 283.432 13.6773 283.432 15C283.432 16.3227 283.848 17.4107 284.68 18.264Z" fill="black"/>
</svg>
