<svg width="17" height="17" viewBox="0 0 17 17" fill="none" xmlns="http://www.w3.org/2000/svg">
<path d="M5.95755 13.5971L5.95756 13.5971C5.95884 13.5967 5.96013 13.5964 5.96142 13.5961C5.97855 13.5918 5.99585 13.5875 6.01331 13.5832C6.23737 13.5277 6.48679 13.4659 6.71479 13.3368C6.94279 13.2078 7.12409 13.0257 7.28694 12.8621C7.30059 12.8484 7.31411 12.8348 7.32752 12.8214L12.1809 7.96806C12.2007 7.94817 12.2209 7.92815 12.2412 7.90798C12.4646 7.68571 12.7066 7.44504 12.8474 7.16085C13.1103 6.63047 13.1103 6.00777 12.8474 5.47739C12.7066 5.1932 12.4646 4.95253 12.2412 4.73026C12.2209 4.71009 12.2007 4.69007 12.1809 4.67018C12.161 4.65029 12.1409 4.63016 12.1208 4.60987C11.8985 4.3864 11.6578 4.14442 11.3736 4.00359C10.8433 3.74076 10.2206 3.74076 9.69019 4.00359C9.40599 4.14442 9.16532 4.3864 8.94306 4.60987C8.92289 4.63016 8.90286 4.65029 8.88297 4.67018L4.02964 9.52351C4.01623 9.53692 4.00265 9.55044 3.98895 9.56409C3.82537 9.72694 3.64328 9.90824 3.51419 10.1362C3.3851 10.3642 3.32332 10.6137 3.26783 10.8377C3.26318 10.8565 3.25857 10.8751 3.25397 10.8935L2.90622 12.2845C2.90341 12.2957 2.90053 12.3072 2.89759 12.3189C2.85798 12.4767 2.80818 12.6752 2.7913 12.8478C2.77215 13.0436 2.76941 13.4391 3.09066 13.7604C3.41191 14.0816 3.80748 14.0789 4.00328 14.0597C4.17585 14.0429 4.37429 13.9931 4.5321 13.9534C4.54381 13.9505 4.55529 13.9476 4.56653 13.9448L5.95755 13.5971Z" stroke="#C4C4C4" stroke-width="1.68508"/>
<path d="M8.77637 5.26556L10.8827 3.86133L12.9891 5.96768L11.5848 8.07403L8.77637 5.26556Z" fill="#C4C4C4"/>
</svg>
