<svg width="161" height="52" viewBox="0 0 161 52" fill="none" xmlns="http://www.w3.org/2000/svg">
<g clip-path="url(#clip0_2459_1563)">
<circle cx="20" cy="21" r="20" fill="url(#paint0_linear_2459_1563)"/>
<ellipse cx="30.0005" cy="33.7273" rx="15.4545" ry="15.4545" transform="rotate(90 30.0005 33.7273)" fill="url(#paint1_linear_2459_1563)"/>
</g>
<path fill-rule="evenodd" clip-rule="evenodd" d="M93.1792 9.56341C92.0105 9.56341 90.988 9.14331 90.1115 8.30313C89.2715 7.42642 88.8516 6.40358 88.8516 5.23463C88.8516 4.06569 89.2715 3.04286 90.1115 2.16614C90.988 1.28943 92.0105 0.851074 93.1792 0.851074C94.3843 0.851074 95.4069 1.28943 96.2468 2.16614C97.1233 3.04286 97.5616 4.06569 97.5616 5.23463C97.5616 6.40358 97.1233 7.42642 96.2468 8.30313C95.4069 9.14331 94.3843 9.56341 93.1792 9.56341ZM129.716 20.7889C131.582 20.7889 133.095 19.2764 133.095 17.4106C133.095 15.5448 131.582 14.0322 129.716 14.0322H127.426C127.187 14.0322 126.993 13.8381 126.993 13.5987V4.50992C126.993 2.58631 125.433 1.02692 123.51 1.02692C121.586 1.02692 120.027 2.58631 120.027 4.50992V13.5987C120.027 13.8381 119.833 14.0322 119.593 14.0322H117.308C115.442 14.0322 113.93 15.5448 113.93 17.4106C113.93 19.2764 115.442 20.7889 117.308 20.7889H119.156C119.637 20.7889 120.027 21.1788 120.027 21.6599V31.6498C120.027 35.3914 120.999 37.9887 122.943 39.4418C124.551 40.6221 127.086 41.1433 130.547 41.0052C132.062 40.9448 133.275 39.7798 133.539 38.2868C133.922 36.1158 132.202 34.4205 129.998 34.4836C129.906 34.4862 129.821 34.4863 129.747 34.4833C128.847 34.4106 128.163 34.1563 127.695 33.7204C127.227 33.2845 126.993 32.5943 126.993 31.6498V21.6606C126.993 21.1792 127.383 20.7889 127.864 20.7889H129.716ZM89.8516 37.5439C89.8516 39.4675 91.411 41.0269 93.3346 41.0269C95.2582 41.0269 96.8176 39.4675 96.8176 37.5439V17.5099C96.8176 15.5863 95.2582 14.0269 93.3346 14.0269C91.411 14.0269 89.8516 15.5863 89.8516 17.5099V37.5439ZM154.101 16.3206C154.597 14.9568 155.893 14.0489 157.344 14.0489C159.768 14.0489 161.437 16.4835 160.562 18.7446L152.212 40.3266C151.981 40.7549 151.767 41.1656 151.56 41.5614C150.349 43.8797 149.404 45.6892 147.117 47.5494C144.442 49.725 142.163 50.7992 139.118 51.1128C137.862 51.2421 136.731 50.423 136.3 49.2366L136.16 48.8487C135.589 47.2779 136.413 45.5439 137.99 44.9929L140.972 43.9515C141.899 43.6278 142.741 43.0882 143.34 42.3109C143.735 41.7996 144.182 41.1665 144.543 40.516C144.906 39.8625 144.869 39.081 144.578 38.3925L136.333 18.8665C135.368 16.5799 137.046 14.0489 139.528 14.0489C140.965 14.0489 142.252 14.9343 142.767 16.2754L147.827 29.4705C148.092 30.1617 149.073 30.1531 149.326 29.4574L154.101 16.3206ZM104.317 37.5439C104.317 39.4675 105.876 41.0269 107.8 41.0269C109.723 41.0269 111.283 39.4675 111.283 37.5439V4.50992C111.283 2.58631 109.723 1.02692 107.8 1.02692C105.876 1.02692 104.317 2.58631 104.317 4.50992V37.5439ZM81.0209 19.9016C82.6229 19.9016 83.9216 21.2003 83.9216 22.8023C83.9216 28.1739 82.408 32.4374 78.952 35.7679C75.496 39.0983 70.8176 40.8511 65.3456 40.8511C59.8371 40.6708 55.6751 38.8743 51.8231 35.1142C48.0071 31.3182 46.1016 26.2631 46.1016 21.5057C46.1016 16.0266 48.0261 11.4112 51.8061 7.61521C55.5323 3.94854 60.1698 1.85107 65.7858 1.85107C69.3138 1.85107 72.3454 2.67898 75.2614 4.29048C77.0451 5.25432 78.6706 6.58565 80.0348 8.08079C81.4351 9.61544 80.8666 11.9585 79.1019 13.0547C77.3828 14.1225 75.2853 13.512 73.8624 12.073C73.3113 11.5157 72.6456 10.9866 71.7983 10.5314C69.9983 9.56451 68.0178 8.98551 65.7858 8.98551C62.1858 8.98551 59.471 10.2735 57.1504 12.4546C54.8464 14.7823 53.3848 17.7514 53.3848 21.3326C53.3848 24.8779 54.9008 27.8399 56.9887 30.002C59.2396 32.0636 61.8051 33.5033 65.3996 33.5993C68.2901 33.6741 70.7437 32.7945 72.6157 31.5411C74.1393 30.5116 75.2166 29.2988 75.937 27.7213C76.2166 27.1092 75.7341 26.455 75.0612 26.455H68.2443C66.4346 26.455 64.9676 24.988 64.9676 23.1783C64.9676 21.3686 66.4346 19.9016 68.2443 19.9016H81.0209Z" fill="url(#paint2_linear_2459_1563)"/>
<defs>
<linearGradient id="paint0_linear_2459_1563" x1="-2.79394e-08" y1="21" x2="43.0321" y2="21" gradientUnits="userSpaceOnUse">
<stop stop-color="#FF6645"/>
<stop offset="0.0001" stop-color="#FF6645"/>
<stop offset="1" stop-color="#DF2B4B"/>
</linearGradient>
<linearGradient id="paint1_linear_2459_1563" x1="14.546" y1="41.8225" x2="41.7732" y2="20.2278" gradientUnits="userSpaceOnUse">
<stop offset="0.0001" stop-color="#F89133"/>
<stop offset="1" stop-color="#E83B4A"/>
</linearGradient>
<linearGradient id="paint2_linear_2459_1563" x1="46.1016" y1="25.9886" x2="169.492" y2="25.9886" gradientUnits="userSpaceOnUse">
<stop stop-color="#FF6645"/>
<stop offset="0.0001" stop-color="#FF6645"/>
<stop offset="1" stop-color="#DF2B4B"/>
</linearGradient>
<clipPath id="clip0_2459_1563">
<rect y="1" width="40" height="40" rx="20" fill="white"/>
</clipPath>
</defs>
</svg>
